<mxfile host="65bd71144e">
    <diagram id="yR-Se9Dl4UjaDMLrMmfl" name="Page-1">
        <mxGraphModel dx="427" dy="390" grid="1" gridSize="10" guides="1" tooltips="1" connect="1" arrows="1" fold="1" page="1" pageScale="1" pageWidth="827" pageHeight="1169" math="0" shadow="0">
            <root>
                <mxCell id="0"/>
                <mxCell id="1" parent="0"/>
                <mxCell id="2" value="" style="shape=image;verticalLabelPosition=bottom;labelBackgroundColor=default;verticalAlign=top;aspect=fixed;imageAspect=0;image=data:image/png,iVBORw0KGgoAAAANSUhEUgAAAggAAAF9CAYAAABh+5CMAAAAAXNSR0IArs4c6QAAIABJREFUeF7svQeUHOd1Jvp1VVfnNNOTc07AzCBnkAgECFIEgyRLVKKSrbXXG61dy9bu23f89nj37LHXXj3bz5acZFsSRYkSI5gDiJzDDAaTB5icp3Pu6nrn3p4Gh4PJGDChfh8cWZqudKv+///uvd/9rubw4cMKoEFMo4dfm4EpKQ9+0Q5ZIyGuaCAIGggaqEO1gGoB1QLLtoBGWfYhq3aAoq5bq2ZL9USfDgsoCiAnEhCgQEIMFtmL9PggzPEp6BJhAB+csJrDhx9VYhoDg4NRfQkmzaUI6ByQBQkyAI1GA61GnWmfjs9DfQrVAqoFVAuoFrhXLSArQEJJgHZ0XSIKU8QNR3AAWdEbSIsNQ6tEPwASNI8cfkzxarMwrivDgLkSIWse4noLIEj3qg3V51YtoFpAtYBqAdUCn24LyDEg6oMuMI5Sfxtyw10wJyYhKPFbz615+NHPKiO6SgyY18JjK0bU4IAiail28Ok2jvp0qgVUC6gWUC2gWuAetYBGUaAkYhDDHmT5byLX34qsSBckhVINyaF58LHfUAb0dbhpbUTYUQJFa0BCTSnco5+M+tiqBVQLqBZQLXDPWEBRoJGjMHn7ke+5hpLwFegTwfcBwsHHvqT06WvRZWtEPK0EEHX3jG3UB1UtoFpAtYBqAdUC97QFlAQETz+KXM2oCl+CPuF/HyAceOwrSp++Bh22BigqQLinvxP14VULqBZQLaBa4B6zAAEE7yAKp5pQHb44GyB8WRnU16LHTimGYjWCcI99G+rjqhZQLaBaQLXAPWwBBggDKJ5qQuXtEYQvK4OGZIohqgKEe/grUR9dtYBqAdUCqgXuOQuoAOGee+XqA38MLKBRElASMjSKDEVJQIICEQqIA6wWES/tBcVBTGsFpNaWUARQBXeMKqwEERqNwP+pqBVXSzOm+ivVAnNZQAUI6nehWuDuW4AKgxVFhqDIkEiMJBGHUSPDLMjQa2QYRAUGjQKR9jeNBvR/6ljYAnFFhizLEAURcQgIyxqEEhpEFAEhRYsAtEhoRCgaEQmNwKDhIxRvVF+naoFPngVUgPDJe2fqHX/SLKCAIgZiNABzIgQLIjCJCRTYDShNNyE3TY90sw4GnQBRJPlyDVQp4MXfsRxPIB6XIUkiZBnwh2WMeSPonwqjdzKAfl8UsqhDRGNEQDRA1hqgUGRBBV+LG1f9hWoBsoAKENTvQLXA3bKAAk08BikeghVhlFg0qM7UoTLTiCy7Hhk2PZxWPRxmHUx6LSRRgEaYjh2oAYRFXwqlF+SEApFTDAoiMRm+YBxT/iim/BFMeMMYckXQNhpG62QME7IWXo0BiqgHBBJ8U4dqAdUCC1pABQjqB6JaYPUtQKkEXSIGayKEXG0UZfYE1hTYsbHSicaSNOQ7zdBJourLrr7p+YyUSghF4ugc9OBc5wQudrvQMxlBt0+DYVmPsGiERqAUBEUU1KFaQLXAnBZQAYL6YagWWD0LsOOvxGGUI8jSBFBuA7YU27CvPgsVeTakmXUw6kQmJCJBLc8AjSBwKE9D5Dqt6tku+20oChLxOBRZhqDVIkH5BrKrJCESTyAYljHqCeFKzxRevzqCy0NhDMd18IpWxDQ6KKo67LJNrh7w4VqA1hWJCMzUIFHALa6SQkRdbrKkQSyhIKIoiK8m0UYFCB/ui1av9um1ABMREzL0MR8KtUHsKDRj35oMbKpwIt9pgtUoJcPh0SgiU5OIuqZ4cmuNJsihIPROJwzZOZ9eA92FJ1NIM16WEejrZXuacvIQnhxnoGUpLYdoMHDX2Vhcxrg3gr6xAI61juONaxNo92gwoTEjrDXdhTtTT6laYPUsYBA0SJc0yDGIcJpF2PUidFoNwQNE4wp80QTG/XEMhxIYjyVAnRlXZagAYVXMqJ7kHrcAgQMhEYc25keNMYItBXocaMjBtqpMFGaaP2CduM8HV+s1eNraoMgJGDIyER4fR9ratcjYvIX6qN/j1lz64yuJBORwGENvvQF3Wytytu/EZNNVaE0mFD7yKPTp6dCI4q0TUr/7tgEv3m4awTvXJ9EyBQzIJkRFvZpuWLrZ1V9+CBYgUFBoFJBr1iLbIiLfLiE/TUKmWQuzToAkJlNpcVlBIKpgIhDHoDuOAXcMI/4YhvwyhsMyQonk71Y0VICwIrOpB6kW+IAFtAkZhkQQ+fBib5kZj24uwKbKDKRb9Rw1mDkikxMYPXYMo6dPcjjcUlgIX28v8vbuQ9Hhx1SAsIxvi6IHMb8f7X//I4ycOImKLz6J/jdeh85mQ/1//C6MeXmcdpg54nICQ5NBvHJpEK81TeDymIxRwY6YIKkgYRm2V396dyxAqYQ0rYB8s4iGXD3W5OhRkalHQbqETIsIg1aAnKC0QnLbJ3+CKp/iCQVTgTh6J2PoGoviylAYzaMRjARlTMYV/vuyhwoQlm0y9QDVArMsoMAoh1EAD/aWmvDwhhzsrM1GmkV3GzigAyMT4xh57yjGzp5FQo7DnF+AwOAAcvfsRdEjj6oAYRnfFwMEnw9tP/xrDJ88geqnvoHeIy9BZ3dg3R98H4asrCTHY9aIxRMYdoXwwtl+vHBlDE1uAROCDYrakG4Z1ld/upoWSPEMsvQC6tJ12F5iwvYyI0qcOo4YROIKPKEEJgNxuIIyQtEEV+waJAEOo4hsqxYOkwC9VkA4nkDbSARnb4ZwpjeE1skoRxNiy8UIKkBYzVesnuves4ACMR5BviaIDRkKntyRj911WchxGCHMihykbMMA4dh7mLx6hSMIxswshCfGkbP7PuQfeFAFCMv4iFIAof1vf4iRM6dR841voe/IS5BsdjR87w9hcDrnPRuFZtuHvHj14hB+cnYYHVETwqIZiqhqWS7jFag/XSULmAQgzyBifY4eO8vM2FpqRKZFi0A0gUFXDN0TUdyYjGHUF+OUQlQm7VANJAEw6wVkmLUodepQk61DkVMHvVaDMZ+M870hnL4RwJWRCDr98eWRGFWAsEpvVz3NPWkBQUlAF3GhwRzFFzZl44lthSjLsS5oi6jbhclLF+Hr6QHl0CkcHvP7kN64HhmbNqsAYRlfEtkvHgig7/nn4Gq5hqJHH8PoiWMQzRZUPvV1SFbbgmdLJBRc6prA//dGF070xXBDNiGuI86IygNZxmtQf3qHFtBpCBwI2JRjwP5qC7aVmpBuEdE/FcXVgTCuDITRMRFBlzuOwUjitqtpNYBdK6DKpsXaHD0a8gxYX2REYZoEVzCBszcCONoVwMmBMMYiCYSXmm5QAcIdvln18E+kBWhCJTeBlZcFaRQFghxBpjyFfQVafPexNagtdHAZ40KDSHWhkRHEPB7SX4ZGJyERi8GYnQ1jTu4n0p4f1U1zFUMsBl9nB8ITE7BWVCA4OABBK8Gxth6CTrforY26Qnjv2ij+8b1enJ0S4dalASTRvOiRi/+AgkjJryHJOF/VErTFL7+iX1hEDaySBlqNBhEiwMUVhBIKbt+WVnT6VTvo1hRmGfNVO+2cJ0qG/zUwiYBW0EBWyC5AdJUunCUJaMjU4bG1VuyqMHHKoHUkihNdAZzrD+H6VBT+OEUNkiWOJq0GopBcwYiPEJAVxBQFeo0GDp2AQosWO0qMuL/SjDW5evjCCo51BvBqqw+XxyIMEpLFwIsMFSAsZiH17582CxAJyCIkJY1povsTK1u4qZ+CJebFjkwFjzak4/M7S5BpNy5ahEBebyIWhRKfnqJctaDwpraUDe3T9j7u9HkIJMihEJRYFCKVjEYirEgpmkzJpk2LDOIj9Iz68BdH2vBWdxhdcTNkyUQCFYsduuDfCRyYaFMRaLMFIonktxa5y5vZHd00gEaHFlvyjXAYteh3R3FtNIIbARmBpXqdd3oDSzieZoxe0IDgH82iEGlh3EW70sabrdeg1CbBaRLhjcjocMXQF14d2LTNKeFQtRWPrbPBohfQPhLBm21+XOgLocMbx2QswYCVQEqlRYu6TB3Meg3oC/WFE2idiGIgKMMtK9S7DDZRgwqbFlsLjXiwzop1BQYMe+J4o8WHF6770eqJLe19fpQAgSZOnlFAZZqEHKvEC+uYL44uVxQdfvljh1iX8N0u+JNdWXpszDdAEjXodcXQNhFFly/O6Fwdd24Bi1aD/QUGVGboEZMVdE5E0T4VRU9A5gU6QyfAJGqQYRKxPs+ANKOIMX8cp/tC6AvE4V/mXBflMKzhcXxzvRNfu68YNQUOGPULRw+W+5SRSARDwxOYmHQhGovDYbeiqDAHVssHSydnn9cfCOLmzUGMT7oQDkVuMZ51khaZmemoqiyB0aBnjYCPcsRiMUxNedBzcxChcBiZGekoLsyD2WyESC7ShzRImvnFs314/tIE3h2WEZAckO9QjjlDElDjkJiFnmkWMRmQcfRmEK2++LKfSidoUGvVoixNQrZFC7003bODohKygslgAjdcUTS5YgjeYRH8QwUGfL7RjiybFlf6Q3i7M4CrU1G4lslwq7JoUZ+lg90gYjIo44Yrhh5/HP47vD8ynlnUYFuWDhVOHXRaARP+OG+SV92xZUV+jIIG650SKtJ1SDOJYD6rAib5DXtlXB+PoiMQh13UoMquxa5SM2qz9Rj3xXGk1YdTE9Flv8uZB5CzkikJeLDMjM+tt2F9kYErEF6/7se73QF0uOOYjCcXJkpDFBpF3FdswqFaC+xG6loK1j843hXAid4QWqa/LZrVVlGDSpuE+8pMeKLRijy7hO7xKH5+0YMTfUF0BpYQQ7gbAIGWSKOoYRRj1AI6QQCtm5Kg4c2RXij9p1mnQa5Vi8Z8AwrTdAjFErg6EMLxG0EcH42sntjDHb3C1Tv4Xzfa8PVtaRweOtEdxKvXfTg2FIZ7BXFHo0YDp04Dm06AQUuLBRhQaRbCGvQbCkfFEhxi8sY/GDak0CIxaG06DfTUF2CZewddOkxM20gCwxEZM1NlFBZLlwRYtcleAxQu85PK3Z3U6M56NZkGEd/bkYYH11gRjMh4o8WPNzoDODkeYS+u0alDgVVEgV3C/dVm5DskDLpjePaylydMD93MEgc1X9LHQ8iJj+I/HSjBtw5UQS+JHJVYzeF2e3H6XBOut/UgGAyjpCgP++7fjPz87AUvMz4xhZOnr6Ct/QYmptwIhyOIRKLQ6XVYW1eBzz/+ADKcaR85QAgEgmjvuIkjrx9noFC/thIP7NmGnJwM6HQfHlkwHI2je9iLnx7vw48vTGBSl4GoaFjyq9RpNDCLyXWPQvOE+XNMAvaUm7Gv2oyCtOTi/JNzbgat5P3qRYpgAT6aj6EEPPFkmHiuQcB2X74Bu0qNqMs1wm4UINE6KiTnPeWqj3YE8XSrD5PEbr+D8WSFGd/Z6USWVcTJ7gBeaPLi3FgUE7HlnfdgvgFfXG9HQZoO7SNhvNsZwKmhMEbv8P7o0Zw6Ad+st2JvtQUmvYDWoQhea/Phpd7QsgBCmk7A19dacbDGgmy7FuEY9fZIhu07RiM41hVAz1QMVr2AIoeEPVVm9sbHfAn86rIbTSMRTm8QYXAyJGM0rMBLTcSW6PPRJr42TcLja214tNHK6QMCB883e3F5IgbXdOSAnpnATGO6hM832PD17WlwGJMAesQTx6vXfPj5JQ/eGY3cevMpkFCbJuHJRhsO1Fk4OvH8ZR+ev+bB0dElgJu7ARBI4KHMLKLELqHArmVkRiiS/tlMArIsEtIsAoyShl8EDW9YRsdYFGdvBHF+MIwmT2zBkBGZhgAHeYZkCHohNLlWAZzewdRa+NB/u86Ob+1I4+d+rzOAl1t8OE4AYZnInK6SqxOwIUuH2hwDcm0SdEtQ6KXNi0plbk5Gcao3iGZ3nHNoqW+52ixia4ERdTl6VuvS0kxZSo6N63CpLjcZAWoeiuCdviCGw8mwGA36JjZnEOKXuAxnwBPDTXcMvVSuI68sxD/b2lkGEX+4Kw0P19sQDCdw5JoXr7f7cXI8Cock4DOlRmwpMiEvTQtJEGAzCuwxtA1H8LOLNGHen1yLfQQaOYoMJYBNaTH85t5iPLGt6K5stpNTbrzz3jlcu96FQCCM0qI8fOah3Sgpzl/wFimC0HNjAH39IxgZHcfw8ARu9g0hHIliTV0Fvvm1x5CT5bwr97yY7Wb+3ecLoPlaJ375/JsgULNp/Ro88vB9KMzPgV6/OH9gOdda6LepZk9//2Yn/vebvRjRZiKsNS4pzUCLerYkoMAsIt+mhVEn8FxIN4lMOKvO1vN/7xyLoHU4griicPSKPECSgm4bjeBUbwidnjimpr3F2fdKm8PWTB025BtQkamDzShynjrTquWNPBRTeJP4k9MujIQW9wxp3aSoBAGMZHvx98dj5SZ8e0c6MqxanOwK4KVmL5omoretU1RXT5iB5H3nCoJ+rsyM396dznvAhb4wXm724dhAEMNzkOwWe4+03tP96khmWACcehHfWm/H3mozrzFne4I41h3EmdEISw4HYknexGIj0yDgv+5y4tFGGx93qTcIp0WLyiwd5+17JiKIxIA0swCTTuC11mlJ2vvGZBTeELUcVzDul3H2ZpCjke2++JKjOBTVfKTMjCfW2bCh0IAr/WE8e8WDI91BuGcBDQKJG5w6/EajHV/fbufvhwGCN47Xm334yUU33hr+4BpG63KeXsSBUhNHKDYUGXG5L4R/PuvGr3sCvG8uaKW7ARAcWg125hiwrcSIhnwDHGaShRT4I6SXS6GONJOAyUACb173oX0symES+tfvjWMwKGMi+v7mMtdLJo+w3CIi0yQySBgNyhgOyhhbwWa72Ee0Wn//N9MAwUQAoWMaIAyvDCCUmUQ8WG5itmt5lh7GFFKa42aTTq2GBTa0IjAwFcWPTrrwQk+Q2aypD2SjXYuD1VZsLTEiN02Cjla+GSP5u/e/qNRxFA0yEKlJ0MAfTuBcbwh/c9qFFlfs1iSlyMHjZWZeMEsyJI40XOoN4Wh3AJfGI5iIzv+ZUhic8A8teylxkLneyS2AsNaGQCSBV5o9eK0jgFPjUUbfaxxaPFRjxYEaCwOaCb/MKQaaYEeu+3BmMrokPETX1saDKNcGcbjGgs9ty8e26szV+kw+cJ6JSTfePnoGzS0EEEIoKcrH4YfvQ1lpwYLXi5P8cCCIQDCM0dEJjkCcOnMVBDjqaivwm994ArnZGR85QPB6/Whq7sQzz72O8fEpbN6wBo89sheFBR8uQEgZ85njN/BXb9/EtYAJLsG8pK6PFCaus0nYWmDg8rQsOwFQMFAgFrnFICAcVRg8u0Myb0S0JRP2HvXGeFM4diOATm8crnlcT5re+QYRuSaBNwaKPpQ7ddhSYsKOchNHEV9q9uG/vTOBoeDiACFXL6DSLqHIoYVVL7JeB89ARUFdrgH7asywGQRcH45wmdyYN85pu9SKQDiG0gZ97hiue2LwzeGZfbHCjH93vxN5Di1OdYfwXJMXJwZDGFkBQCBPmxj6xXaJnRebXsSeajMaCgwcFe0ej2DUm7Qv5drf6gzwfF5sZBkE/Pe9GTjcYOWSwH8550Jlph4PrbEyeDt7g55dRrpZZO+7PEvHz0PrS9NAmNcQeo+0dzUNh9E0EsbNYGJJ4ITuLd8o4jsb7His0QaHScQvLnjwYosXJ8Zvv3cCCBudOk7/3AYQrvnw0wsevDkcvu2RKTJcZdXiS+vt+Ox6G8KxBP7lrBs/b/ayE7cgJ+ZuAASbVoONGXqsz9OjKlvPyIvAHG0K9GHfV2VCUZqE9tEo/vTNcbzTG0LfElDvzCen8PqefCNqsvSsSd0zEcXl4QiavLHFvol5/05EFPN0u3hCqnadyCFpOr8nnECbO46pWIJ/49SJyDIKDHi8UYU94cVyfwwQtqfBpLtzgJBvELAjz8gM1Ry7ljfzecru2UOgmti1+QbU5ibzZ390ZBz/2Oz9AECosojYOm1TQsy08c8s95oNEMiQ9BsS8qBz03MNuuJ4tz2AH511odUdQ3AaxVPOkPgBD1RZsLPchPJMPfqmw6JHu/y4TESoWQsbRdBo01/j1LE3RlGmprEoBsLynCE8Bgg70/FQPaUYPggQaBITweehIgMerrOy8EjPRAxdExG4QjJaJqN8/aUETOi5jTEf1hqD+PauXBxozF20tHGlH+XtACGPAUJuThaCwRDzEohXYDTpYTAY5kxxkGd+8XIrXnvzJEZGJ5YMEGRZRigcQYCuE42zroPRaIDZaIRE6ZQ5BIhSz0nHUlrDH6B7jPHGQvdnMuo5zSGKyU6WiwEEWU4gEo0iFo0xmNHpdJx6mE9jYqV2Th339pUh/Mvxfrw9IGMwYYKiXTzNQJt3pVWLDTkGbCk2INMiMQguc+ohaTWY9Cflb2kDI3GbiJxAOAYEowmM+uK8dl2fiPLGmZovS3kO4go8Xm/DZ+qpCZiAl5p8+N7r4+j1L85xWGuRsLPEgPUFRo5CsK4/RRMVIMsmoSpbx2vKsCeG/qk4grEEqCSU1hiyPa0FFNq+2BfC851+3mhmD0pV/Pu9Gciza3GsI4BfXvXizHAIYws4A/M9d6ZOg915RmwqNLBDZDWIqMrSIdchISYnMOyOwx9JwBOK4/pQBM81+/DuEiKCBBD+iABCvRUDrhj+9O0Jdmq/utkOf1TBMxc8uNgfht1A0QMtdpWbUF9gZM7DC1e96BiPsi0IMIwGZAyG5CWnGIwaoMou4T/sdmJvjRlTfhl/+d4k3rkRxM2QzDwLcoIpjUzOF/0rdEh4oNqMw402WA3JFAOBFIr0vNriQ/v0/dCyOxGUOZpExFhykL6yxsopbgKtz1324OnLHlydii3MCbkbACHFQSCvlj6yJBEq+fGV2SX88UOZLALRNhrF/3htHEf7QsvOS+UYBHy22sJqU2lmLTpHI3ivO4Ar4xEGIfSPDEofNF2eUhnusIyBkIy5UmCEsnINBAgI/VPqI8HIem+VmcUqaBI/e82LVnccmXqBN636XD1vvL1TUQY5Q4sgYwII396RxpvTmZ4gXiEOQj9NmKXnrFITiLwW4jIYpp9zodQ3hffzTFr8qx0OfGmzg9EuAYQfN3sZ6aZ8d70AJvGR7WbLA881cSnfWmGT8Jk1xL61gmJEb7f52VM4PRTm50qdmz5liiKsc+qwv9KMQ2tsKE7XwhdJ4ERXkMNqbw+EmLeQWmoKDQK25BrweIMNJRk69IxH8XdnXLg0EUFgjnRoCiA8XG9llPx2qx+vtftxYiTCaQwaFHkpmQZUk6EERgJx9n6oTGg5qVFL1IN1lgC++3AFdtVmIcO2+EaylEV/9m9mAgS/P4iC/Bzs3rEeJqMBo2MTvAFbzEbkZGciLy8TNqsFWgoTzRjLBQiJRIKBgcvlxejYJIZHJ+H3ByBpRTidaZyayMhIg81mhqTV3opCJDcYhbkSbo8veezIBHz+AIOJtDQbMjPS+F+awwaDQY+APzhvBIGiRR6PD2PjLvi8flgsJuRkZyA93Q5JWkJObQUGv9Q9iefPDuLnTR6uZlCommGRQasbhb+pBM6uE5jH85k6Kx5Za4VeEtjTpPBz+1gErrAMT0yBN5bk/8hUPphI/icFP8PLSJN+odyML6y3sydNnIQj13z4ozcm0D4DmM936w02LfaUmrGu0MAAgXX9eYpokGPTonIaIPRORnFzMnZLppeABKU3KEVCGzLN3T87NcXkw9njK5Vm/Md9Gci2adlpeOayB+dGIxhfzkSbPmmWTsCeAiM2FxlQk2tgAiVtdBRNIcfhSl8I/a4Yxr1xJoD3TEUxHkncSp+QrQlI+CIKR6dTztx8AOFrW+wsRvT0BS/O3AxyhJZ6ITAHociACV8cv77k5QoPGrS8UPp2MiKj10/9DxZPbzi1yTTxd/c5UZ9vxNX+MP7k3XGcHI2AJJBKTCIeqjCj1EkpZA1EjYbfc1WWnh0yIqrSIHBCa2PrSISBi8KdHRO4NhTBhYEwugJxXv8+X27GVzY5sLHEiOMdyffx3mBoYfLpagME2pCJpDPfhlXnkPDnj2ZhR7mZSzn++PVxnOgPYXxWaoA+VipBIzvPNDU5tXSNTMqrFBuxp8KMqhw93EE5GfIJxPlFZlklRtWkMEUetD8s41hXEP/Q5MHYHGi3zqrFtgID9lVZODfdNhJl5PjVrXY05OnRPR7D35yYwunBMChvReSj7aUmbr3ZNBjGP1/xopsKYxcYBBB+a0ca0ixa3JyI4mh7AK+0+9DjicMlJztw0XMv/mkttmR98O9mQYMSsxa/d386vrkjbV6AMPMort9mfkfSW+BSshn3Rht+rknEV9dYcbDOwk1EesZjjKqPdAYwFpUxl6OQodWgzK7FtkIjDtZa0VhoxLA7hn8558bLbT4WAaHj6PrbM3R4alMah1D1WrC38hfHp3BmPDpnhUsKIFC4UBA1aB0K47XrPrzZHWRkT5NEryEimcC16ZReoYm8AocGhogLmy0B/PcvrsWWygwYl0ICWd5rS3oHM1IM5G0TANDrJcRicQRDYcTjMm++WVnpaFhTiS2b6pHhdKwYIND3R6mM623duNrczpUQxFtI0EJBqR6tFmazCQ1rq7BxfS2ys53QSUkyIQEL4j5cu9aJq03tGByZ4OiDQiF18oC0Inv/JcV52L65AaWlBZDj8m0A4dFH9iA3OxO9/cO4dLUNPT39fA+11aXYvqWBqzj0ev0KrLn4IZ2DHrx2eRh/f2YMrSEzoiyatLRByzXllPfkG/BgrRWbS41ct94zHuFv3BtJoGsiipaxKFqmOVbk2VFKlsA+pR5cUeUWa32hq9L8+069DV/b6mCOA83VE90B/ONpN84NhzGwiLPi1GqQyxu9AJ1Ia2TyagR07q8w42tb7TAZBDx32YufX/IygKF1gJoGNeQZsbvCzGnFczeC+JOTU+ieozLjq1UWfHd/BgOO11t9eJq88fHlkx3pvshZphSL0yAg3yahMc+IPdUmFKdL6J2bDXE8AAAgAElEQVSK4afn3JgKyih2SEw+TjOLHGUwaJO6BVRiOkoRj/4Qjt8MotWfTMPMBAhEWP7BO1NYm6fDV7Y6OCU75I3DG0rwOk8bstOs5f0hFk/yrSiyQsTwKPEeQgkGgj+67OE0+WKDQM/2XD3+0wOZKM/U4XhnAH92bBJnx6PIkQRszNHj39znxNo8PVfc0iuiZ6HUVXJfS16B3g2RK0lxkdJANKiC+kxPAEda/Hj9ZpBJ6Q8XGPH5dTY8UGNh4aVnL3tw5EZwYVLragME2mj3lJmRb9eyRvRsTjeFavbVWFCUrmViBxll2BvnB6KhaBTE40S8iOH8QIjLPMgTTX28G9Il1GXqUZguoTJTh8osPfIcEpf6UC7ZE5bZA6brkhHtJvFWqOy1Fj/+5pIbo3MAhEKDiF0FBvbwi9J1aOHNxc9CE4Sy6QW8cs2HI20+Dvk8ud6O2jwD5+ZIgOLZVh9uLvJREED4zs505Nq1jDb7XUnU1z8VQ9tYBNfHI+j2yatSBjTz41wJQGik8qzMZHkWhUK7p2K4MBHhygcapVxuY8TjjTYmNU4EZLx41Yu3uwO4MLVwmoeiFKVmEetzDajK1HG70vP9IVwZi3BTEXrb5WYtE2u+tTMdZZkSg8lfX/bihTYfl8DONVIAgfJ5VqMAf0RG91gUbWNR9E1G0ToaQRt5RMEVaJLPuqAuNIkt1gD+7Kn12FCRwej+bowUQLja1MH8AQIDBArSHFY4HDb4AgFMjLt4kagsL8RnDt2HyvJiGI3vb6DLiSCQ93+zdxBHj19g3kI8HkdNZSmyszMQDIWY+Dg+4UJWZjo2bqjD7u3rkZZm55JEinBca+nE+YstaO/sZVBRVVnMXr9WFBEMJSspnE471tRWoKggm4HObA7Cgf3bEY3G0NzSjWutnRxlKC0pwKYNdahfU4n0NPttUZLVsn3vmA/vNI3ih8eG0BQ0IiQtrIo587pUCkeM8a9ucLDYDXnmNHdo46GNhDYc8vBIGY8ikkTeTvGxYjLQNR7lNe/sIrlzArlOScC3NjrwlS0Ozo+Howl0joW5kuH56z5c8y6eZphtM3JIi40inqiz4pvb02DQafDj0278zzNTTEakQesCRR4eWmvlsPuFm0H8+WnXnBGEr1Vb8J8PZHCPACJQ/uS8G5cnY1zTfydjjVWLw7VWjpwQH+HaYBg/PuuC06Tl8HsFpyCEpGND0Rn27uk9xHGuN4j3eoK3ygFTAOHxdTZEYgoDHopOrMkzIBRVmDTfM+N9pMSZqKrh/ioz7xWUQnqnzc/n7xiL4JUbQY5SLDby9AJ25hvwew9koNChw9F2P35wYgrnJ6Mo0AvYXWjE7x/M5P1nuYOAwsmuIH59xYtftfkxFJaxP1ePJ+rteKTBwg7wry578HxXgCMt847VBgg7yOvbnMYojBDczGWT1lACDdk2iUUeKB9HRo3M/GA0Gp5MXaMRvNDsxYWhCG5M8xNMooDHy4w4UG1BZY4eZoOILLOATKvEHi5NuhsTMXiCMgOFLKuW8+OEvogQ90abD6/3huasGqD73OCU8O93OfmF0Eun8BlBnIpsHd8zeQIvX/NxNcZv7U5DtlVigEMh9VPDIYwv4oomIwjpzBmgF0gCLaKoQSgGXB8Ksxzm9bEIs/uHgwlmNK9GVcZKAML+XAMOVlmwucTI4OtSfwhvdvjRMhnjtMamHD0ea6C6XRN7jpQy+afzbpyfii4pVJ8krGrYo6eJTNUUKQK3RQQOFpnwWH2yNIfQ+yvNPvzw9BRaXXEWA1kIIBAjmRYI+r7I76EUlzsg40JviJ+jczyKXm+M2dQpwLPcCSiFJrHV6sf/+41NWF8+v97/cs87+/cEEN46egaXLrdiZGScGw9lpDtQv7YKZSUFGB4dw6UrbejtG4LT6cDhQ/djw/paDuOnNA6WAxCGR8Zx6uxVHDtxEZNTHhQX5uLxw/tQXVXCKYeTZy7jzNkmuD1elJUU4nOPP4CK8kKODAwMjeLlV45x9IE4C2VlBTj0wC5UVxZx5MHnDyIYCEEjCrBaTDCbjMyjmAkQqARz47o63OwbRGdXH3yBEIoLc7Bn9ybU1pRxamIh7sOd2ntgIoCj10bxN+/243LAhOASAAJ9yyS8VWUTObL41S1pKM3UMWGX0o+0xtE3XJap49A8AYYhd5yldDOtydLYIXcM52+EmFz3zsjtRLOZz0Wd/hqo3G2dnaN3dH2KttL33j4awY9OuThMvdzIGAF3qjR6sMqC/bUWTss+c9GNv7ziubUObUiT2AE8WGNmT/b8zRD+6rwbN+ZIMTxVY8UfHMzgdfilq15eH+bTU6AUb6YuWQ5PXLVJ8ogp/TLHVN/q1OHbWxxYV2jkNAeVIlJFWHmGDnsrzcxXIgVI8vwpchyJU3pBgSsUR9dkDC0TEfRPO4kpgEDkvdR7IM4cVTKMeGL48SkXjvUE3l+Hp++HoiL/YW8GNpeYmCD5g3cm0DwShjuSwGA4gfASwsBFegHbC4z4vf0ZTHwkkPEXJ124MA0QdhUY8b0H7wwgUATo2fYkQNiXo8cTDXYcrregfTTGAOG5Lv+HCxAob9yQqUcelftIwgdC5lTeV5Qu4UCtheuCKWf03CUvh3FoMCWOFMfiCsYDcbRPxjAQjHN9MA3KkR8ooFI1I4d6KK1Ql6vnmnZZBn5y1o0XWnwQNQoKbRIeqLVga6mJu189fd6DF9v9zEGYr9CBSHqP1liwvSz5kRGv4fSNEGxGDSoyDfCEZPZCKzJ0+Pp2B0x6EU+fc+OvT7vQTyHsRfJOKQ4CoU9Kh/RNxRgs1OQkES+Lc7jiON4dxOneIFpdMUyEl86InW9xXAlAKDeL2FVoxJc2ObisivJ8Z24EcaTFh3STFvsqzdhYQikWDYODX1zx4PIY8Q7e5zQstlin0Dj9jkLbRPYitnKBWYuvbbDhiXV25ng0D4XxcpMXv+4IYGIBidCZHAQqwTrXE2Rtjbw0ijYl+SIUVSBy4rsdAVwYDKHLE4c7llh2l7MUQPjBNzZifRlVAyz2tCv7ewogXLjYAtq8rVYLdm5bh03r65Cd5cTQ6DiOvHYcl6+0sojS/bs3cRi+uChvRQChreMGXnz5KLp6+pmMRpvy5x57AHm5mZwuaG3rwa9eeBv9AyN8/b33bca2zfVMXqS//fqltzEwMIq8vCw8sHcrNqyrZY+fwAoBSYp0kKlok6fzU5njTIBAIk4UnRgfm2JyI1Uz7Nm9GTVVJbA7rByJuJujfzyAd5pH8MOjA7gaXBpAoO+WuC37y8z48mYHM92p6x7lxd/u8HNKr4y4NzVWbCg2wKgVuDyOoqSdY1H+vokB3+uJY5S69S3gYVMqodgk4okaK3ZXmDi/P+yRkevQcih/1BPDD0+48M7NIHqXSfy2Sxo8UU6VRmaUZOg5LfJisxdPd76/QW5Jl7Cv3IL7Ks1MUL7QG8QPL7pxcw7RnW/UWPGHhwggSHjuigd/fyZZ2TSX7kuVWcSmfCOcRoEri1oIxAfk26oj6PnvzzHge/szOLXSNhrGMxc9ONYbYgcj05gUOyKAQClEbos8zX8js9IaS9tNSiI5BRAe5SqGOP7hpBvVOTo82mBjUEFrGzmeTMyckf+lCOWBWitKM3Rc/UDVeC3DES5ZPT26NG0bqiTZkWfAd/dnotgpcST6z49N4txEMsWwJU+P7+7L4EqNVCUapRWI10echNSaQ9tO0uGk503ulfSsRFx8scmLV3qCTIBNCWDR/ktp8V9SiqFnkWjHakcQDBoN0nUaWKikTiDS0vsrZ5ZJxNbpsDSlBdqGw/ir41PomhGSFjRUW6tBWFbgiSXJJKmANU8Oo4hcKpsUNRy+e6jWii9usrM3+suLHp6QBE6onG49hWY0Grxx3c8I89x4ElXPF1AhRas16dPKZyYRo34ZFwdDiMhAOtXMU+g7Q4cdpWae6LQI/PKSB//Q5OX89mJZp5lVDCc6AzjeHWLiZJZFxIZCIzYVGzl/5g4l0DoSxumeII60+1ekvDZzEV0JQLASb8EqYmexCY812LEml+qCExwGJaBH90mfIpGP3mzz3SIf3UnEg/TI6zN0eLjOgvsqkuIyNyainFp4qyvAdqBc4nxjZhVDKCrj9Wt+XB0KIxhTUJYuYWOREfUFejgtEkbcpNcQxsmeAF7uCiy79MoQnsJmawD/68uN2FSRwaI1d2OkUgxXrrZhyuVFbm4mHjl0P2prSqHX6eByefDMr9/AiVOXYLdZsHPHBuzY2ojy0oJlAwRa/4g78LNfvMIEw+wsSiOswYG925gYSBUFfQPD+OkzR9DV1Qer1cze/r49m2HQ63FhulJibHwSNdWl+OJnD3I55kJ8gdlVDBSJIE4DpTaqq4hz0Ii1a8o5ckCVD3d79Iz48OaVYfzo5DBagiZEdIunGIgEvD9fj0M1VuysMLHXe7onhGPdfubw8NwuMqLIKSHDouXIIaUWn7viZeLisD/OpYlTtMAv4nmmixrUZ+jxu7vSmL9D4IO8c0pn0HWoRp+cj+ebfXjuRmBZ8sMkNPbvNjvwYF0yevDGdR/e6kzqiKSm3c4MHR6ook6DJgb1F26G8PdXPOibI736zVor/suhTAYIz152429PTTHJe64I4H1Zejy12cHEZYoCv9cVYAJ3ytNPvXcSW3ugyIjvP5jJERkqF//TdyZxbTLCPQgIIBBQGArEMbSEMP98JMWvb3UwAKLqE4pE0P8/89WQs1Geoef0DkUxKLXQMRLBqZ4gftXhx+gSSjmJe7IpU48/OJDBlRHnbwbxP96awKkxEnYDyixaPFRlRnF6Ui2SwAGRMomvUJeXdHhoUMUW2YyEnSjVywBBTjBgodRtO/EoZAW/UWbClzc5OCpM0fFfXPbg3YEPmaS40AQmvenP1ttwX5WZwznnbwTxN+fcaHavvDTxW3VWfHWLg2t2T3YHmTtAOa9tZUnvlibiq20+NI9HF60yIClLkkfNMYms8khlLn0BmRE91+Hatfhig43RMwESbn7R5sc7w+ElTcS5yhxPkhJXAtiUrcP2IiMaCozItUsIRGScuxnCs01eXPGs3D70PlYCEOg4WvgKTSIOVVJI0YKGfD0M0yU3lIIhL5xqr09RaI24A0sIq831fZCqXJVVxLocqiM3sX2JP9I3RSWTfrbxxcnFQ6bzlTlenIgxs3xjjg6bikxYk2vgCBTVoNOEfua6jyNLyxmmiBubrEH8l8erWQPBZro7oj63SIrXOjlET0qKpBNAGy955JQG+MWvXsfxU5d4E31g3zZs3biWlRaXm2KgBf/y1Vb8y9MvM8+guCgXWzfV476dG5jvQGNoeBz//LOX0NF5EyaTEQ1rK0GcAQII5y+14M23T7PgUV1NGZ78/CEmJFJp4nxjNkBIRRboP+kcO7dvwLqGak5JfBijpdeFly8M458uTqAjYoa8BJIiRTa3Zur5+6X8NaVIiflPc3hXuRm7KszMNyASHTkD5KBcuBnG/zw6jmbX8ub2Ojtp9lvw+Q12XvNI9OYfz7kYiOytNOGBmiSgeaPVj181e9DuiS8pjZajo06CenxtswObi40YcMfxtycncbQ3hIEZgmd7cvR8fQrvU0rj3I0QfnLNyxHU2YMAwvcPZTJ4+fUlD/729BSuu+PwzEBBtMWRKuKhYiOXRBY6Jfbaf3rejZOD4dvW7HqbFg9UmPGN7WkMtgjE/OD4FOtO1OcYUELdC0MJnLgZwPlFuFB0v/NXMTh4QyZyOkUdKV1O1QIUZXAFk/+d+Gnk+VPZ+NvtAd6gr4+G8d5geEmy1LS+Vtsl/P4eJ0eDqGz0/xyd5Ko+SglQ2oXKZx0GIpJqoKXoqk3CviozHm6wsi4DDZLwPt0dxOutfpaXJyRDEdTRQBwDfpkrY0h64HM1Vnx5i515EyRa9YtLHlyajM6pYXHrXa52BGGuSUyPQezefUVGPLU1DWUZOlYVe7XFj1e7/LfVvy9nIfiNMjMeb7SiwKHDjYkIqzFG4wlY9CKTH6+NhLnZBekXLIbO6boUpaAqDLpnmsikekYyqlSPSrm3JxptKMtIajj8+IwLJwbCGAzLS6o8mE8HgVIoxGbO1ouodGg5hUEMYcpdnh0Kc03s7EHgkcSiaGIQ0+OWRsEcxqP7zzNr8bu70/HUtvnLHOfbvHOJWFpiwhc32FkrnHKPpAj3F0cncbw/xN7D4pSc289OoIuiTflWCVsLDdhbZeEoCi0aRKJ5t9PPKaNuL/VJWBx9LKSDQO+TuBPU+6PMrmORGXKBqCTq1EiEv4/lDFPMi0ZTEL+7rwh76rOQ77Qs5/Al/3ZuHYT7GSAQ4a+3fwgvHnkPFy9f5z4Gn31sP9bVV8Nut94KQS6Hg5CMILyKkbFJZGWmYcO6Ohzcvx3OGREEAhDd3f2w2SxcybDv/i3MJ7jc1IaXXz3GWgsVZYU4/PAerKktg2WBvhGzAYLFbAL98wcCnLaorS7D/j1bUVSY+wHi5ZINuMwfnmwdxS9ODeDFjhBuymZAMi56BtZ4IJW/6RJhmowbM3XYW2FmpT/y/shR6RgNY2e5mUFE8wABhIklAwSa7zl6AftLTXhygx2lmXp0j0XwZqsfL3f4MRJRcLjUyGVsVVkG3HRFueT4pTYfbixSdkcbUVLC187gnISdLvYGmctwYoyUH983wYP5BhxeY0VVjgFT/jgD7GenSXCzDfVUtYVJduSwkRrjP51zo2kyeksMikLk5LxspKhhjQVf2OxgzZznr3jwgxNJ4uPstsSPFBpZx4TWCSKOU0MjkljeXGi8FXUkHsYzlzx4Y2hhLsdsgEDr7Z+/M8Gtkp/cZEMoruCt6wH4IjJ77VMBEoFLKv2SJ//fDmZiR5mJeR//96tjODMS4WoGiiYvYbnidY4csO9sdOCRBiuX1ZNQ0kvXvdzjIVk++77SJUstk5PdaOfqupSSIulrkKz80xfdeG8kWXZJr4x4KRRNIT0FEkoiiWbiZ5EjQP0YCEASYTu00NJ3twECbbh0gztyDDhUY8GhNRaYJIFz2T8+506qcC1VuHqOqUp636SOR3kaQuyEzN/o8sMfTXCbUndUYYREG/1yR0rOmXJ+OwqN+MpmB0twknfw60tuvNMT5EYeS4hk8aUXE0qiqEQa9bCQkq08iaxDCoNzcRscJFBkFZFhpHSLkCxDmucR6bz0MT250c563/PpIMxnHwIYFRYBu4vNXCZZk63HiC+OZy+6uWHJ+cnYB0ogZ58nJbdEYCapTUEaFVSpkIwacEvSPANy7CKHNi/1h9kDeq8nMGcecr77XAggpCYslUtZtQLbmMqTKIVFddnLFeDUxgKo1Qfw5HonDm/KRX1J+nI/ryX9fjZAIG7B4YfuY6nlKZeHKwZOnrnCnID8vCx8+QsPc75+pk7A7QChHN9+6gnkZDuZCzCzYRNxEJ5/6V10MwdBQF1tGX7jiQOssxAIBrm3A3EQ+vqHkZ2Zjj33bWbOg9VmQXvnTfz8l6/y37IyM7Br+zrs3L6eOQV0DWan8EequSV0NJuDUFlehIryIlxv7eGqDYvVjIY1Fbh/12Yub7xb+gepl/HimT783bvU9lnCmMYEiCuLDP026eVvczCz/tzNIE70BJns+8gaK1ddUaTzT0+QR50UkWLG/TxfBK2hadTQp8SEB2stnCojztWRFi9+cdXLDd9ojWPvupxKFB3MbaIQMzkxp4nvFJpbXIyAR61Ni71lJnx1cxp7xCQ0RB48Cfb0zHJOHi0y4rONNhQ59eibjHAq4NXpHPfs2/9ShRn/dq+T05GUD//VlaQ+CuXDCRyQg0MbJEVlaeOiioSO0SheaPLgpy1+TjGnXCMu8dMAv1Vvw5c3pcFuEph4/kqrD32uGL6y0Y6NxSYuFaVqgFda/bgwlUyNpEq2ad1Jlc+nJIZnchBGfTJ+fGqKxf0eqbcxT+Sfz7pYp+LxdXau6iBJ59dafZgKJfD9g5lc7knO0u+/NIrji5BL53q9FNl8tMKMz62zsRYCpRmevujB8zcCvLnP3LtZSTFdx6WKxIG7JbXsieN1UlK8eLuSItmNgOW+YhNfY0uJkdUxqaz8ha4AV8wt6BrdTYBAUibkFVNo90B1klRDoTYywgvNPq7BJILYUtDWfKspMVr3l5uZzUteN5V2/J+zLvQvoQ51sRU6XdKgwZkM/e+sMLME6aArxsicavZJO31muGyx8y0GEBY7fubfSdr1C/VWJupYppUq51tgaIKQohuBG8rbpZQUZwslLXR98pBq7Fp8bo2VRY5KM7RoG4ngFxe9eKM7gJ4FgBKVT9ECV0NkwQwdCkku1SJymJ9U1qhklUJipA1xaSCM5sEwmseiuOZZXme2pQCE5dh4od9q4hHkawK4P1/AU/cV4uD6hXsjrPS6KYBARD6vL4CC/Gw8sH8b0mxW9NwcwPkLLdxjwWwyYNOGNezNkzbBzE1/NkCorCjGF544yACB+h2QYBFtvHTM8OgETp25guMnk1UMRBKk0snqymJ4PH6cPncVZ883w+sNcBSD0h1VFUXQG/QYGh7jCMK1li5WUSQws3NrIyoqijjCkFRkjEHSSXDYrCx8NLuKYX1jDXZtW88RjCtN7RgYHOXqDIpUEDGTyh1nC0Gt1LazjyOlwB+/3Yk/fb0HvchASDRCEVbGe/jeljT8zn3pHBamxfvVVj9GfTGODpKnSES8EwMheKMJ7gtCGyGx9mkezJ7HRUYRuwsNOFhrwYbCZKrl3bYAXm334r2hpAgYHWMXBdQ7JXxpHYknmVi6l3lM13w41R/mOToTCHMKkch2FWYcXmtFXZ4BQ64Yh6qfb/GhY46eAk9WmjkNQeJxl/pCeL3Nj+NDoTml0qnu/htbHZw2pfJOAgl0XlKkJZG1unQJu8tMLD5Em/KQJ44Xrni4wdrlqdgH+EYEJoqMAr652YEnNznYTj87l/SCiUD4rc0ObCs3s+Q0daAk/ROqgHNFEjBrNciziEgzaJnbNuCNYYgUD2WFNW1IavmJ9XYm+l0fDvMeVezUcWUJKRsSmfyhOiqrtCASkzm1fLQriH+9O533hTsBCBT63+TU4dF6G3M/6B5IEZEip5R+muk8cwQhTeJeDN/a6eD3S4NSE0TifpqaNU1HEFLftkMrsJ0fq7VyRViGWYsjzV78qsmLt+aQZb5tLt0NgEAbUrpWQIVN5LzQlmIjtpSauPkHlfP97LybWacUOl9K2H+hBYDYr3tKTFy3S5sNIdr/551JRtUrGRQ1oJBbkVlEfZaeJ+TWUgMT5vomY3in3Y/3uoO4OBldtl4BN2vamcaqXO91BPFKixfHhpeWr5r9LA12Lb6+wcETi0pGbxOcmHEA5SdpoaKa6yybyJP1f70+gZ9e97GC4FKD62laDdakSZxqIJU4ikwQe/eFaz68OxieNxLESo4GAY9UWVjjnRjdVCoapVKkcIJzesQUJkb0ib4Qh70Wk62eE40bRHx/lxMP11s4X3ikyYc3Onysa34nIHSua2nkOGyJIKr1PvzOvmJ8+b4yBmGr3T45BRAuX2nDpMvDPIO1ayqZqd3XN4zBoXFWMyRPf/fODRxZoDbOM8dsgEDVB1s2rmFeQbrDjtzcDOTmZDJYSOkgvPnuGVA0AYoGdbWlKC8tYjXFq9c6mBjpsNvQWF/NlQpEYKTnpr9Tz4hzF1vQ0XED1A+itCQPJUUFsFnNzKGITusgVFeXIT83kwHDbB2Ehx/cBaPRiAuXr+PMuSa+HlVCbNm0Ftu3NnL1xGpHEuJyAi5/FH/3Rgf+99EBuE25kKlZ0woHRRBIVp28ZyIcn+0JoWM8wkxzHiz4Nq34KmpY5KZplDZxmTudkrdsI6KwTcKGPD32V1nQWGjgeUzEwJ+cd+H0SIS5PzMBBXEJduQa8PBa2tBMMEsipwHe7fDj0mCYOQm06eToNahwSKjL1rNwzvoiI2+Ib7UGmJjYPhVDml6DTJMWNsp1T3PNtxUbWdqZ0nUUBX72qhct7rl7MVBJ5KEqCx6ss3EZH+Xv3233od8dZ+EzqiwiETTSUyBNHCpD/nWTj0l6s8nIrKRYaMTnGm3YXWnmc/31sSk8fd2HDIMGn6mycIqSqtqoedLFvjCuj4S54RKBBqrwIBXC8YCMkzeCuDYexWBEhtMg4o/3ZeDzG2y8F1FVCZet6gWu4vhbKnPsD2F9ZrKsm/YYIpZSe+V/RQCh/M4AAi3dtDYeKDPjs+vtqM83sONFmjukKUP7WKo9NrUCoKjrwUozSLeBIwgasBYPRU0IWF2c5rTQM1AKt8yqxa4SEwMQSo2TVtDPzrnx3o0gWpYgyU0EOcE7gOKpJlSGL0Gf8N+aEZoDj31ZGTTUosvWiKijeMnhNkI6JITzYKUFn6m3MOmOwjTE9Eyi2RBuBKgd8PLD/rPnK3n5JMH5Xx7M4jzR0Y4A/q/Xx9HuiS67DpjOzU1R9AJ2FZq4wxaJ9NAOSmIZxJm4MBTmml/aWJcLbn673sYcDKOOSlAoVOXHCWrWtIIUC6VtCP1SZ8T5ejCkbEXS0dTWlPJ8FBJzB+P45/NuvHYjBE984aZYM+1NtiHwdLDYxEQZKlmlaAQpVP6q0z9vV0o6jmSsn2pMqnhRFQSBgtaRZIlXx2QUYyEZvmiCZWhnNpBazvpM9vjP29NxsM7KBKrXWnzcy/7URGT1AYKiQJLDyImN4Ts7cvHU3nLkpBlXvZqBtAdOnLnMHQ9HxychCgKT/hiIKIDZbEB5WSHW1JajvLQQJhOVRH2w5pJSEbRxHztxgcmHVCpI+X0SN6Iowpq6SqxvqGZOAXnR1OSps7uPeQ2dXb28m1EFAQkfETHSajYxcZD0FrIynbfaMtPfkqWQN3CluR29vUNcqpgkHiZF08j7Ly3Jx7bpUsyEnOC0xcuvH+N2z6QGuX/fNmRlpLHEMp2HSjyJb1FYmCqvVLoAACAASURBVIP1DbVY31jNFRSrOfyhGE63jeMXZwfxfHsALl06ZGFl6QW6r93ZehysolbPFvZIqeyOvkkCxawBQlwnMdmumf6HAVecw75nBkOsgkhrKHnMtMFSnwDyaCmNSKREksi9OBJhAt/sNSgVrduVb2BiMRN+dQJvfET4faHVh8FgAusydHiIS7pNyLCI3BOC0nrHeoJonoryPN+WZ8DmIiOL0ZGKIBMKzVouraSmSKRe+E9XvfPqtZBeA0U0nlhrYwcx2yayKBqFzjnRNK3W2jMWwcmeEN6iDZGisnOsSUUmEV+rtzH5nLpYchVIkwdvDISZ/1FsEnB/mRl7Ks28D5C+DAGF1BZDYIyuTR0YX2724sxQMu2Sphfw/Z1OPLTWwr0y/vGMm1NhNZl6djIozXl2IganpEG5XYtsi5aBHa25BBAa8w28hv3XV8ZYe2K5g2xKIGFrlg4P11q5vJK4LFSG+Op1H84OhHFjOoVE56bvgoiLNRm6WyrBvkgcbeMx9AeoG2gSXKacXCodfaiO0lIm1oEgrYVnmnwfaKS34D3fDYBAN0gh5d3Uv7zMxOJI1DazaTiCLmpaEkpwOG01Bk20Xdl6fP+BTFbQutgXxF8cc3HZi2u5OzjVZwOgUpoNmTrsKU9+jCTlSXXKHa4YRsIrv/dHi43crIjQafNwBGd6g7hGYaQV3OdybEcfM5GBqm1abldKYaxuV7LVMrXIXs6boA+62Cggn9i1OiopUrhMq92/MOCj/NlauxZ5VokXhlA8GTkYDyWYA0AoeTn3MdfzOyQNvkDiTsVUaqbgTG8IFyldscxUxVJtK8pRWKMuPFyqx+c252F/Yy7s5qTs8GoN2mDJg/Z4AwiFwqw8GIvLrNxITY+o+RH1RLBaLLzpz9XEKBaLcXqCohEkYDRzGPQSExopMpHyymmjp0iCy+3B1JQXHq+fUwYETohwaLeb4Ux3cASCNvyZgIRqxSmS4Pb44fX5ORVBaQSq1DGZjTCZDXDYLEhPd3DaIfn7IPeViMZk2KwmkBaCQa/jZ6VrT025WT2SUiFUyknXXe0IwqgrhL9+tR1H2ry4FtAjLFkAzcrSC2RfEv0ptogoc0gsB0xOUqYl2fiNeDYsjRtOwM3/qANhDE0jEfRSbxCylaBBBTlZNRYG1RStu3gzyNHL5okIS+fO14WP1jCSJaaSber2uCZPz/a/OhjGC1SxE0xgW7YOh9faUJIucQj9LK1FJNLml5mwS30CGqmku8TILYIJFFAKlxQfqQ8BpReoEyu1SJ9vKaeZQG3WK+1aFDkkbjRE4nIGifoHKAxKSO+GO6r64uim6Mk8ayEpR27O1PE5KFJHHRupwVV7IM6y6UTmIxBRaKFIgchliTN1fGltIX4CVST0eijFkOAUA4GLjU6J1yWqPqFzUrqHnA1yaodCcYxEFdgpeuqQ8EidFdvLjTBKIgocEgJRGVSy/penXZwWWekgp3RDlp6dUgJt5ESRjU+wJk6IxZNS6SGKDNi1VNmQvBoRI6lhoG86PZWupXSwhE2FRlb0pPdHKpGnugN49bofp4fDS2+5fTcAAt00bQKVZhGldokRV583hja/zB7KnW4Es19CpYVaH1sYCQ95Yhym7vfLbLCVDELhhN6psRSF9IZ9cZbmXCbR/bZL11ollKclJ9qYX0afN46hMPUeWNl9ruTZVuOYlMBRaiukD/fj8ASErtc6JO4/T+7OoCeOflp8IkuPkizHPhpFhj4eQrU+iIMVRvzmwSqUZltXPYqQuifauGmjJD0C2pSpo+Ld1gagNEEoGEYkGuNNikBIspvi4roPBNLC4TAikRj3YyD5Z4p+UOTi4zR8oRiu9EzhL1/twNGhBMa1aVBE+rrvTP0qxdIvMIrIt4pwmkQYRIEJ0wSQqYyausQSQJiMKnDPUE4lrzJbL6AuQ4eKDD1HD6iE7upk0qFYik9Bm3y5TcsaIARMiJx8ZTzKZdtVFi0asg3MX+p1x3BtMopx6p8ynW+kuURSwOXpEkrTdBwFoXOQZDGF9zsnYuihXP4S6v3pXdMGm6Mn5Vvqj0DqsQo3ShuNEChYfP0gp5NAAgEO+nwCMQVT0cSK1/jlfn/kkRNZfWexEfV5RiZbU5UA2ZTEmk4OhLkcdKWDHF2S+99RYMChOiuXmhIQujEew4W+IC4NhDg10+ebW9+B9izS8SGuRWW6jjtSriswsJATRWwu9oZwlKKp/UEMBOU5m93Nee93CyDQxeihuWMwNOzRrSCSviR70zWoyQh5yqwqRQpad7hpvX/vyXOuxr3TR57S7CeYRPe4lIm+JCN8BD9KLZ8fB3CQ/MqSKSICpDTomyP7rnzaLm5UTUKGKTyB7elx/M6BCuxek41M+/K10xe/0vu/SOHJu6XeOPteWEFuxlgOz+JOjl2OTVb6W+IedA568dzZfrzYNImmgAEhvf2OwUHqflg1ckbjs9Q7S4ryJSuP6Puc3ZRu5nGpNYM2JHJSljrfCIYl17EkRym1BtO1aJ7QJkfXoTlCoGWmPzX7+tOn4GvT7ygKQsXdS/XBUufjjAplx+Z57oXeY+rYVNXHbJut9BtYynGptBClawmgJJvYJd8f2YKcvKXaYr7r0TvJJq5FkREHaizYWmZivYVxX1Jxs304gpbRCAa8cU5VpeYWNULjEm6ryLyO+jwDqnP1LOtNHC/ql3G0M4hLQ2G0+6nqbhlO+t0ECEsxvPob1QKfbAso0Eb8KNUGcX+JAd/eX4YN5U6OItyZ//nJtson4e4pmjnuDeOdpmH89Vs9aPUbMSVakNDenU6RnwSbqPf40VqAOCmUHmrI1HF6fl2BEYXpOlh0SSLrhF9mQif1G6JoTqpCjYAEpYGoVJQ4J1RSS+qK1AGX2lW3TkQwQL0plpvKVQHCR/tBqFf/5FtAk4jDngiiXB/CYw3p+MyGpC7C3ZJf/uRb7KN/AvL8wtE43rgyhF+eHsSbvSFMCg4kJAMU6u6mDtUCH5EFKOqToxNR4dCiNkuPNbl6VGXpud8GkUSJX0HggLQwKBpD2b5UyoPk/wdcMXSNRtE8HEbLaBh9XpnTR8GVhFJVgPARfQXqZT9VFhDkGNITPjTYZRxa68TDG/JQlmuFMcUk+lQ97Sf7YSg06w3G0NTrwjMn+/FqmwdDsCCsNQMCqbeoQ7XAR28Bo0AlkCLKHRJKnRJK0pM6NqRMSXwQih5wqkYBV2hQuSMR6m9MRpgj0u2O3eqEvOKnUQHCik2nHqha4JYFKCMpJWJwym40pmuwrzYdh9bnoTTHArM+KUKkjo/WArSYEufAE4ziep8HPz/Zh1N9QXSFdAhJViiCdsn5/Y/2SdSr3wsWSEktU68aKn0knkG+UUCWWcvcBPrfiX5N2hqBWALDfpl7OFA3ZBKEotLa5bb8vs2uKkC4Fz419Rk/DAsQSNDKUeRqgigzxrC93IpHNuVjY4UTkphsb6yOj8YCXOYWlzHuDuPE9VG8fGkYl0djGIwZ4RbN0AgikgoF6lAt8PG0ACW+qFydSsa5eVOq5wIRTRMKqKdPkMrWl8piXcpjqgBhKVZSf6NaYOkW0MkROBIBlJri2ExKnBUONJY6UUbRBCoCV8eHbgG3P4qm3ilc6BzHqU4vLo7EMAYjwlojEncgiPShP4h6QdUCH6YFVIDwYVpbvda9YgEiLhpjXtjkAOqcIh5cm4XNFRkozDDBYdbDYtRCJ5EKpuq13o1vglT0gtEYfME4XIEIukf8OHptDO91TKLNLyCssyMhmYAV9lq4G/esnlO1wMfOAipA+Ni9EvWGPgUW4AbcCRkSRRMQRp4uhmwz0FBgw8aydFTn25Bp18MgaTn1QEzkFFhQIcPSPgDugKgoyU6R3CiSatEVrkv3h6LonwigudeDCz1TaBkOYCouYSJhgFdjQEIgRU9B5RwszdTqr+5VC6gA4V598+pzfygWoAmWiMOQiMCkRJFnUFBgATKMgN2kRZpZhzSLAVaTxBUPOuqtwVV2KkxY7P3IcRnhmMyKklTy5QvH4A5E4fJFmIhIMsYjfgX9AQ2GogJk0QBZ1CHBUQPVvovZV/27aoG70qxJNatqAdUCsy1Akmsxjiho5Qh0iShMQgIOvQinUWJWMklwk7R3SuFOteHCFojJMqLULlminiCAP0KyxXFMBmLwxIG4RkRIo0OcujKKei4YX03+lvp+VAt86i2gRhA+9a9YfcCPjQWS+t+UfhAoNK7IEJQ4RCUOQZGhYfqxkuwW97G554/vjcSVxK0UA6ULZAgsciRrJMgaLRQGBGTtZBtuFRx8fN+lemcfUwuoAOFj+mLU2/rUW4AAAauiKwptbVzTrI5lWIDNRYgrBaioLjwJBhiGqQTQZRhT/alqgTkssBBAOPj4l5VBfS06bY2IOooBceX90VXjqxZQLaBaQLWAagHVAp8gC9wCCM2oilyEPhG4dfOaBx//ijLAAKFBBQifoHeq3qpqAdUCqgVUC6gWuGMLfAAgXII+4X8fIBx64itKv04FCHdsZPUEqgVUC6gWUC2gWuATZgENAQTPAIpczaiOXp4NEL6q9Otq1AjCJ+ylqrerWkC1gGoB1QKqBe7EAkyaTsQh+QZR4L6G6sgV6JUZKYZDn/2q0qerQZdVTTHciaHVY1ULqBZQLaBaQLXAJ8kCmoQMMRpAmq8XOf5WFEbboFNCM1IMKkD4JL1P9V5VC6gWUC2gWkC1wB1agCqrEhBjYRhCE8jzdyMr1IE0eRhaJfphAQQFWiQgIg5BQ8VJyy/xovpmWaEz0Jk+npXj4vQzihp5Rc94h29aPVy1gGoB1QKqBVbZArTfJBIC4tAgoXx6VDn5SYh3EA/CGHLDHBpBUbgDmdGbkJQIPe2HAxB0iMKhcSFb7IFFGockhkCbabJ2eX6D///svfeXHOeVJXjDZaTP8r6Agrf0pEiRomxL6pnWGfXO7uyZ1ezun7Y/79ndOWqnnp42GomSaEQSJEEChDeFKpR36cPvuS8ygCQIU1kGlQV8QZWqkJkR8cWLL+Pd77773ouLyQBhZMAJ8lj3RrAUTGINPQilAWZ3bX3aBob0a+hJzcPW69D0oDXAZ2dSdZfF1WiUBZQFlAV22gIsbEbfo8EPTdS9PFbrvVhrFFENUs8MSNCgwUCAgl9Dr7uMfvcOSv4CsuFGq7n0fbtqu6NBiJCCjxH9LkZTVzCUu4ye7CJsqwZdJzp5HECIK83xf0FooeHksFqfwEL9KBa9w1iNBtBAZqdnRsfHIxuSgoc+YxnD1g2M2F+jL38XGbsKQwCCAgcdG1XtoCygLKAssGcWiH0PMUIQpFCp57C40o+N1RIa1QwiVxO/tL1t2wfY+unvFRUjRIiQiRzkww0Ug6WW7uDbY9sVgGDBQz+WcSh7DgeL51DqdZArAJYtBdE2vQVhBK8BVMvA2noJM+UzmHNPYzEag4OUlFfdi43GzcJBv76ASfscRnMX0dPbRL4UIZWOpHOf2pQFlAWUBZQF9qcF2Eq8WYtQWQlQm9PgzJvw13VE/jae7bLu3TuAwFLl7a3n4wLloZSCf1T4f1cAQkGr4rj5Zxzs/RLDgwvIlTSkbD0uj9qhfYMghO+EqFeApYUsZstnMOO+iIVoUkDCXmw2XIzoczie/R/osa4hX6yjbySNVMaAphMEdXiRe3ER6pzKAsoCygLKAg+1ANuKB34Et+6jtuihejtE/ZaJsLE9HRyPu1ebrrd8cAcD2BWA0Kuv4+Xs32Nq8DL6R7iq1qFtY1UdkUlwAlTXfSwu9+Nu+YSAhOVwDA2kO7jc7X00CSuMGjM4kPkcB0rnkc+Vkc6ZyJRs6IYCBtuzsNpbWUBZQFmgOywgJQKCCLWVJtZveqhfteCXder7trwpgIAI/cYK3sz9Pzg4fh29I9ltgYPkTghIcANUV30srvRitnwWswIShp8SSIiQhothfRGTaYKDc+gdaCBbNJCyjY6ZkS3PMLWjsoCygLKAssBTs0B1xcH6TQf1mya8VR0htQhb3BRAQIBhfQGvFf4rDo7d2jGAEDfEazEJG8DiUlHCDfPeCaxEY6iHWWkFuxsb2/TakYNBcwmHMh9jrHgZvQM1CZ1Yqc5pm90YozqmsoCygLKAssDOW0AAwq0mGtMG3GUTYVMBhG1YOcCQvoDXC3+Dg2M30TuS3hEGoZ1JcJ0QtY0IS0sF1BpFbIQHcanxPayGPdsY96N2jZBuLmMwuoUjfVcw2ncbfX0VZIs6rERXsQtnVYdUFlAWUBZQFth7C9RXHazfdlC7acBbNhA4CiBs466EGDQW8Ub+1y2AYO8oQODAEk1CZc1Ds+xivTaGC9VfYNY/jPoOpkBS4WmjiRH/EsbMczg4cht9gy6yRROWbXSUkbENg6pdlQWUBZQFlAX2yAK1dRfl2w6q1wy4KzpCBRC2cyd2HyBwdCE1Cc0Q9Q0PKyt5zJRfwIJ7EuvREILIRMSCTEyZiLYWdmDlR0tzUNBXMZE+j/HCBfT0usj1GLDSChxsZ4aofZ++BRieEwF1S0R9X0y9d6rqe6wgmJfdkvG0/pA1GpOeVEbQ058s6ozfsIACCDvarOnpAAQ+6MIogu/GKZCrS1mUGz2oOIOo+SXokYeQpYyiTrMc4gempTvIm6sopObRU1pHT4+DTEGPNQfbyMhQ3z1lgd22wDecP78nYQSmC8OPwNoiZOCkEJkfCQvG1Ny92qgS53gNk1oejkWTOiKaoUE3NeiGHmdGt4BCAhz2arzqvM+fBRRA2I8AoTVPuTIiSGjWIzh1A42mjaabQeh5CDUTkd55rQQ+hEzdRzpVRy5bg52JpMaBqQSJz9/TYR9dsVSA88P4xw0ReIH8LcppYQ9iZyy1TENWiyNAiPYU8BIgcGwCBKSGSAwGYjyggbpjw9BgmPH3T7cMmFYMJtSmLPA0LKAAwj4GCPdoygjwPT4Yg3u/wdWIsbXlEVcxhqnBtHWYpkpjfBpfRHWOzi3AnOwwjEFB6EfwCQ6cEL7rw3P5WgCNjWZYo0Moe/rcuG4aGbj433sXZmATHIIWYQ3k8uPgYMTXyXoQJug6TIsZQyYMuwUUTB2GoUvtEalcqgBD55NH7bEpCyiA8AwABHm0tFIhk5TI+Im4qTnwrQ/dW8Bsofrj1s6o9lIW2KQFZJ63QgdeAK8ZwKl7UkyMDlZcbWslnoAC/jNuknZ/03icLX4/NjnSzX0s7o/zwNhaRWlb13rvO91iQoyUgVTGRCpLRsFUQGFzllaf2oIFFEB4RgDCFu692kVZYH9ZoAWCXYKCqgen7hMpJJLcOFzQoujp/J8JkV9Sw74FDkISCy2hBdkD0zZh50wBDIrt21/TeT+MVgEEBRD2wzxVY3zOLRAGITwnFMbAazKEEIjOQIR9LaqdgKArWIFdvFeiqWBoJaC+AtKAxrCYXaTDylhIpQ0RPapNWWAnLKAAggIIOzGP1DGUBXbFAklNeIKCZtVFs+qJ8FA3DWgGHeR9lf+uDKCLDyrpm8zOCBiloJjYRLpgwUpboiEiYFKCxi6+gftgaAogKICwD6apGuLzaAFJUfRDNCse3Konf4uugLpZURh2g4hgb+/MvSyNMJKUTloklbWQLthSs8RQIsa9vUH7/OwKICiAsM+nsBr+s2gBpiH6jo9G2ZWwArMVJDOHP89BKKHTe0rRJcMOcfomYKYIEizYWVNSI9WmLLAVCyiAoADCVuaN2kdZYFcswBUx6wO4DQoRXTg1D5HGkALT+pSje5LRmR7JIlBMAbUZcshbSOUYclD1E55kO/X+ty2gAIICCOp7oSzQFRa4Dw58NDZcSV8kKNBNhhUUONjsTRJtAqs0BhHMlAE7ZwlQMKTIkgrLbNaO6nOAAggKIKjvgbJAV1gg9EM4DR+11aYUOtIpQqTYTlfgoNMbdK//hB+JHdP5FNLFFEzL6PRQ6vPPsQUUQFAA4Tme/urSu8UCjJ27DR/1dUfSGFlmWMIKuyxE1CIdemRCk5qKIULNR8RazM/IxgqTURhKiCFTtGNNQkqBhGfk9u76ZSiAoADCrk8ydQJlgcdZgPFyt+mhVnYlY8FglsKuggMNFPVpMGEEFowwDT00BBj4RhOh5iLUg2cGKEhTKD8UYJApppDOWdIQSoUb1PfySRZQAEEBhCfNEfW+ssCuWYBUeOCFqK06aFRdaVpE5mC3uoayN4MWGTAigoMMLD8Ly88JQAjhwzPq8MwafNNBaLgCEiiS3M9bXFyJdo6QSpvIlGImgQWm1KYs8DgLKICgAIL6higL7JkFqLivbzThVDxptmSkdk9zwHCCEVkwgwxSYQaWl4fppqF5FnTETckIClyzBteowTMbCMwmAsNje6f9DRRaQIylJi3bQH4gLb8Vi7BnU39fnPj5Bgj/0/8e3UmdxNXii3B7DgJG5+2Rv3mXQwwai3gj/2scHLuJ3hF711ZC+2J2qUEqCzzGAszbp+6gutqUIkikvXc+lZHqAh16aMIIUzB8G3ZQQDoqwAoygGsgcCl50OX80EMEugtfb8A16/CsGnyrKa+FGtuoB+y3uC/vKwsphRR/QkOmz0Ymbyk9wr68k09v0M81QPj5X/+XaMY+pQDC05tv6kzKAmIBst5u00d9w4Fb96QI0k73EBABIgyYUQqpMAfTS8P0GFbIwdYLMGFKm2jXddkIMi5NzNbLWiQaBAEKVkN+yCZ4eg2e3pRQRChhh/0HFKSHQxDBMAxkCRKoR9hlIaia8vvXAs8KQIjLjncWUtN+9stfRbNpAoSXFIOwf+ewGvl+s0CrXTPBAdkD6alg7KTuQIPOcEKYghWmkQrzSIdFGF4ahpcSNsEyUtA1A0EYwHM9BEGrWiMAXddhcDwGEMBHlPIFJDD04GADrsGwAxkFZjvsv4wHppMSJLAcc6aQkkZPnT4899uUU+PdmgUSgFC5psNdNhA6WztON+zV6RzXftoCCNcUQOiG+6fG8JxYIAojqXcgxZBqnugO6JS324lRBIgk0CMTVpAWAaId5mCHBaSiLPTQAgJNKjXqWuwUWcLZ930BCAlIiAECuyIa0hhKMyJEZgDfcODqVfgWQw9NeHoDvuYAEnbYR5v0uIgkhTRdSCHXa+96Ouk+so4aapsFCBDWbzuoCUDQETqdrcL3szEVQNjPd0+Nfd9agHqDypoDt+rKNYiafps0NzMTtJBaAwtWkIUd5OJQAn8jK+EEplMSEBAIJKsJyaJosQfJb75nmqaABL7P3yJgZI0Ew0Noe/BTDTSxgaZeQ6A7CHXWT9gfYQeGd1iSOfRCaexUGMjATCkWYd9+oXZx4AogpE9BMQi7OMPUoZUF2ixAh+s2A1QWG/DcAJbNvMatr0rIGUjaYmBB92yYbgYpMgdRAWaUlnRG6hDILLSHEdpvijSCYrAgDOWHAIGggEwC/xZ2gxwBwYJpQE9pCAwH9aiMJspwjAoCy0Gge4j2Sf0EyXz0WK1SQ7ZoS2OnndaAqIm//y2gAIICCPt/Fqsr2DcW8L1AiiFRf0C/zJWr9Cjewkadgd7SGTCcYDoZaI4N07eR0tMwDQtRGIcREqYgYQTiUsRxYCABBPybIELCCi1RUxJukD4RYSjMgmmZUh+h6dXRDCtwjDqCVF10CoHpCMsQ6MEWrugp7tLq/kgJhZUykB/MSNqj2pQF2i2gAIICCOoboSzw1Cwg7MFyA77rS48F9lrodKPWQNIWA1vCCakgL6EE008DngkEumgMZOXfFkJIwABfT0ADX0tAQKJJSJiE5D3LsmSICaCQkAMAP/DhBY7oEFhYKcl4oEaBDENodHfZZgm5ML1UA4oDWdg5U2U0dDoZn/HPK4CgAMIzPsXV5XWLBbhgpyixvFgXUZ9BcLCF8AKrHhpMV3QKSPuFWGegZWFqKWgtxuDBsEHCHCS6gnYQkDAICUB4kG0gQOB+yT4JwxCDhhBhFCKIfHhaUyoxOlYFbqqKMN0EDJZs7l4Jo2Q0hEC2J4103hQ2QW3KAokFFEBQAEF9G5QFnooFfC+U8EJtvSkllZlKuJXMBcOzYTXzsKs9MD2Cg7SkLZL+l9AANFntJ4LEBCwkjp7veZ73DRYh0Rw8CAL4ertgMQlNJMcUkIBIMiFct4m6W0NTq8DPl6H1OECGjae6GCAEERBEsKQEc9ynQW3KAgogAM9MFkN7fmdCg6oprizQbRZw6h4aZQ9O3Y3rHmyxFwCFiFatBKvcqm2AeIV/Lz2xTWCYpC8mDEICIvh6AhJop3bwkICLJMSQ7JOEGRKQkIgeCQ4cx0G9Xke1VpWCSlpfE6lRD3qeFSK77U7cHw9TTpnRwC3Xk5GUR7UpCyiAsI8BAgu8ZKw8TN2CqaeQMeO/naCBjeYymn4NYdTlIqmOvoOaFLVhXFla8kYUne1EgRoeV5eRxOVz7wvXOhpeS+hmG1lYus0RounVEESs4X9/M7T7BXp8UtKB27qO7l1hdmqHR34+AuplV/ousJofuzV2WrgkObZkKlRLMDaK0F0bUjGxlXGQrPhTqdS9sAAdeLLiF5Ghacqh+DpBAsdBgJC8nugT2jUHyVgThiEBGAQGzWYTjUYDtVpNfoeWC3skRHYyhFWMgPh0Xbkx+sH74bsh8r1p5PvTSofQlXdqbwalQgz7MMSQMtIYzR9GKd2PXKqEgeyI/C47K7i++iXubFxB3avszYzahbNahi3XlzFyAnwaQR01dx1B6G/rbARVuVQPePwwDNAMqnC8OoItgCseazh/EP2ZUXiBh4XatNwPv630WDHVi4HchNDhFWcNq80FOH5jh8BObIpYfR8vWQmiHgekYjqewItCQf5EcaEh/pvpfa2/CcjC0IcfelvuQ0D9QXWlgdqaA8PSYvagw9KnDwIEfaMI0yNAiJsOJSwBwQF/EjFiwiJwfwKIBDzwdYKEB+setAsYk3MmgseELWB5ZoIDggL+ECQQbPB9Ixshn0srKgAAIABJREFUMxYhOxl1PUCQeRJG8JsBssUU8v0ZEY5uFbxt6wupdu46CyiAsA8Bgm1kcKB0EpM9x9GXHWZXe+TTvTA1E/PV2/jwzn/HYm1aVtott7HVTLItO4SdnOm9mWEc63sZ48Ujctj56i18tfABKu7atk5TSg/g7OBbGMiNC/sys34NNzcuouZufMNem2nOQ9B2ZugtHOt/SZzsnY3ruLH2FRZqt8RJ84F7pPdFvDb+Y2TMHK6tnMfXS3/GurOCIPwm07Cdi+I40mZO4vDNoA7Hrz/0cLJq1m2kjSxShi2gQsR6wnLY8pplpCVd0A3qWG0sYrUxBy+Mixt1urFRUHmpgfpaE1bG3HJ4gedtZxAM14aumQIGEgBANoAggFtSKTFhA/i5JGSQhAoSkeKDAsZ28WJyLIYRElBAtoD/JjggYEhAipnD/gMITij6g2yvjRS7PG5BPNrpnFCf734LKIDQBQBB03QJEfDhbmoW+O/HOSUCgZ7MII70vYjJ0lFZ/XqRBz90sdFYwRfzf8BSfUYejrlUUVa1BbtXjr/ZpPMw8lH3yliszWK1sbBnjWkYWiAY+u7kv8NI4SCW63dxaekTXFn+DA2/Krbif1z9+lEgzvbb4RVNVu0EVnSKSZOdgewY3pz8OYZy41hvLOPKyueYr05LGIOO0TIscYgr9QWs1O+KUv1RG+/fRPEYTg+9gYM9p9Dw6vhq4X1cWPoIXtBE0e7HqcHXcXb4u3L6Lxfex5cLf0TNq247HMQwExkWjqE3M4Sh7AQM3cBCdRpzlRuoeZU2sBhfgambGModwNH+l5BP9dxbMTLkYmgGLD0lAIG1BMiqzJSv4/zCn1B11ztmPCSmH4QoLzelvLKV2Z4DMp0sUrUSUpVSHGJgq+bWJiWSW8LC9qyEpOBRUt+gXWeQAIt2MWJSDyEJO/DfBALlchnValWAARkDsgiJluEei5GLkBkFcmQQSt0dYohRVITAi6RoFUsvp/OpuLql2p57CyiA0AUAgY67mO6XBzsdOp1ivOJ5dGyaD6OJ0jFMFo8JJX5r7WvcrdwU6n2xdkcobF03MJKbwumh1zFWPALGyAki7jML35z/8khgmVktDpquO8v4Yu6PstLdzCp6p79NdP5Fuw+nBl7H25N/hXy6R67z8vKn2HBWY0pZN8D/uEqv+zVUmqtYcxaFDk82Hqc3PYSB7DhKdl9chx8aejIDOD30Jgp2Ccu1edxa/1oABu+HbeXESVacVVxf/QpXVz+XnPf7myYOmattS7dkFZvSUwIOXh3/oWhEri5/hq8WPpQwwnjpKI70nUVPZgjl5opcw821r+UeE9B4oQPX573xH2prXTeRNjJyD7kKdgMHTb8qOgaeazR/SEJOQ/kDGMsfhG2mMVu5gUuL5zC9cRlO0M4kaDB0C1Olk3h57Aco2r2t1W/MOElIxyoiYxVgaBrWGku4svIFPp75F6w7S50DhDCC54SorTfQrPlxWd9trFATgJCu9UoDpjCImYIk/ZD2STQJ8ZSONQbJaw+rd5AAi+RzDBXwJ2EOyBAQGKyvrws4SHQNiVAxqcAoczIbwh6NkD8ApEpEY5v/ZiTVmk0jhZRpC5BL2J17tD+LOopeJtbjMKQl9Rg457fi11krwgulSqSdN5EtpWEogLD5m/YMf1IBhC4ACPlULw6UjuPM8JvozQwKQJB+uI/Z6OSyqZIAClZ0Y1jhwuIHqHlleViwS13ayuJg6SReH/8xxgqH4IUelmqz4rAetklEWjdRSveBtD5j/H+a/g3ev/ObRzgF7hFvktfO1ScfaNBFqEdmI47nszlOLDK8917EinWPFhryyCkjg+P9r+DFkXdwsOeEsAXUVtS56maXPS7O6JiNtJx/vbmI6ytf4vz8H1H1Nu5dImnzidJxHO17ASP5g+JQ02YaWauAtJkXnUDVK6PqlAVAkSngtTf9Olbqc7i9fgV3K9e+ATp4TLICA9lRsRXHYOi6OFW+lugMyExw3BPFIxjMjYs97pZvYKU+j4ZfkzHS0fM8S7UZ1DwKTL/JVPBcebsXY/lDGCkckHNRjDq9cQWrjXnouoUDxeM43HsaPdlBAS4MY5D9uL12GX+e+ZdWOKZ9TmmwzYwAAR4/dqQ60mZWQjmHe89gOD8pc+XrpU9wYfEjrDbnBZB02uaY4QW37qNRduE2fClVvJ0Yt9mMGYR0vRdmmJUGTIlDb6+OmIADsgCJJqEdODxYTbG9YBJZgSR0kAgRk/ACz5WcJzlGAk74W8+GSI9GyLUAQsu8m3IjBAjsJzFYGMdQcRT5dAmWyXAPvz8MA+kCCqgJ8cIArtdEub6G5co8lmtzCDSvc/BFhsePq0eyN0O+z1Zllzd1t579DymA0AUAgVQuBWz92VF5QD9pGcBVcz5VwtG+FzHVe0oczW9v/H84P/8HOH5TKHJudFaHek7jtfEfYTg3ibXGIs7d/T3WmkuPBAgZM4upvjN4cfhtcXLv3fpb/OH23zyUdeCqlg5a6txHPkr2gND1dMAVd12cHh0Z3yukesGYP51b3a2g7K6h4VceCRJoE4755dHv48TAywijCJeWPhUnKur/1hWM5CdxfOBVZK0cFqoz+Hr5Y1xY+FCAUrLxoUoavTc9iIJFUFXC4b4zONz3gjjsy8vncHv9Ely/Kf/mip4AgSsy2pZgo+F9c6xkF4ZzUzjYexLjhUNIp3Jx9b7IkNU7nS/H6AdkBQLk7R6krRw838F6Y0k0DyzXS4xU98uYXr8iTMVGc1GAXPs2mJvEkd4zmOo9i77MICzdFLZkuT6PS4uf4NbGJWEBXhr+HsZKh2XcZCnKzhoWq3dwfe0rOC0w8rhHWs4qYar3NI72v4iR3AH4kYfLi+dwbe1LLNVnEW5RpMjuiSyQ1Ki48BwfhsXyyltZ6sajtyTE0CM/VpBBFGhSIjnpysjVfMIiJJoDAoQHQw5JuCHRGiTggeCAYKBSqQhISIACWYQk9NBux3awI0xCOkBmTEPuYCQMQicAwdJsCQm+fvhdHB97QbQgZAIpJOU8JiKPyUUWZwoRBgEabh03Fi/h91//BhVvBRJx62ATsMN0xxBI2SYKg5n4HqntubeAAghdABA6nYVcWXPF+PLouzjc9yKq7qo48ovLf5ZVe7IRIEyVYsqb9Dpj0r+9/v9isT79cICg6aCTeGHou/je1C8kZv+HW3+PP0x/GyDQGRLQ9GfGhDWouxuy4ueqc6QwJamWN9cu4srKZ7IKPVA6gUO9Z8R50mnNbFwXFf+Dq2VxAHoKfZkRnB76jjj/XKqA22uXZCVMgSJXxmQYCGBO9L+Odw7+AoVUCVdXvsDnc3/A3eoNuEHzodfIMU4Wj+OFkbcEXNXciugZmPnR8OuoOgQuNWES+DTm6jpp1kPQkLAeEu9Pj2AkfwADudGWvoNlewneihgvHEHaysu1EyQRNPFhX3fLmKtO33PYfNZTSEitB5kFxvgTrQNXjGSITvS/KtoFMhMbzRU4QROFdK/oKW6tXcSX8+9jqX4Xk6VjGMpNwA99AVLrzWXUvA3U3PJD7ZwYiBoOgjdqKI4NvCRMB8d0c/UiLi5+LMzB4/QXT5q/QcACSS6cigfPC7YPENwc7HoJdjUOMbDfQgIQEuo/SWdsr43AcbaLFpOwQlJDge9zf4oPCQ4YUkg0BslxH2Q+EpDBfRNdg54JYw3CQWoQOgMIKd3GcO4gfv7i/4xXjrwTh0UeEzdgqKHp1HFh5hz+64f/F1adeSlC1cl2DyAEkH4MxaGsAgidGPAZ/qwCCPsQIHA1/MroD2WlRyp5tnwdn939HabLV74xVXcTINBxUiR5YuBVEUzSCdLx06m+MPJdqc3AlMv3p38jbMILw+/gldF3JZ56ZflTXF7+TBiGdseTKOv70sOywn9x5F0JA8xVbuKzufckli4r+VbIoic9iBeG3xaGhCDl45l/xUcz/yzO92E6C1LxPPZ3Jn6Kgz0nhf1YacxL2ILOn6v6+cptLFTviGMl28HzE4iQtSDz0uRnW2mQtAEBFQWgdObcn2wBHTmzFQhymOpIdqA/OyKsD0M8n8//QQSgaSMn94vZBqybEO9P9od0ry7nPtxzGqeH35IQFLMraAcyQYf6zsg1UH9B7clnc78XzUhE9oMdE4UNiQWbjwrl0PFQ4FhI9eBI/0s4NvAyetMDCAIfd8pXcHnpnLAQHBdBGUEXj9lpMa7Aj9AoNwUg8G+GGLbFILg5pOs9sGu90sGRDELi+BP6n441CSskTj0REZIhIKBIwAN1B7wmMgTt9QwIDhJWoj108bD6CO0hBwKE9GiI3CQ6Fimy82TR7MMPTv0V3jj2Q/Tk+mAYZOm+zbjEFRw93F2bxuc3P8B7l/4RVX+t4xDDveqQFCpaOkoj+biJltqeewsogLDPAAIfFHQ8PznynzBZOiFixE9mf4tra+dRbi4/NYBAB0ZnS4Dwytj3ZTVLap9q97cP/CX6smMCXD6688+SBfHK6Pfx+vhPxMn88fY/4Kslivdq33A2dFZD2UmcHHxNjpu3S5jZuCaZAFzNMmyQMA503kx9PDn0BkZykwJCPrv7e1xY+vCek203Bu1GIeixvlfw8tj3MZgbkzguHSAdLx08V/5O4AgQWasvYrR4CH2ZIanxv+GsiHOeLV/9Ro0JMjQnBl9FyshKiulC5bYAi9cnfoKB3JgAJ4oRCRoIJBYr0zg3/3uU7H4RLRJQ3dm4Kk6+7Cy3xk59QFZ0I29N/lRW9s2giS/n/yR6AIKOgeyEgMTJ4mGhnRki4ft3q7eEQYhBweN0LExzjJmaF4e/iwM9J1GweyTjgufivWn6TWFSKu4GlmuzmCvflLRMCio7KVRFARzLK7PMMvUIxjZFipabFXBADUI7QEhKKLc7/yT9kXMhAQrtHRuTsALDCGQMmMJIoJAAg0SEmGRBJCwEf7dXWEyOLyLFXIT0SITMBOsgsGXl5gthUYNgIIWJ0mG8MvUOXj/2ffTk+kWM++Dm+S6WKwv4+Np7+Pj677HSmEMA1nXozK8lDILnBLBMHb0TBZiqJ0NnRnxGP60Awj4DCPlWnJjpef2ZYcxVb+F3N/4G87WbLQHZ/Zm6mwyChAIMG4dKZ/D9Q78Uivrqyue4tvIlDvSckFg5ne/N1Quy4qYTPdL7gmQF/PH23+PyyqffWuWT/j/Uc0ZS7+jA6VzJQkxvXBIglKzcqX1gVgLFlwQSXP1fXPyzaBRojwcdI8FMwe7HoZ5Toq0YKx6WVTGd8lzlFhpeFYPZcRwfeEX0CTxX1V0TsR/fY+ooY/C31i4J3d4evpgoHMWpoe/IMQlg7qxfxUZjGS+PvftwgFC9I5khh/pOi76C4YJzs7/F1dUvYuARRQIOmJVAJuZY/4siOL2xdhGfz72HheptGbtt5iRsc3qQaZUnZEz8zJXlcwLM6NgflXlCZ8f9R3MHxX5H+18QwEJIEYtAyzIu2pFghxoTMhJkPwhmZivXRRD6qGyYB5+VgR+iToBQ9STjwNgmg2AKQIgZBNOnBuF+m+Z2h94eDngwFNCuPyAYYPrixsZGXAkxpAjw/k97dkQSSuBvhibaj5Ocz8wDNgHCeACz0BlAENuFGmw9jfGeI3jl0Nt4aeot9BeGvgESXN/B4sZdnLvxAc7f+QizazcQ6f6T5EsPdWPCIIQRQjeU0ELvGBmELq4P/Yw64268LAUQ9g1AIB1sYrRwCK+M/UAcKVPdrq+cx0cz/x0bzjfZA0623QYIPMdI7iBeGf+RCAATB8LVJQV5dCDUIkwWj+JAz3EJO5AR+Gz+PcyUr37r+0DAMV48JqttxsUXazNYrs+g6t7PSOBOdOJHe1/Ca2M/xFBhQkICZCVmREcQZwa0bww/HOo5ixdG3hGlP8Ma1DSw7gELAFGYydeZ8khH6YauOECCB4YH5so3sNpk6uS3nW4+1SdU/6tjPxC9AFfZZAzODH9HNBoPMggrtTlcWf0cR3rP4uzQm7Iif+/m3+L6+pfCaJDJGMiM4eTg63hp9HtImxk53pcLH2J6/eK96xNhnW7iWN+rAiQSUSGZli8XPxANwsOKJHEfhqiGcwcEEBEgUBdCLQaBETNEqCep+1X4gSdhDqZPMrsmy+ur3MKX8x8IwHMptHxCtg3vg2gQyi0Ngr99DQILJREgpKq9MClS9GOA0N5oiav7BzMMHkx9TEIOZAxWV1clhZF/t+/Xnj6ZtHluL7qUAITk2BK2yEWwh0Okx32YBababJ5BSOYtHbatZzBanMLbJ3+KU+OvCEjg8QloFsuz+Gr6U/zp8r9iqTqDiNkLrCbZIXtwD/AQIPishWCgOJyDqUSK3eivn/qYFEDYJwCBeetcpZ8ceBWvjf1InD+r8VGUN1u59lBn8DQAAsV3DAvQkbBwEYVxXOHGqY1c6Q/inQN/hdHClNQuODf7P3Bz/SthFx7cuFJl/jfrCnCjGp8/7YWPKJwcLRzGm5M/w0h+SkR9LJxEBmHDWXroqpYagrND7+DM0HdEdMgQwp2Na7LqJrV+oOcYBjOjknlAUEPAQebi2up5SQ+k/oD1ER62Iuc1juan8MND/1EYg6XqLG6ufYUj/S/e02a0hxjohMlI9GeHUUwPiL6CzMBc9aZcMx34wdIpHO9/SY5HfcLV5S+EnSH4aaf26RAIusaLRyWEw1LPQejKtZ2ffx8L9WkpcpRktfD4dPJHel4QAShZDx6DIObG6gUBQwR0DDMQfBJIxamPOWFf3jrwlwKmCFY+mPknbDSXNlXumkWSyB5QqOi5OwAQnEycxcBujn4arLid1CxInHd7tUSCB258rT3kkIgKqUkgQCCDQIDQ3io6AQvthZba9Qjtryd/s9RyajhAZiIBCFt8rkca0noGw4VJvH7kB3hp6k3YVkbSGr+c/gR/vvY7LNfuwo8cCStsBRzcAwhBnMVgpQ0UB5VIcYt37JnbTQGEfQAQ6IQocOMKl5Qy6xTQiV1Y+AhX174QgdvDmjM9DYDAFa9U3NMMCQFQzMaVMJ0p49snB17H6eE3kNIzLU3CP2GpMbspx9L+bZMmvrqBqZ7TODv0FqZ6TklaIR35x3f/DSu12UeWAebnmHFAgEURH1MsS6l+ofknSkdEP8FaCG7gCUhgYSCGRq6sfiaiyCdtfelRASzULLh+A8v1OYwVDwloamcQWPSJoCRr5JC1C6KboH6EoYuaty6nicMhfTK+lJESR03NQZmFoR6iKYhBQgHjhaN4YfS7mCgckc/NVW7jwuKHuLF2QcaUgASmW57oe03SM5lVwbGS+WH2i6TUabpoDlbrcyLKJGvCzAxWs/zJ4f8kmgyWkP545t8wV70tLMKTNqY5xnUQHHhNDzrp604D5W0nMZsZmNUirEpJAEKS5pgwAgK0Wh0dExCQvJaEBfjvhHFIAALDDPw72Sd5n59N0iaT/R58LQlDCLPTAgg70qwp0mBpKYwVp3Bw8Dh6cwNY2riLm8tXBIx6YEbPEzOjH3+LWnUQeE/SGRO5/rSqg/CkSf2cvK8AQpcDBD60WYjncO8LQgdz5UnlPWnem2sXsNZYeGSsOa6DwDTHH0n6G4vzfDT9T7L/wzY6J65IqWZ/dfSH4jD+cOvvHprm+LjvB50MnRydOYs/UcxIAR9z9kmlM67fyUZmwbay4vxODL4m4IDlgCmIpGjv+tp5cYJP2oQOhi5xdfZNeHX0+8LEsIIiMyo4ZlLpVbeM22tfiy5gMwCBlP3x/lelGJJlpiReP1w4KDUt2gECsy4IUBh+4UjIHnxwh/dj7huAifdBque1Vct73LXFmoIspnrOCPPA8tvUc8yWb+DK8uei4YgbR8UAiIxPMd0nXoVFtRhWGciPoSc9AC1iD4c4NZMgg6EgMhdMq/2Lo/8ZfdkhYTQ+uvPfpSHVo9JJ28crhZKaAZprTTQb/rZFigYBQrkAq1oUDQJC/d6qP1nxJw69vRhSktaYsAgJAGC2wtramogUk3TGdg1CAgYSjUG7JiF5LamkKJ/NhLBHAmRbWQyd1EF42H1muCGlpZGzSyhkSijXVyUcxGJk22EO7p2LlRR9ViXVYOdMZHsUQHjSs+R5eV8BhC4ECHFFQ0scTH9mRPL1mQeftfJYbSyJ7uCrxQ+kit7jhGJJoSQq6sdIx3tl3Fj5EhX3fhGh9onOlUjKTEstA6rzdV3DewQIjyiU9OCXRNLmDEuKInHFSYEdaW+mDDJXn9X4SJlvXgHPWge2rMQJcF4a+Z6EKrjReZ1feB+317+WZkKbiYXLKlI30ZMewiujPxBank7zT7d/g5nyNUklZC8DCvXoXJnqxxUyr0tq0zyi/DWdMfs6sLATdQgEIFyh8+92gNCXGRaHyrAIaxNQY0EdxGZAyJMeSLHtU1IF8czgd0QXwXFRtPnp7G+FvZHeFYRIrcZMTLNkzYo3J34qBa4YSqEmgvOMrBCzT87P/VHCQSwV/fbkX0pBqPNzf8Kfpv9BMjvIFj1po93YTri20kSj6sJMb68Xwz2AUCnCDLLS7rldf9AuHGwHCAloSLQEHHfSY4EAgRkMSZpk+/ESQJBcZ3L89uMk7/GzBAipkaDVi6GzOgiPtiXvm/BoMcPRKob2JNtv6n0ez42zS9iLIVOwoBsqzXFTtnvGP6QAQpcBhKSbHsv4HiydwFTfKREmpo20ULos6sOKe2vNxSd2AUwAAjMeJopH5fN82MdFgL69SdNfzZSqhBQC8uH/3m1WUvzbJyrW6XToGMkWkIGY6jmJUmYQDbeMz+b+ILR0J8r3JHRBwR4BEpX2zFxgfHymckNS+shK0OltFhzwipmZwNDHq6M/EhEg4+wfTv8TLi1/IvoEAjO+RoEflfyGtDxmpchASi/fL+wUiwTj5kamhCmodSCoG8iM4qWxdwWIcOXOcsesg8A0Rzpd1hdg/N4NHWFTeGyCpvh3sOW+F1Ke2kxL8SqCM1a2pMDz8spnIlp8MBzAOXak7wW8QPBpFiRTg1oHgjqKSnk9q9V5hFqEQrpP+mIQ8Hw1/wHOL/5J7sWmbM9CfdLNsY76mgMru71ujgQIVrUkLILppYFIl3Ek6Y2JYPBBkeKDgsJkH6Y4tjMInCeJOLEdYHD/hClI2Ih2VoH7CUBolVrOToT7pt1z4IawsyayRVvuDxcHalMWUAChiwACc51H84cFGJCippqfuflU1d9Zv4wbqxcxU7kuD+mHVSB8cDoTILAXA+sUMI2PtCRT4Zj3/3CAEK/YWR1wqvekxInpPD+Y+W+PXfXTqfbYg5LeyGwAtk9muh5pe1ZTvLF+QRwl0xE3syXHY+vksdIhqQLJVe1idQbTTLPbuCIMAhsQddpEisAjY+VwZvAtYRGo0Oc4F+txjwphN6TtsSEAgM6f42ZYhlUFWauAG1fYrE8wlB+XfgYECqQZuA+rOnLFTQEnj7neXJJQhm2kUXNYSTFOrZRN4yrWw5qzIrqSlfrspmj7x9mRYIWhEqYyEhRypU+dyoPVEDk+VpVkUafBzJiEElhtk69TIMnQSdKKmtoSplgyjfX2BkMyZK/uV+180n0l+VJerqO25sTNmgwCryft9fD3TYcAgSLFktRBYC8GOm4ChKSTY8IOJALFpAnTg0dMGARmMLB6YrsGIQE/iWiRYKC9xkKSKZEAA7mdbHaWgxRKykyErTTHrV3n09qLIQzfCZAppJDvzUgaanuK6NMahzpP91lAAYQuAghc3R7vewVnht8SyjdEJA/3hcq0ZCywSyNXzJvdZDWZHcfB4nEBGmwcdGn1nJQTfihAYLMWI4PxwmEc639ZVtukwK+tfP5YR0yHxFXniYFXJCefYQ+WE769egG3Ny6jGXyzINKTxk+qfDA7IWmMDHfQi3LlfX3lK8xsXJVujZsPU3z7bHz4EYgd63tRgBjZEvY3iDP2YjmfNNwm9SpdIqtyDz5fiKsYcqOy/+TAa9K7QBpsyR4cKcGFDtOk4M+Q/elkWbuBn5HW3IEjFDGL6PJcFEjOV+9IJsFM5SqaHWo0nmTPR71PEESW4czQm3L/MtJPImZFeE+pQSEwILggyJlev4yb6xclpXZTzEH7iSOgut6UegjiSAkQtrhKZTdHu1aCxToILLXc6ubY7rx5jqTYEf9mVcWkdXP72On8EwaBAKG9QFISWnjw8+1NndoZBp6H71l5TZo1ZSZYB2FraY5bvadb2S8K2G0zQL7HRn4gI6GMLXWF3MrJ1T5dbQEFELoIIPDBzAI5jCNzFceGO0v1OaHmmTrIeHknjpGCPLISfNjz2KSwGQN/3MqPdDqBAVe7fErw808Soklnw3Q/GGOns+XqmI6UrAEdTCdjTlZhXHEfKByTjpUERYzXk/lgFb/NMhGP++axaiPDAVz9MxRCoV7Oyos4kHZu+g0pq1z3K9JcinUCWECIDYy4sQrhUO6A9C1ghomIxdpO2F4aN3n9fufLb75CBoFOd6l2Vxwxr/FpbIkegamj7BtRtHukdgO7i3LexH0kVmRMLBxFmzCskBSs6miMEdCouWisu/A9ljnW2P6zo0MkHyZAsGolqYVg+RloUdwe/cFGSu1ZCElvhiTTIQk3cD8CBKY5EiAkaY6JWLG9RXQCFJLXHqp70DUBCOzFsC8AAoskBRQpArleG/m+9JaZnS3dTLVTV1tAAYQuAgh0yFSZp42sxL3pKKiIf1oOY6szNa7pb4lIjqtmOvDtOnI+hCmiY4qd9Enw4z4HO7mJg9SpH0hJaCVpVU1Aw3MRDNB5J+2f28MZBF9sw0vdBXs6xEuuzgvicD9yFuz6SGbBk14Hj26DvZPX334szjfaIWVmpD8DV5Gs4EhAQPGiH8UFhLazeU1fRIqNMhkVDZq5NYBguGlYtTysSg9YVVFHzHpwS1b0iYaAryUpj0n2woOZDgwrLC8vS6EkZjQQaCSFlx5kC5JaBzxuAibaqzQzlJz9AAAgAElEQVTqhoZUSUNmHEiPhTBzjDttz27bsfkT9w0i0YfopoZsKY1sMfXEXdQHnh8LKIDQVQDh+Zl46kqfPwsErIdQ81BZagB6BMM0tlTcR/ctGM009FoeFCwang09ZAiHbZFjoJCwCe1dHROAI6GjtpbQ/OzS0pKwCAlASNiBJPOhnXmQ7p7MzPBjTY0w8uzEbEUwsxpSvRrSQ0CqL4Sejjpuv/w0Z0boh2CcK523kCmmYKUJdtWmLBBbgAChfNtB5ZoBb1lH8HTIza4wv/azX/4qmlEAoStuhhrE82EBp+GjvMB+BwG42qYWodNNC3VogQmtmYLezEBv2tCaNozAgIk4nEayg06eAIH6g3Z2IclGSJw/HX07QGivgdDODsRgIGY9kt+8BjIEWioEezCkeuIfq8h6CBE0sgdbI0o6NUvHnxcmxY9EUJzvz8DOWapAUsdWfLZ3SABC9ZoBd8XAVqOf22Uf98LK2s/++lfRrH0KV4svwe05yC4y2xxHiEFjEW/kf42DYzfRO2JvWYi1zYGo3ZUFutICvhtIqmOzHlcsNCxWVex8qCzoRJAAz4Dm2NCbKWiNFKwgAyti8SRmHIRxGqoRNx5KQgvtIQc6eoYKCBCY6si/ubXrFx4cnYQZDE0aG+k2YGRDGIVIWjtbBQ1mloAhZg62mqnRuUU63yMKQrDKJZmc4mAGKbIHW7gXnZ9Z7bFfLBADBBfV6wQIOiKn8wnSztzt1XVvJStH+9lf/5do1j6pAMJe3TV13ufOAox3O3Uf1aUGfD+AaW+9aBJbI7MGguYbiDxTQILl52AHOeheCoGjA0GcWZKEFWhwMgdkFpKyyxQpUoOQ9GJ42GqnvWmTbmmw0kxn1GAWI8lUIEAws4BhU/QQxcCg82fp05sPEcAum7QNwwvZnhRMgjW1KQu0WaAdIHgECG7njF87QNgrJkEBBDWtlQX2gQVI/QdeiPJSA27Dg27F6Y7bWWkLUAh1wDdiBiHIg7US0DQROQa0wBBGgfn+7ZkIDwIE9mJIKik+GEqgcDTSQhAcUGdgFTWkihEMAoRcBN2OoFnsF9LFgsS2+RGxboQXSVvnfF8GqYz+jUZW+2AqqSE+BQskAKF2w9wRBkEBBBVieArTVp1iP1uAtHaz4qFRceC5IUxLA7ZYE+Ebdog06JEJI0xJfQTNSYs+wXBToLBRCwkUgJAohdKAFiqhMHFlZQUJQGhfbchHCGCMCHoqgpFnKCHWGFgFllVmBkBLiNjNjEG7oaT3QijtH+28hUKf6r2wn79Puzl2BRBUiGE355c6trLAtywgLIIfor7uSPEk09Sgm1vTInzbvAQJuoABPbCgu2kYbgaWm4Hh2tB9E2Gr8qJ0NtA0YQ0IEBhiSBiERK+gmRHMtI5UQYNRCCWkYORCCSfoFlMYY53BVlst78X0iOsehLAzpmQu2FlLaaX24kbsg3MqgKAAwj6YpmqIz6IFGlUPtdUmAj+AZlD413l889F20aC3sh103xZGwXTJKtiAQ3GjLgWWkrRIAgTWQZDaBlKHIgTMEAbLJvcYSPVoMPNxnwUyCTAjIT32EzAQW7XqHlAgQd1BJp+KMxf2C/vxLH4RuviaFEBQAKGLp6ca2rNsgcAL0Kz6qK2z6RNX5LvTA+Aem+DZMFopkVrDEobBjKgq1LC2uob19TU4roNQD6CnQuj5EHaPBrtXh1WgALFVNnknccxTvMESWfEYWoA0ZGJbZzujhIlP8Rbsu1MpgKAAwr6btGrAz4YFpNgQ20CvNuE2fen3oZts4rTzy1m2hJb6Cb4FvWkBTVsYBYPdID0T66sbKJc34MGBkQsklBDrDJjGqEFPsRhS99Y0eOKMYF0IpjX6cVpjYTCNVEZ1bXyi3Z7zDyiAoADCc/4VUJe/lxZg2iNLMFfXmpL+aDKrgQWUdgUkxDEBLWDGgyWahDjbwUJlrY56s4rQ9mAVAyl6ZOQi6WwoOoN9yhok95YZHEEzhJEykC5ayBZSUsdBbcoCj7OAAggKIKhviLLAnlqAIKFRdlHfcMCwA/sCxO2gd55J4IUyLTKKdOiBKWWataaFZs2FGzrQ0j6MTCT1DFg6eUeyK/bUupD0TjIHtGa6YCFTsqXmwS6Zd4+vVp1+Jy2gAIICCDs5n9SxlAU6t0DE1szUI8SiRYoEKZzbTZAQAwVN6iewImPosQF3AFgh2Hur6wsdbdLKAg4C6g50KYjEH4YWFDjYpAGf848pgKAAwnP+FVCX3xUWiACPosWyi9qGI6teUuC7FW5IrlmKLEmlxdYrfGF3iIunbuaYOYjBgZ0zpVOjmTbiVttqUxbYhAUUQFAAYRPTRH1EWWD3LcDsQt8LJNxANoHhBgEJDDmoJe+mbwAxDsM2SS8KMgaZggVLiRI3bUP1wdgCCiAogKC+C8oCXWMBruR9L0Sz7AhQYKYDSzFL10S18n3ifZICT6x1wB4UuoZ01kS6kEIqvfWeF088qfrAM2sBBRAUQHhmJ7e6sP1pgbhfQwC37qNB4SJpcil33GISFEP+rRsrNe75vwQcaEC6yEJIFqxtNMTanzNIjXqnLKAAggIIOzWX1HGUBXbOAgQJQQjf9dEse3DqAYIwhEGQwAwHlaF3z9ZJWejIixCGEECQKVKMaMVpo4p52bl5+ZwdSQEEBRCesymvLnc/WYBCOxZRcms+3GaAwA0QaVFclnmbXSD3kx0eNVZmKJA1IIHAzA+CA/ZWSGUMKYj0rAgun4V7tR+vQQEEBRD247xVY36eLCDNnQJhEZoVV4SMcVZ/BJ1MAgWM2vZaRu8rc0rbatZyiNtXU9xJwMS+CmQODFXjYF/dzm4erAIICiB08/xUY1MWEAskjpArZrfhw6l6cBq+vCdpe9JV8YFsh2dFq9BKwWQpaoIBsipkDZitYNgGUjlLeiqYKUPEnCrjQ31pdsoCCiAogLBTc0kdR1ngqViAokX2cGC4wXcCCUHwNcbfqU0gYBBSgcBB/ngqw9rxkwhLEBIIxMCAqYvECmyPTTBg2iZM24CV0uN0UJUKuuP34Hk/oAIICiA8798Bdf371AJ0nr4bwG0E0s+BICFhGqIwFGcqoQf53fo/qYzEngyti44rJe3Ndu/UBDFEAy0k0wodyDgF40TQNAKAOJRg2SastCE/ijHYm1v3vJxVAQQFEJ6Xua6u8xm0QByHT/oNxMyC5wQInEAqMxJE3NskBBEDhCigP6bj3TujCOPBMAFrPDB8wMHc0xbEbAiFhqatw0oYg1ZWQiy72L/syN5ZXZ25EwsogKAAQifzRX1WWaBrLXBPp0BQQDqepYYjFg1i+l8ct5d6AaTrWVuBDtbYu8vhuDQKDE1dxJaSusmiUHpcYloXyoD/jsMl8vM8iTH37taoM7csoACCAgjqy6As8Mxa4J7avwUY2v+91ytw6gpIGYjjZyyBQEBrAwR7SW88szNCXVgnFlAAQQGETuaL+qyygLKAsoCywHNiAQUQFEB4Tqa6ukxlAWUBZQFlgU4soACCAgidzBf1WWUBZQFlAWWB58QCCiAogPCcTHV1mcoCygLKAsoCnVhAAQQFEDqZL+qzygLKAsoCygLPiQUUQFAA4TmZ6uoylQWUBZQFlAU6sYACCAogdDJf1GefMwtI3QBI6QC1KQsoCzwFC8SdzLuj+dhzDhB+Fc3ap3C1+BLcnoOAkdrm7Q8xaCzijfyvcXDsJnpHbNWLfZsWVbvvvgUIAqSYEKsLsriQdAuMmwEllQrj2sR7WHZw982gzqAs0DUWSGp0yDeuVSSLBbNYWlt6jbDPyFPYYoDgoHbdhLuiI3Jj+NLJliwyku6jney7k5/ttFeJ9rNf/iqaSZ/CNQUQdvI+qGPtAwvEVQcJBthKOYTvRPAcwHeBwIsQBCw3yOZALP8b9zVgPwC1KQsoC+yiBQjK+a1r+X8pnGWwGRdg2oCV1mBZWlx9s1Vtcze/lglAqF4z4K4YiNzOgEkCDmix9r930YI7dmjtp7/8VTSrAMKOGVQdaJ9YIIL0K3DqAdx6AN8LEEYp+GEGYZhGGFlAZCLayzrE+8SUapjKArtrgRC6xrbmLgzDgak1oGkuTEuDnTVg8cc24pbnu7AlAKFCgLCsI3R24SRdekgFELr0xqhh7Y4FwiBuZuQ22dAIcBwTnpNCGBIMpBBpNiC/TYA/rP2rNmUBZYE9tEAIdhbTIh8aXGiRgyhyYeg+UikXKduDRWYho0sL8Li7584NlwBhnSGGa3oLIOzgwXdumLtyJAUQdsWs6qDdZgHW/GfIwGuGaFQDODUdfpBCEOUQaXlEegbf7FrUZQ+BFu3akV3bJBNxp+cuu6aOLmZ3P7xd6rfT2O7uXk0XHX0r8/aB4d+3bVtX0iiEFjahowpDq8LQXdjZEOmCjpTNcMTOaRQUQFAhhi76Rqmh7KgFWiJDsgb1MkMKETzXhh+VEILgIAVobGdI59llDvTe81CesvEmrZ2pitCgP2a8/HgYkpplt0bt3u7fAAlddrk7et+fdLCWPWNbSr8o+U2bcdO1R1uXuwYI4xlD1Zxscbvq+4HzJw3gGX7/wXnbsi3NEyKUeSuNuR6z8RBR8pWMO4Df3yfZVTp98T540KM6DG0DllmDndeQLVqwUnrcHXSbmwIICiBscwqp3bvVAqEfwW36aJQDNBsp+H4ePvKItEzXhhBkNcs2yHywMrsiDJEyLKRTNkzDQBAE8puvPWpzAx+1ZgOZlA3DMOD4LpquC59pGvLg1eIH8FNUg3fDHKEtxa7sdN0Cj5aui21TpgXHdeEFIQqZLMx7zv+bI2f77GqzLuArlUrB9T00HRc+KXCxq4aIjklrBxDdcPW7O4aI4Ip25YW37GwZJmwrBdu0xMk7ngvbTMEyHt1jnHJgHiuIIji0refA832Zx5yzMm8ljHAPKUCLPCByYKAGy6rATjvCJqSzZqtF+NavXQEEBRC2PnvUnl1pAfpYpi06dQ/NcoR6zUIQFhHqpVY4ocuWzy1nRYbAgI6SnUNvNo9SJheDAzstzt4yTQEIfFjyofuozfF91Jt1ZOw0dF2H67moO448oPnALTfrWK2VUXOb8OKn+lNLG3vaE0YAl4AtBpF0FO0s+nIFFNJZpM0U0in+pJGyYoDgBz4K2fwjAUIQhqg16sIepKyU2LbhNgWAEYiJbetlVJp1hIlDo32f0RCPAIMISGkG8qkM+nMl5NMZpC0baYu2tQUk8EOO58m85Tx+1EZgQCDHH4Kvhuug6TbBOb3RqMa2dWhb3lSyBG3fZWoTonUYWhnprINsMRYyGgb7iG9t5imAoADC1maO2qs7LcAFeAsc1NYCNOs2Qq0PoV6MQwpbfVLs0tUKzR1EAgRypo2ebB6HhsZxaHgcEwOj6C+UZHVLB8P/4sRLehwO6BFPPT5kGadtUeXch7UdCA7WKhuYWZ7DlflpzK0uC1Coek34CBHJQ3eLT9Jdss+2DitIMXZeBTuLUiaPg4MjODpyAGP9Q+jNl8SJtduW94MhhkfaoRXmiW9BfD+4T9N1sFxZw8zKAq7P3cH08jwqzRoqbgMuRXZ0ZM+KbRPQBQ0WdOQtGwOFHoz3D+Po6AFM9A+jJxfPW6lZ0Jqn9+fu4+bY/ZBaYlvX87BUWcP04l3cmL+DW0t3sdGsoxm4cEMfEc8htuW+PvSoAgPrsFM1FPpMpHL6lkGCAggKIGzrGaR27i4LMFPBaQSoLHtwmjn4US8iowBoXHF3l/NjHQYEIaxQw5GRCbw4dRwnxqbQmyshkyZrkL4HDnbCylyVeYGPutNEzWlgeWMN1+en8dmty1hYX0EjcBHQN+5SythOXMOmj0FHT3Cgm5jsHcYrh07iyMgk+gs9yKYz9xgZAQM7sBGQeZ6HuuugTttW1nBl9hY+u3kZs6uL8LUQkfEMgIRW/RDaNm9lMN43iJcPHcfU0KSAhFzLtqZhCnu1ExvDOjFT46DWrGOlso7Lszfx5e1rAhY8LYRmkk1IzudDC6swsY60XUGuz0AmH4cbOt0UQFAAodM5oz7fxRZwaj5q6z7qVYoR+xBqRUDvPnBAYGDrFgZyPTg5egDHx6dwaHgCw70DYOz2aWwNp4mlyrqsyq7dvY2rC3cwu7aEgEF6Q9+ftDgXkWGItG5hrNQvbMHxsYOYGhrHYKlPANfT2BiuWFhfxs3FWVy+ewtX56axVF0XNoHajy7DqpsyiRQX80MBXlP9IwJmj4wewOHhCfQXS7CZb/gUNoKFu2vLuDF3R4DCpblbWGtUJFymMZzALfKgRVVYWEU27yBT0pDOGh2DBAUQFEB4ClNanWK3LSDaPi9EbcNHdVWHFw0gouZAwgrdtekRkNFNjJYGcXbyCN46/jJGevslpv20N4rHPN/DrYVZfHbjIs7duIS75eV7D9t9FTsXhjlA1rQx3jMgK9vXjpzFgcGxPQE7osYPQ9xanMUHV77AhenrWKisoh66cVXOzhe0T3t63DufhML8CJamY7TYh9ePnsVrR89ivH/oqYGu9ounbZtOEzPLC/jwyue4OHMD8+VVuGRq7tnVhx5uwNJXkc05yPebMJnd0EGoRwEEBRD27EunTrxzFgj8CPWyh9qGCcctiO4gLnzUXU9hgoOsbuPQ4CheO3Iarxw6hZ5cAaRkO3lw7Zzl4hKwVIwvbaziwvRV/O6rTzCzRlo8iqnbDh6oOzmujo4l+Ycsd6Xj+MgBfOf4CzgzeRT9xZ49cWDtY2cMfXFjFV/cuoRzN77GjaVZOGBGyf5gEoQ5CEKkNUuYgx+cfR0nxw+Lbcl27dX8YOiB4HajXsUnV7/CR1e/xMz6EpqhK7qEOEHShxGswE6tI1P0kStZMK3Nhz4UQFAAoaPnkPpw91mAGQtuM0B11UOjXoCPYUR6uusqIfIhmzNsHB4cxzsnXsaZg0fRly/tWKx2u3eG6WTL5TWcv3UZ71/6HF/P3YaRMmPatrtw1jcvVcBBCFszcXJsCm8cOYuzU8fEtkwJ7YZNbFtZx+c3v8an1y7g+vLdWGBHXUIXbwk4iLwAZyeO4PunX8PpySPozRcF1HbDRqAQz9sr+P2Fj3FnbQEOhaESbiCt1IAVriJlr6I0QNEi9RGbs7sCCAogdMMcV2PYhgV8NwK/yLUy89J7ERr93QcOwgipSMdkzyDePf0aXj1yWmLi3bYxzW+lvI4PLn2O9y9/gYXamojAulqBH0ZI6yYmSkP4/qnX8MKh4xgs9nYN8EruMYWMd1eWhEn449efYa6yChd+V9s2IisTaZjoHcI7J1/GWydeRilXgLFDAsSdnP+L66v44PJnYtu7lRWESZ0PqbxYhqUvIN/jIVc0YaU3BxwVQFAAYSfnqDrWU7YAC6q5DR8biwGaTh98vRfQyB5sboXwNIYrufhegJFCP944fAo/efntrnRgtIUsxoMA00t38en1C/jT5S+w3ChLTn8XmfTebaNtzQAYLvTh7RMv4c3jL2Gkd6ArHRgHzToKd1cWZaX78fULWKpvCIuwVzT9Y+d/BJghMJAt4YcvvIFXD5/GSM9A17AyD449CAMQJPzjJ7/Hp7cuYa1ZA8yWbSMHJtaQMldR6I2Q7YlTh5+0KYDQNQBBa5U4jeNy/OITcd+vM0vxr3HvpvK9uIZ6W43uJ93tffS+ZA/fS8FKbHH/AuIc9/vVxGJbdccW54cn7mZ3x+S5IRoVhhd0uOGI1DvotiZLDC3ofoTvnXgJP33pbUwOjraKx+yubbZzdBZVuj5/B/907o/4eu4Wql4Dmrm5Vdd2ztvJvnHVyRB5I40zE4fxy+/8GBMDw7CeUqZCJ2Nt/yw1CRQu/vrDf8OF2RvwmBZwL5d/q0fd+f0iL0RPOoeXDxzDj154E1PD43uu53jSVTIV8urMLbx38RN8cuNruEZsW/oJLarDDGdQ6KFg0YaRgIfHHFQBhC4BCJZhozc9gqIdU4Pl5hrWGgtwgrrcPoKDwdwE+tJD8KMAS7UZVJ11+JH7pDmz797XNAMZM4ue9CAMzULdq2DdWUIQenIthm4hZxWRS5Wk5GvDq6LirMJrvb9XF8x7ZGhsvWoIuAtCHyHTunZxa1R9VNciNOt5eNoAoGV38WydH5q1DlIwMF7sx49feBPvnH5FqsxtZvXS+dl2do/1WhmfXruIf/7ifdxanYeRsrqKRZCiRn6EUyMH8fbJl/Gd4y8in+6u+/+oO1KuV/HeVx/jw6tf4tbqAgIj6qo5IeDLDXC4fwy/fPNHojvIZ3I7O8F24Wis9cFS2O9//Rn+9fxHWKivxWJbsgWstBjMI5urIt8L2FlTuj8+blMAoUsAQt7uxZnB72CkcEjAwGJ1GvOV26h7VUF/LGgy1XsaE6Wj8HwH11cvYLUxDz+MAQKrbvHvhl8Xh8kSammrgP7MCGw93bYa72xWRgjg+E1sOCviqJPzdXaUzj6dMtLoz4zicO9ZpM0MFmszuLL6ORw/BksZq4DJ0nEM5caF9yVYmi5fQcOtdHai1qf55cmnejGQGYWhmVhrLgo4Y3OVzW5kNPJWEUW7X8ALa9PzGOvNpbjVirAh/DKG32KGNnuOBz9H0qS61kR5xYAXjSLUWBCpO4RTyVijIEDRzOLdk6/guydfxuGRyW0z9XwINpsuytUq6rUmPI+16nVkMjYK+RxyuYyA7O2CEOoR5taW8esP/hWfTV+Cw/mwSXHXVu9pJ/tpYYQsUvjh2dfxkxffwkCxZ9vCOdq20WiiXKnLb+kDoOvIZtIoFO7btpNxPuyzLCM8uzyP3134BO9d+hwser2VQj7bHcfD9o/LU0co6Gm8evAE/pd3fi4ZC9udT5It43qoVeuoVOtwXU+kLamUJfO2UMjCsnamTsXF6ev4/YU/49ztK6j6zViwGAWS9mhbq8gU6ij0pYVFUADh4RbomnbPpm5hKDeJdw/+B4wWpsSBlJ1V1NwyvNBtrURDDOcn0Z8dgRc4WKzNChAI2Fst9OGHPqrOGuYqt3G3egN+4GG8eATfPfDvMZAdRRj5aPp1ARKmRhWrKV8Cn6tuaXpnSI88rngDKmChgY6ak3qlMY8LCx/h9sYlVN31h1gzDo/wOsiE0MnGFdraQwCBnMsNHASR1wqPPPzG5FM9mCgdw4tD30XWyuP2+mX8efZfUPPKskNfZgSvjf0YY8UpNP0Gbq5ewNXVL4RFYLOTkE15Ogi90BbH+17F96Z+gYyZxyez/4aPZ/9Z7gPBWlJtjnahfaKHhDMMisQKx3Ck/yyGcwfghk1cWz6PW+tf37ML2Q46nWZQR9OvyX3k/djSJv0WQpSXHZTXUgiMg4i6THsg1+WHGM314n9799/j9IEjyNpsLb31jQ5sfb2K2bsLuHJjGrOzC6hWG/KQHRnqw5FDk5g6OI7+/qI8bLfzUOfcrzRqeO/Cx/jgynnclpVud/QViJkZHaOFfvzly+/ge2deE0e+nev1/QDlchW3bt/F1evTmF9YRqPZhGmaGB0ZxNHDkzh8aAI9pQIsa3tAlLZlVcv3vvoEf/fx77DqVBFwpdsFAIxjMwLg9MiUMDOseZDPbI+ZSYDX7N1FXL8xg9vTcyhXqvL97ykVceTQBI4fm8LgQC/SaTJsW/+OcM+1ahlf3rostr1bXRMtQpzR4MAMF5HNrKI0koZlPz5sphiELmAQuMo/1v8yTg99B2QS6JAsPe4AVnM3UHXLSJtZWZkauiFONnHATtBAubksq/xycwV3ytcxvXEZbtDAoZ6z+OnR/4y+7AhurV3EhcUPQSFLf3YUPZl+eIGLheoMTE1HKU1hk4W6W0bFZcMPA4f7zsrr/PeF+Y9wY/0rlJ2Vb81cOlGu6ofzBzBePIy+zFBrrDEaJsipORtYqt3BrfXLWGvMwwmaj/wG9KaHhT042v8i6Hhvr32Nz+Z/LwwGt5HcFH585H/FcH4C89VpfDn3PtadZbhBU0IyHC9BU/vW/uAU6YZs8R8c/9mh7+Lnx36FrFXEe7f+Dn+4/bdyDwp2n7zGz1a9dQFhBFoPbqaewtG+l3Bi4FX0Zgex3liRz/I+DeTGkDZz8vDm/Vqu3cXllc9xe/1rRAI4OgcJdBBMbaythaiWMwiM8Vbdg+09WHZybz4U80YKp0am8B+/+1McHBzblrJe6NNaHZ+c+xofffwlVtbW4ToEm+y7oElop6eUlwft9995FcNDfdtekbE+ws25abx38Rw+vHZe8vfjHPM93sIIJTOL1w6fxLunXsWJicPbGhDn4OLSCi5cvIEPPz6PhcUV6V9hmgZc1xU7Dg324fSpI3jrjRcwNNQft9Pe5vblzcv4l/Mf4OLdW6iFTlu54G0eeBu70xYpH/jx2TfwFy++jaGe/sc2WNrMqWq1Oq5em8b7H32BGzdnpAMmQZbv+/L9J0g4fHgSb7xyGidPHha7b8e67Fx6c24G//cf/xuuL8+C3Ubi0s8hDH8BaXsJPSMWUunHV1dUAGEPAQIdE53PoZ5TODn4GkoZOpZFcSKTxWPIWDlUnA1xTIVUj4jP1hox/c1QQzHdLwCCK2i+XnU3sN5cEYo8iHwcLp3Bz4//H+jNDOKLuffw+1t/I6+fHnwTR/rOouZV8Pnse7AMC1N9p4QxWKzewVz5Jh+DeHX0+xgtTqHh1fD14ie4uX5BmI32zTazGMyOY6J4VD7bmxmGpadkvOlUTkDISm2O63p5kDNsMlO+jrnKLQmRcDzipHVTQEXJ7sdI7iAmSkcwkBuX9xeqd3Bz9SusNhcFBAxkx/G9g79AT3oAt9cv4eLCnzGYHxcnvNZYwpWVc8J0JPF/siFkNsg8cJy2maxi2WgmvprRwkGcGnodtpHG9ZWvcGPtogAm3gMyInWvjDsbVzBXmUbF/TZIsnQbZ4bewonBV5GzCnGYR9OQMeP9K+6a/O7JDMIPXDn+5eVPMV+9LdfU6cbaB42qi9pGSmofhPoAIum30D0byyaBDnEAACAASURBVNKOF/vw1tEX8YOzb2w7rbHeaOLS5Rv44wef48LFa9KBkGCAQKBcqeH8V1fl9/jYIH747ut49eVT6O/j92brG0EJWYTfffln/MOn76HG1rrdkLvvhxjK9uAXr39fik2RAt/qJkkmvo9z5y7id3/8BDdvzSCbzeDQ1DiGB/uxuLwqTm2jXMGByVH87Cdv4/TJwygV89tiLDje2eUF/PnqeQk1LDXKgLn5Ij5bvd7H7seKiSGQM1L4D6//ED956bv3Glpt9XxBGGF2dh7/8tsP8dkXlxD4PiYmRnBoagKNhoPbd+7i7t1FZHMZvPPWy3j3nVcx2N+7bZZmfm0J//jpezh3+zJWauVYZKsBerAE21pCaQCwcwaMx9hcAYQ9BAhcHfdnxnCs7yUc6jstfepur11EzdvAycE3kE+VBABUnDVxVKTo5yvTsmo+OfAaBnKjqHobuLz0GRZr0xKSoLNhuIFocap0Gv/u+P8pYr+vFj7A+3d+Ax0G3pj4C5weegMVZx1/uvX34jzp2Pj7bvk6bq9dFpByZuhNDOUn0SRAWPoYN9YvCo3PjU43BgeTODn4Co70vgDTTAmgoVagNzOEgt0joOXS0ifIWHkcKB1H1sphqTaHS0sf49Lyp/I+HTmdNo812XMcB0VfMCGvkYYvu+vi+Bcqt8U2uVQPjg+8AkPTcXP1IqbXL+PsyFsYyU+JI/5k5l8xXb6GRiskwbHSUU+UTuCl0XcEvNzPkIgjITmziL7ssDA0G41lAVrSmz0K4fgNAWXUfcxVb8j9eHBLGTZeGf0hTg19B2kj08pj0EQTwhAJQZzF1fTQG5gsHhVW5frqV/j/2XsPLjnOK1kwynvb3nsD7z1BGFIkRYmizIzGyMx7+37WnrP7dmb2zcxqRtIMHyWKFgABwnvTaO99d3lflVl74mY3CIoEuhvVAIpifjo4pIiqysxbWXnjixs37tXpjxCTz9sYi0DnxEQ4i0TMhVw+iKKR+oMyUtkXAWNBRU9tC97YdRRbmzvhKYGm5S5raSmMP3x4HrfvDiCZTKO5sQZvvfGK0LOkxX/z+48xMTEDh8OO3u42/PD7x9HZ0bJuU5gnJQAe++zdq/j/Ln6IaD5VHuY+eRWN3gr88sS72NLYWhJTwtJCJBrDBx9+gU/OXILJbMbuHT04engXGuqr8bB/DGfOX8XD/lF43E4cObQLRw/tRmdHszYlsISVSKfwYHIY/37hQ0zHl1DcgMtfCYd94lvJzJlhQK0riHf2n8Dx7ftL2snz3kmm0rh7bwj//vuPsLCwLMDglSO7sXNHNxaXIrh45TYuX70jmo/tW7tw4vh+7NreDbe7tLJGJBnH1cG7ONt3HcOL048AgkGNwGZahsvPkdAmWKxP/g51gPASAQIZBIrauGNmIraarJImuAMlXc963HJqFouJKSkNcDFpcbHbgQmdYCAlICKCpfQsllIzUt8m5SoAoetXQnlPRAYwFLoLp8WDtsBW1Lqb5XWj4fuyU65yNgqdH80uYSk5i3Q+LtS420KQEvsaQOB7mr3dwny0BjT2YSR0D0Ohe/DbKgTwBOzVWErN4srUh0LLt/h7saPuGNwWD2ZiI7gz94XoGlg6sApAaBTmhHV8liq4407m4gI4qAcIpeeRV7NSbqFOYTE5g5HQXbnuZnnfDvhsVZhJjOLm7BkBO6vtjyyZEHC4LD65XnZKUIvBmLM80Orfgr0NJ+U1N2fO4sbMGWEvqMtgnZBlHcaE+oHVborHnzK8/kMNb2BHzVFYzA4pcZB1mI2P4tbc5xIHfl8tvh7RmrDsMxEdwMfD/4bF1PTXSiJrPfwKeRXxhRySKS/yagWKRj5MSntYr3XMDf09JyfnFBF5/eTI62isrC2pRYyTAicm5vAv//EBBgfHJVHt37cNJ17ZJ4Dgxq0+fPTpRczNLws4rq2uwF/99A3s3tkDu00baVzKutJ/B/917QwmI4vIYWV8cSkfWMJ7xftANaAtUIt/OP2uJvws4fpSqTQeDozik7NXcfNmH9weJ95+8zgO798ODtz89OwVXL/1ALOzi7BZrWhursNrJw7i2JE9Je9yydAMzU7i//r43zERWQSsLxfkcnaEw6iVxb636zB2t28p4ZsCeH3jEzO4ePUuzn1+DdFYAgf2bccP3jouJZsbtx/i8wvXMTo2jWw2h9qaSuzfsxVvvXEMlRWBko7NqaUcQvbBrQu4MzEIleCLXfRqAhZDGE5vHG6/UcoMT1o6QHiJAEEoZ3s1Gr0dIih0Wj2wW5xwmT3SwkcwwFZGlg+oKeAO1G5xg3Q2KXvuvJnArEartPgx4dxbuCglBu58vwQI1ULpT8WG4LEGUO9hKaBa2IbZxLjsxJlYWS9n2YG7dSZDMgA2swvJbOQrAGG1NLKn9lXsqD0i5zW4fEeYApYgOgI70R7cJqzHTHxMRH9U81c667G95gi6qC0wmDEafoBLUx8ICGL92GH2SImB7Mb26sOyy2cHA4GMzxZEqpCU9keCKrIC1Fuw24PdBmz/rPe0IeioQSwXxtWpj4WhIKOwKip85K0geh1tTjsZA4KHLZUH8VrnzwWcXZj4Ay5Ovi/XzvMhO0AmIJSeRSoXf1QWefxHZTM5cKTpB9hdd1ziwZiNRvowsHQTU/FhATm8xmpnE97o/Ds51/nkJM6O/h7TsSFhbDayCjkVkbkMUukACoYaQIYylZYEN3L8NV9L//pMAUc6duDvTv5QKPBSataJRAp9/SP4j//8BGPj0/Igfe3kIezZ1YP5hTA+/vQihkYmRaOg1XQ9eOcHJ3Fo33YEg/6SWYR7YwP48PZF3J8ZRUrJfjk1b81AbP4LmHRcBit6apvxt8ffRnNVXUkHYdK6eOkWLly+jeHhSfj9HvztX38fvd2twsyQGmfZgSUeWvS6XE689fpR/OCtV0UcWuoan5/B//3JbzG0PPPSx23Ts8NndeJQx3bRdnTWt5R0eYqi4s69fpw9fx337g9JDE++egA/fOtVUJdw7sINXLv5AIlEEnytw27Flt4O/OJv3hZhaCmLZaPZ8CL+89KnuDR8F0WCLwEIaZgMYTicEXiDBml31AHC1yPw0rsYNAYhiCZvt2gCuKukap+7adbCZedayMgOPlGIwm5ywmn1SvfBUmpavBK4cyXAkNp55D4uT/4Ji6kp6UT4EiDUCFPQt3hN6vRM0AQkTLwsT9BTvM7dKgwCwQh1CNQd1HvbRKRH4eLjJQYmw1p3C/bWnxQhYyS9iAsT72MkfF8Yh30Np6XWz5ZI0uj3Fy4jml2E3exGi78HBxveQJO/EwuJKXww+M+Yjg/JQ30VeGyrPihAgomdLAG7HqpcDTAazHDbfPBaA9JGuJiYEbqfSZ4dFHaTCx4bhZwWjEYe4M7cRYyG72qdGoDoPVi6oNaByVrTH2iMTJOvC3vqj0vZhDEZCt2RsoRHRKNkcuYxtHwH4cycsAl/vhiT4y3vYk/9q3KeZHJuz5zDvcVLkvxXhYhs33yt4+cSfwK5q5MfS6cDSycbWTRICk+nkc5WQjHWrpQXygwgZBUc69qFX536EXwu90Yu72uvDYWiuHmnH+9/8DlmZufR1FgrD9lg0If7D4dx8eIt5HIFpDNZZLJZeD0unD55CEcO7kRjQ23JVPjgzLh0M1weeYBYPg1jidR6KcHgxEafzYWdjZ340aHX0FhRXcrHIRSO4sNPLuL6zT6hwKuqgvj5z96Ez+PCF5du4dbdfmnP491FoMZ7maWdn737+qYo7icX5/C/zv1v9M9NIoVcSULWkgJBiF0oIujw4OTWfTLwqqmyNPBFV85LV+7g07NXMTE5K4zCqRMHRUR7+04/rl6/j9n5JWFiWDYrKAo6O5rwP379UzQ21JQEbKXjJxnDv33+R5zrvwmD1awZUqlZGBGBw7YMb5UBdpcOEL7pvnnpAIFwjrv2Bk8HtlYfEqEc6XPuWPlPGUWr5CRZx3Mhoaj53zP5FG7PfS6MgMvix5GmN4URIINwbeZT2ZGr+BIg+B3VuDN3HufG/1PicLjpTUnATK5nR34n4KK3er+AjanoIEbDfcIu7Kw9JufE4z0OEEjvb606iK7KXcJIkJ3gjn0uOS5mTidbfyIlEp7HzZlzGIv2Cd3OxM2Wy9PtP5fSxGJyGn/s/0f5e9L2vL4GdzvagztQ7W4QYMRBJG6rR2MNRKlulh0/kz7LFjw37s5ThYT8NzIM1e5m2eWT0bg1e+6RCJBiSpYAahhni1MYhFXXQzIHFdQgiA/CkpRa2C5JoEXWgNqPoeVbWM7MiS7iawDB7MSrrT/G3rqTAmz43dyaPYv+pZtfYRzYsXKq/a+lhBLLhXBz+hyGw3cfaTvW+4ArZFWEppNIZauhmutLKi8QYFlMBFla6yuH6PBB9WV5xriiLqejZVFG+K6lmGAt15Qv4lj3Lvzi5A/hdZYGEBYWQrh6457sZtl+x1bGH719QtT29x4MIRSOIRjwgkCCD1zWb185uhfHDu1Ge1sDTCUOLeI46At9N3F+4BbC2QSM63RVNEtszQJieV/kFQV5DilaUcfynuZrWCGgDTH/PHWxvbXATiQP9rT04O19J1AfLG2nubQcxv/+4HPcvTuARDKN+roqYWfiiaSUF5i4qqsqRMxGhiGbzeKN148JQGCc1zv450nXxZHF/3b+j3gwO4YkO7TWAb4IVgjybWaLMKCKtE3mQfW+jGY2aBbD4rdqMKwYl63ta0KAUOX04bWdh7CvY1vJsaW+gyWET85cwXIoAofdjgP7t4lu5uPPLmFqekEEoRVBH8YmZhCLxtHe1oz/41fvoqWlXroZSlmJdBL/9Nl7+KzvGkx2q9ZGSsOkYgx2yzy81UY43DpAKFOAoJ0WKXkKB6kriOeikoDYKih9+HzAGCxSQigaVBiKBqTySVyf/lTq99xNv9r67kpNux9Xpz5BKDMvJYhVBsHv1ESK58ffkwf7wQaKFA8JQDg39h7sZjt6q/bCaiRAGMJY9KHs/ndUH0GNpxnpXOIrAMFvq8LBxtfFq4BljuHlu7i/eEXaC8mGvN7x1yKgpFL/s5H/kN00AQBLBj5bJd7o+jsRQC4n5/DR0L9gOHIPuUJahIw7q19Ba6BXznMyOihGT+yO4PsHQ3cQz0RgXrGcVuhWWCxIIqcWg9dsJZNgcckun90PC8nJRwnaanLAbwsKS8BdvvYAkcZ2tAR6cbDhNQFgd+a/wO3Z8wI4NEfEvLRPaiJQehd8/UHDzzzR+hPsrTuBnJLDw6VruDd/CVOxgUeJlt81OzC+3/1LYRCW0/O4MvkRhkN3kch9Xfj4tAdDIatgeTKJdK4aqoWGUc+mP2By8tqdqPdXocLjQ05RxBxoMR5GJq/5NDitDrhsThHvx3Mp2aHnVzQxTzpHgghkFbzSvQu/PPVuyQzC3NyStN99du6qgAIyCKdfPYC+/jH0D47C63Hj+NE9GBiexLUb98Qs6fDBXXjl8G50dbWU7J8/Oj+FC303cGHgNsLZ5LoAAoFshcuLOn+FDPjJ5HOYjy5jLhYSDwAW+O1mK/xOD8xGI+LZNCKZxNPbXumurCiosLsFIPxw/0nUlQgQFpfC+P17n+J+3zCUgoL6+mrU11UiEoljZGwaLuloaBRweOXaHQEMr586jJ+8cxp+v7dkdmZyaQ7/eu4P6JsbQ1rJrcvS2moyw+twoyVYC4/TCdbbZ3jfJiOgCRM9IRxmK1xWhzxL0vkskrn0mgDMUFBR6fDhe7s0gFAXLI2dIUD47OwVfHzmsrAvZLwIwKwWM/oHx6AUVNTXVqOiyo+bt/rk3masf/337wiIKLWEQxHoP372n/j0/lVYnPZHAEEMk8zz8BMgeJ9cJtI1CC9Rg7D6cO2u2Iejzd+XercY6BQL8Fh98qDQ6HPbitERzXVyXwEIfM+p9p8JQBgJ3cfFyT8imlkCDMUVgPBrBJ3VmE2MYTz8UHbxTb5OodpJfZMtID1PCp+7Z/ochFILKBTzqKQLo8kp/+1xBoE+BcdafiB1dGoW2GY4FL4Ds8GCzuAO7G04JfT8wPIt8ROgjkIMmkxW1LiacLLtZ+iu2CPA4YP+f8JotA8FNStuhsdb3kFbcBty+YyUCdhZQEElHSUfzF+WHztZCJ4zk/eXbocGYRZYJmHXAdmDqdigsAdPNiMyPjJB2lJ1EN/r/BvRIFyc/ADnJ95Dnu9dp0cB43Si7cfYU/eq6BVuzXwuIIECxFUNBM+tzt0mnSVkEMhKnBv9nZQYUoWNuUASIISmUkhnq6GY64CvGFOtb8/hstrREKhBT10zmitq4Xe65QEaTsYxG1nEZGgBc9FlNASq0FZVLw/eu5PDmIzMS1vc0xYZBOQKONa1e1NKDPOLy7hy9R4+OXNZGARqDGjcwwcqnRS7Oluwb/dWXL/dJzs2t8spIjq2jXW0N5bMIIzMTeHCg+u4MHQHkXUABKfVju6aZnRUNwj48jjYhVSQ2M5EFjGxNIdYOgmXzYG26npJaCPz03g4Ny674CcuAoSCgiABQnM3fnjwJOpLTGJkEN77wzlpHWV/fiCglTHp9kfB556dW8RfYmp2Htdu3Bf3yu+9dkQYBLorlsogECD8y7n35dpTav6pDAJBPUFVd20ztjV0oMYbhMvuQLaQw1I8irnIIsaX5pDKZ1DrrUDA5UUym8ZUaAHTkUV53dMWGYRKhxev7TgoBkn1JZZvCBDOnb8mJYZINC7xslrNSKcySKYy6OlqFUBA06Qr1+5qXQ5tTfjvv3xX2kxLZRDiqQT++cx7+PTBNZidKxbnxSyMZBDM8/ARIHh0gFDWDEJvxT4caXlb2hFZb2fHAnfT/JGSQWDipq8/hYM0GKJ74L2FS1hKTIvvwIHG10TV3798U1gC7ka/7GL4tVDnrHdzx8rWSf6hCRB3w2yxI7XP1j+WO9i/n8jHoag5OEwu2V1TY/BVgFCNg41vocHbhnQhgYcL1zEUuYsqRz121BxBnbtFa79cuom7818I6OGiBqAjuEt26tQ3sF2TJYbp+LDsyinMPNDwPXRV7JKyB+cvUC/A3TmFk1PRAQQctWj192jGRbmoxIKLpQIKPgOOShFK/nHwn9G3eOXPvneKEs1wmr1wrWg9yCFwscPiQONp0Wjcnj+Pa1OasJIAYz3zFFie2VN3SpgYlj7uL1zBZPQhYpnQI4DiNHvQ4t+CU+0/FefMydgQPh76V8wmRjfshbCqQchkKlEwPZsGocFXhUOd22UnarVYZYdrNZngtrvAYUUTy7MYXZxBY0UNOqoaBSx8cOci+mdH18EgFKWL4Wj3Lvzq5Duygy5lkZ69dfuhtDnSjY4PTqeDlsoGtLc14dC+bXB7XPj84k1cunxbHsSnTxySlrymhpqSd7lUg59Z0SCQRXlaiYG/vWpPAG/tPILe2jbpo6c/PksNDptd2IOhhQksxVgHtqM5WItYOoGrIw9wffyhxi48ZREg+K1u7GrswLuHT6OhoqaU0IoG4aNPLuLWnX75d6vVikxGK6O1Ntfj7TdfQSTGBHYP/QOjYhH81vdewc9+/NqKBqE07cvk4iz+19n/jYcLE8iwc+gpo5QZQ4KCV3v2YG/rFgHwBK7UUdmtNmG9huYnBIjVB6pkNsXY4jRujPZjbIkdXmsBBBVBh1c0CAe6dpQsAGWp7vLlO9ImOjO7JICLDBA7Fghyv3f6CBobqnHp2l3cuNmHaDQurbn/49c/RlNTbUndKU/TIJgRgd2+BE+lUdcgPOHXUwYaBO3Muiv24lDTm3BZPdJiyN1ylate6t9Wo026AbgLJZ3OHwR3IjQbWnXpY1sh6XAm5MtTf5K2wUc+CGxzdFTj/uJl3J79HDXuFknsTMDzySkxBSKAoK8ADY6m4yPSEskyB7sJmMgIGr6mQag8gJbgVmkLpLESafJGTwf2NJyU9sEHi1eFYp9PTki5gomZ9PrOmlfQEdwmDABNjsh4kEng4ms81goRbNKXgWwDywVkIMbCfdIqGHRUocJVj0QmJG6ENF7iosDxYMP3sK/hpJQ6Phj4f9G39FWAwGOyxNEa2CYgg8ZJ0g1CGt3sFqaF5yB6g9Bt8VigjoIsCa/haUCBx+fn+ewVwmwQkBHAFFb0Cvz7Cmc9eiv3CogiECFzcGbktwhnta6TjawvuxiCKBiqn6mLobOqESe27kWlO4DBuQn0z43D53Cht74NzRV1cFpswijQapcP3vtTw0KxT4UX1raIplYhW8Dhjh34xcl3EPRog7WedcXjCTzoG8Fv3/tUxF6yk7RZEQz4cHD/dhw6sBMzsws48/l1UY37vB68/dZxHNq/XexrNRe5Z193xwbwp1sXZLJjijT4U+rkTGJ1vkqc3LIXtb5KKdfcGH0oLEJPXYuwMUxoAmyLGv19ffQBbk0MYDqy9JWS1Ded8aMuhppm/M3x76OlmhqUZ19MShcIrK7dFQtg7bdolDLO/r3bsG/3Fik/nD1/TfQdZDXffP0Ifvj9E7DZ2D3z7IvPs/GFGfzPT36H4eUZFNawsl5lZrrrWuB3uDEfWxZ2wGN3YktDGxqDtbBwWBqKok1I5TK4PHwPFwbuIJ5LikjwaYtdDF52MbRrXQxdDaV2MSgiRjx74ToeDoyJMZLJaJBOkZ3bu3H00C45HQJf+kyQmaOHxy//9odSiihlaV0MC/j95U8lBkXLl10MZkMETmcI7qBR72J4QpDLBiC0+rdKRwB9AMTpoFiE0+Z9RG8zeZCCJlVugklYBIIBJm7WzAkUFIXDgRYwlxxbeS2+1CCISPEC7s5dwLaaI6j1NIko7s7sBYzHBkTBT70Bd8FM2vRLYGKjLwAFlNyl09ho1SiJO/oGdwd21h1Ds78X2XxC5jXQwKjSWSsljmvTn0qbIWv3ZOkpHOyp2CNGQQF7pQgb6TXAzgcKGLWlDTWi7oCAZX/9aUna6VxS2jGpj6C40OeoQCS1IABkMjaoPdAMZrza8mOZp5DIRvHB4NcBAhmanoq9UsIgi0IgRhMjWiJTa8HETZaDXgv8DFpYL6ZmxYhpXISWiaeABIOwMgQYLINwFoYKDdDx+yHDQyDINkjO0yAI4fkTxKxaSG/kYaD5IJCm9CGvVGo+CI/GY6/vk3wONxoD1eKkuZQIYykREa+CCpcPQZcXXocLDgvLW0XEsknMhhYxFw+BI2XXXPRByNMHoRc/OfzapvggMHn9y2/+gP7BCdmFsTZOAHD0yB6tp/xmn6juR8anUVnhx1//9A3soQ+CeNs/OzjhtV6mD8LVzzAVXfVBeDLgYHJl+abOVwW7lexBGrORJVjNZgQZW7cPfpdbqHKWE+ibPx1exHIigkwhvyb4Wp0V0BqoxX9/7SfoqGta8+t42gtSqYy0kLJWzr58GV7mcuDA3m14/fQRBINeKe188tkVsV2uqa7E6RMHRARa6kwGfo/0Qfifn/4e4+F54CmmPbwGs4lA2wuv3S2gL55JIpZJCjtTKXH1gve1w2qTZBtKxgRAzMdDj7xknhYLAgiH0YbemmbxQdjbsbWk2PLzxsZncfnqbWl1ZEsp78f2lgYBsCyNTUzO4De//QhTM/PiTrlnRw++/+ZxVFZuhg/CGD649cXXfBCsxhCc7gRcAd0H4UlfsOGNd/++OG3fgkHvLuT8LYCpNDTM5F5lWsAB9+/QUj+KQK3tqcNHSIuzLs+6dHflbtmtM3HRbZBJmIkmk09IGYC7UTIJ9EpIZeO4MXtWbHrFhdDkEI8BtkhSSEeRYboQ/wpAoO8/OxQ4EZLv4Y6cLXhM5u2BHdhWcxg2kw3jkQExPCKDwN34NwEEJmO2/3F+AVsS2arJfThr/9FsSBIqyx2h1JxcDw2TSOEzMVfQp0A0DddEDMj5Eat2y6tdHWQ5yF5sqTogTAetiek8yGStxcyMcGp+wwCh3t2Ow01vyUAsWjGzBfPB4hXEskuSvF/v/Btp6wwl5xDJLMl1UdkfSi9gNHwPk9FhhDI0kdJKJutZJqNVM44KbEVP1T4RdrJtlHMx7s5pnhXPMiFz1UkxFWNXC50UvRt2UmQi4C6LqZMq8NWuBQFcVIibzGJnrNG4HPaVW7cmgzcvBV89Nc3ipLitpat0J0XWyt8/i5t3HmI5FJUJeHzIHti7VXZmFIKxjp7O5NDV0YR3f3AK3V0tJYEDgnI+5M/eu4bfXvoY4VwSRZlD9nTAsRpb/oZXP2P1fqEg0WG1w2qyCEDgLndVfb+ee0pU+oUi6j0V+PXJd9Db2CYlomddTKR0qWSr45lzV4U1YqJ69dg+acmjxfKHn1zClat3hLWhQRWdFBnbUrtDaGNNJ8XffPERZuJLa1otS98RW/Xkf7xvtQ3VyvZCWCrG1m62oFBUkcimpCNnvUtMqIoGsbH+0YGTYhFeyuLncQAWbcApBF1YDD1y+vzpj07D4bTj+q2H+NNH5xEOx8R7glbLu3f1yv1dyookYrg8eAefP7iJkeUZLba0WlbZHr8Mty8Hh093UnwiQHjzx39fnLK9PIDAnSXr7jTPYU2erXx0OtR6/f0CENhuF0rNS12bQ5bY3UA7Y+6+2cXA3W6Vo+FRSyJp+C8m/4Dl9Owjq2XtPRFJzKTZ6e5HcSI1CUy+TFqk9alFoJ0xyxfUPGyrOSRiRu5wOc1xJHL/UTsexY70TugIbJP3s9TApMrOg7HIQ3k/zY2Y7DnnIWivEQMhdk5wBsHQ8m1hHVgu4SNUa/eySVJmC+W2moPCllDkx+NTwMj38/z5wI1mljG0dAtziUn5fknh7284jX31J+Vav4lBaPB04mjz26jztCGcmZfuC14rwRBdGA82viEsAFsjB5ZuodHXLS6RfntQgBeFj4PLt+WcnnhTifmS1klhMzrk+6UxFec8sMTCuRosXRAgTUX75QG3UZtlHpuzGDLxPBJRM1Jpr8xiwDPOYliZ8/a1S5JWN3tMMwAAIABJREFUsZX/KolunYJNeQsHx1Gh7a3Aka4dmzKLgSZItFlmXznpWCanY0d2i1iRgIEUOP9ZW1OBIwd3CbvAoUKlLJnFkEnisztX8N61M0ijQPRUykeu3K+MrBZ5mS68ZuPoVw9JgFDt9OHtfa9gd9uWkuZcyCyGfAFfXLqJT89ckdkLdEzctbMH27d2issf9Qmz8wuiuH/ze0exY1sXAn5vSeCLVzS1NIfLtAN+cB1LnMWwCXMutPt2NbYbjaygDjhgxo8PnsKbe47BYi5tKiiHXo2Pz+C9P57FwOC4MBktzfXSdcO2UoKHgcEx0dVQVHvy1f2oqa4oyT6bseUshvevntVmMWTiMLLVl5N7ZRbDAryVhhcyi6FU9q7kH9szfoDhzZ/8ojhlJUDY+VIYBCY17ljr3W1o8HVIcuS4YbfFDScBgoFOiiEpHaTzKfgclZJ004Uk7s5fxESEACGHZm8Peqr2SH2dwj/qEEKZObT7tuMHvf9N3AXZGsm5Dqy5c6fPz6BugQ99u8UhJkOkqAsyETEtDo18H3fwy5l53Jw+K50Kq7MYeKexJCFsh4kDiYzSiklBIj+3p2q/TDb02yuEDSEwkBbKyEOZ6pjMRVZaEzX0z8RPweXOmuNop7bBZJPkPcA5E6lpoejpydAS6JFxyoLMsyGh/WX3YDCgylkvHQ4iUhz4569pEFhi6K3cL6UEt82PbD6FpHQPGESDwPIFbZvZgTC4fFOEogRBnBrJa6BpE2P+NIBgMlgE6HVW7EKTr0OEpywD2cx2sYpmaYjTKckcfNNUyPXeyzLNMasgEVKRjLmgmOpRFDfF8lkECE6zVViEnx97S2rlpTwsSEfH40lcv9Un/vXT0wtSA3fYNTqZOzW2ke3Y3o3jR/aI22KpbWLZfB7DnObYdx2XBu8hayyUdA2b9e0UlSI8Fjv2tfbi+Na92NrUWdJHr05z5MwAUuHLyxFYbRY4HXaZEUAHwIDfJ/MZ9u/dKr4IpSrseczbow/FobJ/bgKpMpnmaOAo7aJJ9Dmntx+SNlKChFIWwS3BARmakdFpEZ943G6Z5shZDSyd7N7Vg4P7d6Cro1nu21J+K4wtW3P/8bP/EvYgZ2DLPIFtEcbCLJzWefjr7LA46MHxZDZsM9ocVz0pSonfy3iv4a2f/LI4ae19aQCB9Xb25rODgOCApQImVM5l4CRDlgK425+MDEp7I1v+OMWRTAITLHfKpIVJ97M9L5pdlp0vBXZM1Bz3/HbPPwjrwN36bHxcPAPWs7hbZ7LlOYUzi7KrprvgN417/vPPYx2edD7NkshKcKQx/R2YIDnBUVoP/0yUxwRa42Jp4aCUJJjkebzp2Ii4DDJZt/l6NZre2ynXzYFKMjVxBSDUuJtQ7WqQkswfB/5RygePL4vRLpMtG71d0tZJK2meHxeTNbs16O7IWQ6R9Lz8cDjGmvMbeH65QlYmOa6Ckm+Ko4A+a1CACEEf38cyDuNG3wdaR/N7epaywleOJ/3wKuLLOcRCVijGJhSNnFJZWq19PffGul/DNl0FqPdW4qeHX8O25i64SxjYxOPywcfWRvrbz8wtifkMSwp8wAZ8HtTUVIi4jp0LpQroeDz2kX965xK+GLiDqdgiVKoKS9QzrDt+T3mhNlTIiFqnH2/vOy4MTalCTLII7GIYHBrH/HwIkVhcnCmpM2DJob62Eu1tjaL3YKdDKYvfYzaXxdn712Xi4HIuAcWgMYkvffG+VQ3ormrCkd5dONyzS7ohSlkyqjyRwvDopADbcCSGWCL1SO9BIS19D2ivTPOpUuNAXcudsX7855VPMZeMrJRuOKkyB3NxHk5HCL5aO8y2pxsxbQZAWL0vS72mUuL/LO81vPXTXxYnrL0Y8rwcBuHPT5qAgSZEtZ5W6f1nYp2IDopATvzlWcv39cgumjvq1YmEBBIU8nE4EXf5bM/jvpxCwkNNbwgAWUhNYTIytELprx0uq9km58DOCg5MYg2eO3rW7tezWD4R0RzV7KwTrkGhko1gGYJOjKz7s4QwnRhFdqVFkom83tWOZn+XeD7k1KzYHyezmsCRtccGXzvqve3ifHhx4gOMRx987VS10c8cR10hQMRl8wrYoMaDZQfOUCArU8ritdS7O+B3VAidyJkL0czihuctrHkORSAeyiIeMiKn1kKlDgFPdkVb8/OewwtIhdPb/mjPThzu3Y2O2uZNgTBkE9hHvhwKI5XKwmI2o6LCJ3XbUlmD1TCwdj27vIDfXfoYNyYGkDUUBByUy4OODI1JhbRTvrn3OAJub8mGULx2jalJIRyNIpnMwm6zSLeI1+sumTVYjS1bE2mxfObeFZk2WODmdhPKC5txC0spTS3CZ3Fgd3MPfnTwJKr9lZsSW342GZlIJIZILCnPLZ/XhUDAD5utNNbg8WvvmxzGmXvXcGuiH3G2gpM94OweMUgKw+1NwRW0wWR+OiDTAUIZAQR+wWaxU9Yof617ISFCRSZ8igM5fdBisq8Y/HxZIRYbVzUnu3PW//kgo1kRywSk79mqx+T+uBDtaT8mHot6CCY7liWo6qfwcXWuwXp+iKsV7LXAAT9LG5xklsmKXAQ9vJ5Hg5YMRjFton8Bh1Xli3kBDyxrrL6fngk8Z4oeyXrQN+KbFo+1atnMHf/q8Rg3Hnc95/u061/VU9C4iYtswWqL6nritpHXpBN5pCJFpJIe5A3UIZS209nIsdfzWu50LUUjaj1BUYUf37oPNkvp0xXlO1NV0IiGXRZ80HL0MHcrm5HAeQ9E4jFcG76PM/euYiw0hyIfpuWww10JvHTIFIoytOlI9y7p2/c53Zty/WSnCBRWbYsZ21IFiav3i7B/iTjOPbgm+oOJ0DxUc/kALzlPxlYB2oJ1eGvvMWxv7i7ZDfTR9dNSW1EftVyuxnYz7lv+FuhhcvbuFbx/4zzC2bg2AIu3Li2WlXk4XEm4A0VpbzSuAcp0gFBmAEG7STijQRsmVAR/pBvrkV+9EbmL10R99CIvaMBhnUubfGjSHrhFg3gyaD4Aa7nwr/MAz/AysUY2cIdskJj8+fnQVMoIthlSkc8Ww2eL2zOc2kt7C9sd0/ECYksG5Ir1KBp95VVm0NAX7DDhYMd2nNi6H221jWJqU86roBQwPDspnQtD85Pi8GegCryclqYchcNgwZa6Vvzo0Gm0VNUJACvnlc5mRNfxhxvn8XB2DJkVZqbczllVFHjMduxo6MAPD5xCey3b0Mt7sQW5b3IEnz+4jhtj/cgZV0eTkz1IwaTOwBvMwVNhFXCwFijRAUKZAYTyvv30syu3CEgtN1VAbFFBJheEgiCKBnt5gQS25alF1LorsLulCye2H0RdoLJk4dfz+i64C5uYn8alwTs4c/86ormkBg7KiD1YvXZ+/8W8IvMDXt26F8e27hXr5TKo5H/j10NRHocz0ZWS5lBLqRgMNPApw8V5IkaV4mcvTu84qM1mCFSVrPV4XpeazeUwtTyPs/eu4M7kkMRWlZZcjnjOwoQQrNYQPAHA5bOuS66kAwQdIDyv+1X/3BcUgUK+iGQ0j1TUglzeD8UUZEGqrEDCaiJj7/4bu49gd2uvtOZtFm29WaEmrU6B14WHN3Cu7yYWEmEUKJ7jFLwyXaqiSu8+xaBv7X0Fe9p6xdq6FOfKzb5Ufv8sCS1EQ7g58gB/unlB2hoVE8t9ZcbMPH7xahE2GNEcqMWhnp042LUTAZen7O5bdvHMh5dwbegezj+8KQPBVIJaaVxQZfaC1bgg3gd2rwlW+/q0SjpA0AHCZj8L9M97wRGQlseMithSDumkG4qxWnNWfMYJj8/r9Dmm2AITmvxVOL39IHa29YgFs8lkLosdLw2CQvEILg/cFe3B6NI0CpyOW8b56xGTIGUcM1or6nCsdxcOdu+SIUZ0dXzZS+zhFQXRVBwXH97GhYc3MRNdQsGgboqnxPO+PqMKWGFGV00jDnRtx+62XgTcvjKKbQELkRBujT7EZ/euYH4V1IpfB7UUKZgMEdhsYXirTLCxtXGdgFcHCDpAeN6/L/3zX0AE1EIRyVgOyagRuawXBWMVYCivOv+qOpw95i0VtdjXvgX7Orehxl9RFuWGmeUFXB26i5sjDyWBJZSMpv7+liyDUoTdaEFbZT32tvdib8c2VHr9j+Y+vKzLoGhuPryMa4ztWD8mQnOgoXS5dC2sGRd2ttJ3wuqQwVp72nuxq60X9SWO2V7zuOt4AWM7vbyA60P3cGOkD5PhBRSMRW0ipnhF5WEsLMJmjcDtL8Lhs8BsWf89rQMEHSCs4zbUX1LuEZBdWk5FKlZAKmZCrlAFxUD75fISrEmpQVHFhrm1sh6HOreht6kTDRXVMszoRS+2odLrYD4awr2JQVwbui/gIAeFvbMv+nRKP56iwmbQhkUd7tqO3oZ21Aa1qYYvmspnSSGWSmB6eR73JodwdfAe5hMR5GnaswlulKUHawOfsAIS7CYrmiqqsa9tC7Y2daDaVwHnS2BqxCguncTU4izuTw7h+nAfRpdnYLSYZZCYJj4swFCMwoJFON0ZuIM2WKzrZw8YHR0g6ABhA78S/aXlHAGZmZBWkIopSCdsyCtBKAb/yhCnMkp2rEcrKizgYC4vtjS1Y0/7FrRXN8Jhs8FusT3XGi/jRK0Bx1tHk3GMLUxLSWFwdhKxXAqKUUWxDAWJ6773lCJMRQN8Vgd2tHQJJd5cVQ+v0w2bxfLcGQWOq6ZgjgmM3Qq3Rvtwd3IYyXwGKt1+v0WszFdiXtSKdmzbDTg86Kprxr6OrWiqrIPX6YJN7lvONnk+vzW5b1V63mSRzKQxPDeBmyN9GJybRCgdRwHsWFhhDqDAWEzCbFiAw5WB08upjRYZj76RpQMEHSBs5H7RX1vmEeCMhnxGQSKsIpu2Iaf4oBqDGx7k9LwvU8oNRc3WyWNxIuj0oKmyFjuae9Dd2CJT+aTFduVE1mrHWut8H58jQUHXcjyMwelxPJgeweTSHBbiYSQLWRTX0fq11rHK4u8VlbPj4LM5UeXxS2y3N3ehvbZJyg5iZLa6Hpu5sdFzl6bnx2Z0iNNlZBkDs2O4Nz6EmdACFpMxGbVcNJa5IHG9F7/itOigmZwnIBbiWxrb0VHXLGZVnCwpS27eZ4cLj8dWJsQW8lhORNE/PYp744OYXJpHOJNAqpCDYlBXD6fNtlGjsBiW4XBk4fQbYHWaBLxsdOkAQQcIG71n9NeXeQQIErIpBelYEZkURwr7pNygzWrY2A7iuV8qn3yqCurVvDYXWiprUeuvRIVHG4sc8Hjhtru06Ydms1Cna3m7U7RJMx6+jgkrX8gjlcsinkoinIwiHI/Jg3Y6tICp8ALi2bQI5uRzN7jDeu7xKeEAbNMjSLAYjPDYnGiprEOtr2Ilrj5JZizr0JOCY74NLP9Q2vo0sykxGdQmKPK1+Xwe6VwGnMrI0co0l1qKRzAbWcTE8jySOcaWW++1e+5LuNQX/lYttprdtd/hltbShkA1gm6vNs7bzZHUWmzp8smYiunUyjTKp52wxhSooNskPSMktomoFttEGDPhJYltPJsUkSdLCtpSOSENhmIcFmMUdnsaTp8BNoKDZ/Tw0AGCDhBe+I9LP+DzjwAfMplkAemogmzaipzCkdxuFMWpcqU5+vmfxrqPwAcuQQJzCbsdCArqA5Wor6hCpccPLxOZxUpNtjxszU9xgGPtmywBjbOYxkh3R1MJLEbDmA0viN6A5YUCNAvwonlz3BfXfbEv+IXCnrAVEjQ9AxwWm/hQMKlVegLwOJ2wW60gsOJrOeL7SYzNKuDSUh2QzeURSyewGAuLWI7JK1vIiQCRnqQCDP6CQNfXvjoCJfolKAaYDSa4rDYR3TK+Vd4APA4PbFaN2mdZi8Z1xqfZPpBYE1dcFZlsVjQcjO0UmZhoGPFsSgyOyHSxDPboexITuyyMagIWYxh2RxYOrxl2t6kkvYcOEHSA8IIfV/rhXlQEOGa2kNU0CZm4AbmCC4ohABgc4N5HM/4pI0ZhharmP4xFjv82wmY0y+7WwqdqEaDDoTiEmp/cx806bS5fkJ0b2/wkqakKskpe/ig8gEHbARfFPbmMYvCcbg5t96oZoWqxNcFqonU77c3pQGoQUMWdq50A4Qk6AQGe+RxMHM++8h1IbAt55JQ88mQXVhypGd/vTGx5S/F6WTYzGmVsvN1skdgSSpF1yRUKEu+neX+szq3he2QMt1pAVilIbAsy0+ax7mW5b1UY6BhbTMFYjMJsjMLhUeH0mGF1lAYOeCgdIOgA4Tk9kvSPLYcIcFeYzynIseSQMCKTsaCoOqHCA5VeCTIvovwS5KpGgU9E8ZFfYVAVPhBlGPmTz5kTF6VTgrMZmK04p2a1VL6Cib4LieuJ95/sUjXL9EcaD2HMtdKB0WSSRPdNi+GkBbHYnosgzqCxMCsvlriW3+304n6KMpxOA2KP37dfuyfXOqNV7E5GbfWL+hqYXbVPTsBoTMFizQo4sLlMsFiNJTEHq6enAwQdIKx1q+p//y2PgDDMBRW5VAHZlIpC1oxs3g5FcaJosIFecUWDBZA5F/rSI6BHoDwjQOShAJwLghyMxRyMhjSs1hSstjwsTnYqmMTnYLMAsA4QdIBQnr8F/aw2NQKruxoNKJBNKCCf4RAuO1RhFBxQYfuSURCBX5mVIDY1IvqH6RH4NkSA/MEKJcFxzcgLKDAjAZMpC7O1CLtrBRhYNUZnMytmOkDQAcK34Vein+MmRUA88RX+AZS8gmymiHzKgFy2iEJBurxh4ARQgxnFogXFVZ9hKSgbZTKovvQI6BF4PhHQdCKsT1Cxq8KEgrghAjmgqMBoUmG1F2F1GGCxGWC2GmAys9zzfMSgOkDQAcLzudP1Ty37CFDtr+SL4LAnNadAIXBQjVBVKq6NUBUjiqpBwARbugwmutyU/WXpJ6hH4NsbAc38gFgcBrFMVmE0KjAaizDx300GmCxGKSMYLUaYntLNsxlB0AGCDhA24z7SP+MvIALSf10oQsmr4nSoMQ1FFAv0FdD83aXqoC89AnoEnksEVsWhbA0lQCAAMJo1wSGBwUadEEs9SR0g6ACh1HtIf/9fUAQ0cfuXSuyV/7tSB9XRwV/QV61fSjlH4LFmEK0beXO1Beu9dB0g6ABhvfeK/jo9AnoE9AjoEfgORUAHCDpA+A7d7vql6hHQI6BHQI/AeiOgAwQdIKz3XtFfp0dAj4AeAT0C36EI6ABBBwjfodtdv1Q9AnoE9AjoEVhvBHSAoAOE9d4r+uv0COgR0COgR+A7FAEdIOgA4Tt0u+uXqkdAj4AeAT0C642ADhB0gLDee0V/3V9wBDQrZq29UfuzMn5ntc9RG833aCjPX3Ao9EvTI/DSIyANxStdxZyrYDAUtfkKL3j6qA4QdIDw0n8M+gm8/AgUCirUnIpCXkE+V4RKd0UFMute5b+onBNs3lSf95d/1foZ6BEorwhwLqZme0BTJG00islqFDtls9UEs0xpJGB4MZ4kOkDQAUJ5/UL0s3khESgqdE1Ukc+qKORUzUFRMUIpmKEoFrFZVosGsVrmyGihFfjE0r2WX8j3ox/kuxyBFatlGX9Ce2UFZpMCk7kAk/xTAw0CGCyGTRnr/KRof7cBwk9+WZy09mLQuxM5fwujXuJdqaLKtIAD7t+hpX4UgVobaJmpLz0C5RIBbf4CUMgpKGSAdAoy1ZEzGAAbFINN/lmEVRvO9GgEtH4fl8t3qJ/HdyEC2mhngwxCycOIHAxIa2OeDQosNhU2B2B1rDAMYsPMMc+bG5vNAAhaieTFsR6bFQHDWz/5RXHSukUHCJsVUf1zyjYCq3MWchkFmYSKfJrTG21Qim4ocAECCEwrBOcKU7DZT5uyjY5+YnoEyjQCq3PaoY19NhA0FLMwIgWjIQmTMS1Awe4xw2o3wbgy2XGzrmYzAcJmndOL+hzDmz/+RXHKpgOEFxVw/TgvJwIsEeTSBAYFZFNF5AtuFFQXVNhRNBAYkDkr//LBI+HkBsJoEFXXBt7wHX3ps8SWoXpRtfBv+9ey0fhqIsUn3bgUB+VhKJJVyMJijMNsSsFqV+DwWGB1mjat7LBZAOHb+P0Z3vjxL4rTNpYYduklhm/jN6if85oRoM4gl1aRiavIpMzI5ewoGr1QjW7AYFnz/S/jBfIwLQKcbMc/xaIq+yf+O0skBqMRZtFDfPNSiyoURYXBZNSwAT/nMYpTNcp/+E4mN9GTrMTyy9gWwUhxYmdRBcyM2xOSE7+bAr8DFIXS5nv4ffD9nPQp0z5fsNL+Zdyj33RM7b7lLt8Ag6rdt9L2s5LneU+aTEYYOcv5ifcuZYpFude1L0q7T9VVrEDh4uPfTbEAo5oA1DgspiTs7gIcbiOsDk2jUOrSAYIOEEq9h/T3l2EEVksK2ZSKVERFLmtDoeiDCi+KRnNZMgY8Zz4YTUUDbCYL7BYrbEaLbKT40DUaDMgrFGwZYTE9GdyoRQXZQgEWo0kepoqiyEOaySyrFJAsZJFT8o8S2tN3a2X45W70lJj4+R6lCJPBKLF1WqywSlcKs3oRZpNZEj+Tms1sfSpAyBbykvP4PRSkRq6Bi5xSQCqfRa5Y0MAGk9lfOIPDe5Z4cxUH2I2MrQ1Wk0U4OUbAZNTGpOcLBVhNZpiMT07cBLcEwVwSQ/4TKrL5PNJKDtmv3Ler7BiBSF6AgtkYgdWWgdOjlR1M5tJ0CTpA0AHCRh83+uvLPAIaOFCRjhaQihmQK7ihFANQDQ5ARIflx7kXueNXigIIvA4Xmiqq0VJdjxp/FQIuDxwWmyQtARFr7P41Swf1UZIjQEjncoikYpgLL2J0YRYTSzNIZNOyM1PYY04x8V+g5kIDXUUYyEorKirdPjRV1aK1irGthH8ltkaj6ZH3BYHY0xYTl9TDCb7UItK5DMKJKObCSxhbmMF0eAHhVFwDYEaDBhT+QmMLBeAvygQjPHYXWqvq0FxVi9pAJXwuD+wmm7AG/M1p9+QKq/WEAH9pO1IEwUI6l0UoEcV8eBFjizOYCi0ikc0gp+a1uEov5ApNVlRgQAZmhGC1JGB3qXAFLDBbnsxYrPUo0wGCDhDWukf0v/82RaAI0NMgHc0jFTchk3VBNfpRNDi55yurKxFKVtVYA6/NgTpfJdqqG1Hrq0CVL4Cgxw+v0w2XzQGr5dnLITxOrpBHKpNBNBXHcjwif2bloTuL8aVZ2Z2xJIG/oK4jVVFRLChwWx0CCJorayXGVf4AKlZi67Q5YDGtMAnPcHd8Gds0oqmExHUxGsZsREto0+FFJHJpwGQAQUgZYtNnuGrZ3sOgFuE029FGUFBZi1p/FSp9fgTdPrlvNyO2ZB0SmRRiqQSW4mGJ7XxkCcPzU5iLhpAuZAXg8r7VQJgKg5qGCRFYLHG4vSrsHhMstmcDCTpA0AHCs/1A9HeVZQSUvIpsUkU8pCKT80BFEEWjU1oWy2nJzlYpwmowodoTQHNVHXrrW7G1qRNVviAs5ucPZmaWF3BvYhj3xvtlZxbLJpFR8pCOz/IjWTb09RkVwGo0wW9zSfLa2daL7S2dArrMT6G4N3SQJ7yYJYjFyDLuTQyhb3IYE0uzCKcTyENF0fTtDqxWUjDAZbIi4PSiMViNHS1d6G1oR02g4rkzJdl8TpiaBxOD6J8Zx3RoAfOJMHJkJx4zUDKoKZgQhtUShduvlRvM5o0LdnWAoAOEzXgm6J9RBhGgAI2dColwEZmsB4UimQOKEcsLHIhoUCnCYbKiKViFQ9070VPfJsDAZrVKAnsRlHReKSCTzSKciOH22EPcHh/A5PK8aBRWhYxl8LVu+BSo4XCbbGgK1mBfxxZsaeqE3+2F02qHyWR67thHhIyKglQujaVoGA8mh3Ft+AFmokvC1AgA+xYuuooaVcBtcaCzphG72nqwvakLXpYSLBbRcTzvxdjyvs3mcpiLLAkAuzRwB7PRZWSKBWFqHjEJxSzMxUXYbUk4vAocXqs4Mm5k6QBBBwgbuV/015ZpBAgOsqkCUvEi0gkb8mo1VJYVHhkdlcmJcwe28pDd3tiBwz070VJVL/Vaq/nZywilXF1BKQhIGJgZx82RB7g3OYxoLgWIwGtjD9RSzmMz3msoqKh0eoWNOdC1E201DfA5PSKUe9HXsprMIok4Rhem8MXDmxian0Qkk0SR5ZxvUWgpHCzmFfisTuzv2IrdbVvQUdskwIuxfRkrl88hFI9iaG4SFwdu48HUCDJFhYKIx0BCGhaCBEcMrqAZNsfGWiB1gKADhJdxb+vH3MwIUHeQV5AI55CO25BVglAN/rJrY2TCMKtG+O0u7GzuwoHObehpaIfd+mTV/GaGaa3PiiTjGJgexZWBe+ifG8NiOqa1Sn5LQIK5aECF3YOtDe3Y17UVPfXtcNkda132C/n7RDqF+xODuDZ8Hw+mxxDNJbXWvW8BSCD4JjiodPmwrbFdQG1HbbPoDF72InChRuH+xBCuDN3Fg6lRxAtpEYeuMglGJQyLMQynJwVP0Aqzbf3tjzpA0AHCy77H9eOXGAGK0dJJBYllFZmMF4qpdgUclM/TVwSJShEeqxM7Gzvw+q4j6KxrkpavcknAPMd4OoXBmTFc7L+FWxODyKp5KN+CREZWxm9xYmdrFw527kRvYxtslvIAXry9GVu26t0d78cX/bfwYHoUiXxGEllZg4SV1luX0Yo9rb14Zes+tNU0wmWzl819y66STC6Dgelx/OnWBfTPjiOl5GA0r7A00gIZht20CG+NEXaXWQY+rWfpAEEHCOu5T/TXlHEE8hkVsVAe6aQTeZWiRO+Kz0F5nPQqOLAZzOiubsQPD55EV10LHDZ7eZzgY2fBHVkym8bt0X4BCQNzE0iqufLubiiocFls6K1txemdh9Bd3wpnGSWw1fDyPmBsH06P4IPr5zG8OI00k5dp/TvaF33DsEXUbbRhR1MXDnXvwJYgOs5eAAAgAElEQVSmDont08yOXvQ5rgIwdpFQk/CHa+cwsjwDlXqEFQBmKCZgwRKcrhScfiPsTvO6gJkOEHSA8DLuZ/2YmxQBRSkilywgukQzlWooxsBKO+P6dgibdBpP/RhRfheK6K5uwpHeXTjYtRM+p7tsdmB/fvI8X7br3RkfwIc3L2A6toyCQXNwLKslXaIqTAWgOVCDt/cfx86WbtFzlPNibK8O3MVHdy5hMrIAk41mWOVzvz4CNIoqvhytgRq8tuswtjd3iW9EOZ4rz1lRVSzHIvii7wauDt/HRHheBKHC0hCIFWOwGObgDapwB9c3SFAHCDpAKOdniX5ua0SAw5dSMRWJiBW5Yg1gLL/kQNtZj8mOE1v34tSOQ6j0+l+I4rvUm2dmaQF/vHEON8b6EcrEYTCXVx+/tIoWigg6PNjb1oN3DpyW2JZrAlv9PigKnQ0t4r8uf4rbk4NIqFnNpKqcQALBV76AKqcPx3p348S2A6gLVpV6Sz339+cLeUwvL+Dz+9dwvv82EkpmpbWUvg0ZGAtT8Pgz8FRYYLatra/RAUKZAAQ6bFmMVphofwoDCmoeebplUZUqWh4DLCabvEYFW10yUFQFRXGp/8tbq/HgdatQUKDFqGYYK7EwGS0wGTRqUikWoKiFR3//MqMhLn/iVK/VXTUT1ue0ikAqlkM8ZEAmF4RiCAAyrrl8VpHtjEYzumtbcGrbAezr3FpWuoOnRSqZSePh1Aj+cP1zDMxPQBETyjLa6aoUfRqwr7UXr27bj96GtrIs23xTjClavDnShwsPb+L+zAgKj5T35XHvUphoUororWnGT4++gfaaRtit5fXb+qZIrbaYXhq4jQ9vXcRkeB5ZFDT2q5iHSVmCwx6Dy5+HnW2Pa2gRdIBQJgDBanag1tWKCkeNOI4tp+awkJxEKh+XJMOE2OjtRK2rWYDDZGwQkfQiCmp2jcQobuglLS3FPcdE97WzM8BudqHG2QiryY5ELoLF9AwKrAUDApQC9hp4rKTTi4hmlxHLLiGnZDd4nauR2ZxrI7gzGywwGs3gPACeL4HL81rEH7GlNGJLZhSMTSgaOba5vGhwsfe1efD23mPY275dzGQ2ewkOew65m3qEpVgE7187g6sjDxDJJR9Th2/2VWzw88SFElIff2vvK3hz1xEBBxygtFlr1fb3ecSWdHgsFccnty/ivRufI2tQN20CYanXLyUxpYhadwD727fhjT3HEPT4Np2ZeV73La9/fHEWVwZu49yDmwhlYihSsEgzJTUJq3EJDlcM3mr7mjbMOkAoE4Dgs1dib91J1HvbZY+8mJzCUnIGWbasrPyvxd+Dek+bJMLxcD8imQUU6L9dJI+gymtj2bAkzGKxAK+9Eq3+LXBZvJrN6YaTvAGqWkAiF8NcYhyh9DxySrrU39+a73dYPKh2NqItsFXAwFxiAoPLN5AppOS9fns1ttccQaWzFolsFKORB1hITiFHOk1cUFcYBU5T+7NlNJjhtvpR5apHwF6FnJrDTGwES6npNc/raS+gaInnVe1sAL/LQjGP2fioxI3fJ4+7yoZooKE0UCJNAQUViaUcYmEbFFMzisbyEv1xF2aFES2BWvz86JvoamiFrQTL5NX4FwoFxBNpzC8sIxSOIpvJwmw2w+dzo7oqiGDAB4vl2e2DH/+eU9kMrg7exYWHt9A/N4482wXKgEVgbO1GM9or6vHG7qNiNrUZi7GNRBNYWAwhEokhm8vLUKaA34eqqgAqgj6J9WYsJuIv+m7iv66dwWw8jDwUTVT3stcKM7O3pQevbt2LLc2dcFhL/22JADaZxtJyBEtLYSTTGeEanS4naiqDqK4Owm7fHJYilUmjb2oE/37xQ0xGF6GKWJFTpQowq/Nw2Jbgr7NJy+PTSlI6QCgDgMBdcr2nHa+0vINaTzPo2JXIx5FVUsgrWeSVvHhsVzjr4bdVSFIje5BR0lD4v0JWWIVYJoTp2LCwC3k1hxZvD060/xRVrgbklJSAB4INm9EGs9Em5QmCCj7wLJyaB45vLchnMZkRWPDmIZtxa/Y8RsL3EM+FvuHna4DZaIbV7ITD7IKFn2/gjaeBEqG9inm5nlQ+IdfEHfafL610YEatuwWdwV1o9HVKqWUqOoiB5VtI5KLyebXuVrza+iNUuuoRSs1jaPkuwukF5Is5ybsEEkz4yVz0a+wKz43v31K9H62BLUjl4rgy9REGlm+U9FgyGy1o8W1BV+VuOf+MksLw0l1MRgdgMzuECWFeYf2VrFAsH0I6H380IGejB1fVIvKpAhIRA5IJFxRjLYoG60Y/5rm+vlhQ4bc5sbOpE+8cOIXGytqSjidDqBQFCwthjIxNYWB4HNMzC/LQtVgsqKkKoLOtGR0dzWior4TDUXor2mq9/Nz9q/j0/jVkUNBEXy95sXQTtLnwau9eAQetNQ0ln1E2m8PycgT9g+MYGBzH/OIyMpmsDBuqra1CV0cLerpaUFMdhM1uK5mZ5Ak/nBrF2ftXRecRK6TKQgjKGQu2ohlv7j6C13cegd9No6nSOi0KBQWxeAKjo9MS2/HJWSSSSfB37PN50NHehK297Wior4LH45bJpaUsbj8mF2bxb+f/iIdz49KJY5ShUWRH5uG0LMBbYxHjJFo0P2npAOGlAgTuLI2ocTWhp3IfOip2wLKSSFwWD4wGE+LZiCRGp8UNu8kpTEEmn4Td4gKTEpPhcmoG6XwSscwyZuJjmIoPi0ahzb8Nb3T9PQKOGgwu3cT1mc+gFBXUeVpR5axDVsliMjIo1raVzjqYTVYBGZHMkhy7t2ovKrhLz8fwYO4KRiL3Ecsuf+VeolaAyc9rC6LO04YGb7vszF1Wr+z++VDnOaZyMSynZzEWfijsSDIfh0KNxSNdgRFWsx0emx/dwT3oqdoLi8GCpfQsQukFYQeWk3MCWGo8LdhRc1hKDNlCBol8RICBaWXEajizjEsTf8RY5L6ovLl4nvwfSzn17jb0VO1Bs7dLgNjVqY8FIKyey7P8MM1GK7or9qKncg98jgpE0yFkCknYTHYEnbUaADMYRU8RSs6jb+k6hsN3kCukH53jRo4r0xpjeSSiNmSyPqjGYHm5JvIJpahoC9bi+BYtiQXcvo1c4tdey91tKBzDxSt3cOXqXcSTKZnZYLGYoCj0gMjCZrOis6MZp08cRHNjbck7Mq2mW8Anty7hN5c+RBq0s908Gv+ZA1JQUesK4mdHvocdLZ0lm/YwUU1OzeLmrYe4cuMeotEE7DYr7A4bUsmMjCr2eFzY0tOGV4/tRWNDLcwUbZa4FiMh3Bztwwe3LmA+GXnpsxpWxzf7zE68e+AkXtt1RABSKYVaKQXG4rhzbwAXLt3C1PSClII8bidyHOOczsJqtaCpsRaHD+7A7p29EvtSxaaL0RA+vXsZV4buYTq+rLWTGgCjugybeQmeoAKH2wTTU6Y96gDhJQIEk8EMr60SncEdklgcVrcwAAQEncGdcFl9klgThRg8Vr/MCacuYT4xKX/P5B3PhdG/eAOLyRmk8jEk8wkk89w5q2j1bcf3u38Jv70Kt2fP4czYbwUgsJTRU7VPavuXxj+A1WRDZ+UuSWakxbnr5Zz3PXUnUO9tlQTft3BNAEI8+ziDYIDT6kGTpwvtwe2odjfBaXZTUgiPxQe71SMMxWxsFBaTVa4nkl7AZHQQo5E+zMZHhCHgIpiocNRhe/VhtAe3wWn1SomFAkS+lw/psXAfXFYPWgNbEXBUI1tIYSo6hNn4GGo9LcIokIGYjY3h+synwjww6fPHbTM74bL54bdVos7TApZrKp0NwjKQQehbuoqCkntmkEBmYnvNUfRW7RMwR4BGkGUyWuU8FxKToiNp8HUIWJiJj2Jg8RZGI/celU428qwt5FUkl3PCHmQLFSgaOXOh9Af2Rs7hqa/lvIWCih0N7fj+vlfRvQm+B4lECtdu3Mela3cxMjIFt9uBA/u2o6WpDsuhKM5duI7FxTAqKwM4cnAnjh3Zjdqayk25pPP3r+M/Ln2MxUxMGw9d4g6vlJNiEmNrY6OvCv9w+l1017fIjIVnXWJilMvjwhc38PGZK1heDqOqMohtWzvQ1FCL6dlF3L77UNiautoqvHbqMHbv6EZlRQDGEtkUDh/qnx7FP515D9PRJcD67NfxrNf/+PtYurEYTGjxVePtfcdxpHd3yR9bUFSMjU3iv94/h/7BMdjtVnR3tQpjkEpl0Nc/gocDowIaDh/ciZPH96OhrgY2W2nW45wAeXusH2fuXUXf3LhYhxMgGNQYLKZluL1puHxGWJ7irKgDhJcJEIxmBB11aPdvQ5O/Wx46M7FRSS6kqh0WtyTkaHpJdumFYkHofv7pCG6XJEm6ejT8AEvJaQEL6UJKhHG82Vp9W/H9rl/B76jGw8WruDr9ibAOe+pPoKdiNxL5KC5PfgSryYr2INkLK+bi45iKDEr5oqtilyTddC6BvsWrGIk8eAQQmHQ91qBoJnoq96LZ142cmsViahaqmpeyhs9WIXqIu/NfyPm3+bei0lWHeFYDNfcXLyOcWRQmwWSyotJRh711JwRskC0hc8CEz/Mia0Jmw2+vRLW7Qcou8VwE4+GHmIoNiV6h0t2AbD6FBwtXhT2IrYAZJmrS/hR58noIrChyJNggSLo8+ScMhG7DYXLCafHBZnKIvzrZB9F15DRdB/UXnOn+TYvXt7fuFLbVHJL3a7qQopzjwNJNjEceCggigOip2CNswkj4Ab6YeF+uSxRnG1iFnIroQhqpVAAFtQpFE2ukZbCzXb0GljtzBRxo24qfH3sLtYFKmEtIYgTH1Bz8/v3PcP/+EEjZdrY34603jglAGByewL//7mNMTM4Ii9De1ogf//AUenvaSkqeq5dzfeg+3r/xOUaWZpBhT/kmigE38LXLS1e1HR0V9fjVqXdl3kIpK58vSGw/+OgLnP38qpQPDh8gwNolmo5bdwZw7sI19A+MweV0YO/urTh+dI8AiFKAyeo5j85N4f/88N8xFp57+QBBUeE20xipE6e3H8T2lu5SQisMaiQax63b/fjde58IkO3tbsOpVw9g65Z2YRPOX7whwJdgoae7FceP7MPB/dvg9ZZm5ZzJZzE2P40/Xj+Ha+P9mlBRAEISZlovu6JwB0xSZnjS0gHCSwQITFweW1A6E6pdTbCZ7ZIM3bYAKh21Qr6Tll9MTCHPefUGoyRMJnm72SHCNyaxvJqVWvp8ckoYgFQhJt/3KkAIOKuEmRgNP4Tb6kOzr0sSJZMfd/OsrwUdtfJ5BBms67M+HnBUgYLBZDb6FYBAcMByRGdgB7ZWH5KyApmAh4vXMRK6L+CA5ZKAvRILyWlcmvyT7NQJgvbUn5RODZZF7s5fxuDyTUnSvHPJYGj0/z60BbeJnoHXHcuFEM9E4LX7pUTA7gCKE8kK8PoJHoLOajEKIftB9iCSWXykcyBT0x7Yga6KnQg4q+G2+OG2+aScQ9bl3vxFYStq3M2ocjfCadZqjqqqIFVIYD4+jtHIQ62rJBeHUtRYj8cXAcKhxrews+YYrGabsBEEFZORAdyev4BodgksQxCknG77K1S7GzEZHcLHw/+K+eSkgKSNLAKEyGwaqUwFCoZqQPQHpdUtN3L8tV7LB6OayeNo5078+vS7MtSmlLNjfXx0bBr/8psPMDwygUDAi6OHduPo4d2i7bh89S4+/+IGFpfCchyyCH/9kzewZ/cWuJylaxHoUPfJnUu4OTmEZCH9Ut3/aK3tMduxta4Vf3X0TTRVlabtSCRTuHtvEGc+vyb/9HhdePcHp3Bg71YR0n306SXcuTuApeWwlHRqayvx+qlDOPXqQRGDlromFmbx/3z2ewwtTiNnoFDx5QFddt0EbW4c7d6FIz270V7bWNLlEdgODU/gwuXbuHjpNuKJJI4c2oV3vv+qaA0uX7uL81/cxPTMPAjUKAJlieHdH5xEVVWwpGOLXicWwm+/+AhfDN5GkewM27DVDEyIwOFchqdixVXxCUfSAcJLBAhMXEFHDZq83Wjyd8Ft88O+IvSzW9yCPkXQll2WZM4kREqfAIEiRCZlI0xwWVySHEnb35j9DKH0nCTHLwFCDWbiIwIGvNYA6r1twj5QLEiqm34CLEMQsLC8wV19KpeA1x6QdsNkNvIVgECQQvZgf/0p6SYgY8EkOLB0XT6zp/IA2gJbYDHbMB0dxo2Zs4hk5uFzVGNL5X78/+y9B3sc15UtujrngJwzwEyCFLNEiqKSLTlI47HnG3vife9/vTvvzp034dqfx0EOkpjFDEYQIIicc+qcu9+3dnWTIITQjQbJhlU1H0Y0UF1dtc+ps9dZe+2995Ufg83olvDA1eH/FsfLgwyKUWcRRuVA5SlU2ZskPEBHOysZHX4lSyO8IMCAu3UyBxRE8n/3zN/H46nrmAmOyn1kDl7DanDAanDKfwloal1tKDaXSwgjhQS0GoMwKYlUEoGoVwASQRD1FBR00qYEEsPLTwV8rD7IGrxd/0McrnpXQggcs2fzD9Az2yE6CoI4Pl+ZtRYftf4cNY4mzAUn8c3I7zHu6UUoHshpMYhHklicDCIULkVCX51mD/JxwTl9/aYnc5eriSZwZlc7/u78j6VyYj6H1+tH19MB/Pp3FzE6NoXqqjJ89P5pHNjXgpGxafz5q+uYnJpDKByRUByFX59+7yxOHjsgu+B8d/yD06O42n0PN/ufwBMJQLsN8fet2iMZT6DIZMeR+jb88MR5VBeXb/VS8jnucK99cw8373ZiZGRSwNfP/+YTtDTVoufZEC5euYvxyRlEowSxKWFovv/RO/jxD87DZMyPBuf3j81P49+v/gE908MIck17gxoPhsVKrE68v/8EjrUeQG1pRV62pZN+8KhHwNfTniEQ6J4/dxyffu+MZDJcuX4fjzqfye8T8YQALrJe//iLH6G6Kr9xpf9gmOHfr3yByz33oGXIgiGhZAQ6eGExzsJZpoXZvj7IUwHCGwQIdMgWvV12la0lh1BuqxVxH3fG1AXwoAiPu29fbEmoazo5OuRRzzPZ6dOBMxRgM9oxtPQUdya+wlxw4iWAwBADd+oPpq7JdfeXn0Rz8T7RKzyavCasBWPyBB4UEE54hwSQNBUz1l+BUNT3EkDgd9a7duNQ5dty7wuhadwc+SOGvU/hMpbgZN33UONoFqdHer1n/p44TKr5qx0teKf+B6Ij4Hf9sfdfMebtTVP3ShZDW/FhHK4+K86ZgIBplrzvcMwvDMWEb0BCM0dr3kNL8UEBTsyQ6J65i4dT1zAdGH4JIKx8w2nbFvd+7C47JlkSdOYEAmRJmP1BxsMfXkIkEZZsDGobGor2yL1M+4Zxf+qKCBoz4sfMtTk2Zxs/lxAJmR6CnoeTV9E9d1vSUjMCyBJLJd5v/hlqnC1Yjszj3vglDC13pVmU7NeieCSBxfEAgpFyJA2FCBCSSIbjAhDIIORb/pfq+vuPnuKPXxIIzKK+rgo//vQ96A16dD3tlx0uQUkwFAZ3xBTUkcY9faJdzqXQLJ9jYIoAoUMAgjcafHMAgcwM2w6bbGivb8VnJz9ATUl+TmxxcRl/+vqGCBQXFpdRXl6Cv/7sQ3FWl6/dRf/AmDhtCqp5Lp3e9z8+I+comSL5WBYgg/Cvl3+L3pkxRDSJNwoQQIBgduD9gydwvPVg3gAhnkjg5u2HuHi5Q1gCajbePXMMJ48dlN8/ftIHry8Aq9WspJVGopKF83//w+eoq6vKW+PBglT/eum3uNh9F3qrSdHOpCLQJT0w6mbgqtTB6lgf5KkA4Q0ChMxrRSd7oOIdVNrrpFKiQWeQnS5j2AQDYSr1o0vQ6wwwaUmLB3Bv4iJGPD2i5D/b8GOU2CqFIeDvudtl+uNKDcJDESn+Shzb2/U/QHvlGYnRXxz4LwEeBA2k70eXezC41CUOVhEpNiEUC4qGIaNBcJiK0F5xRsIAZDwYvrg/fgkzoXFU2RtxvvmnqLDVSv2Cu+MXxPGG434JYRRbyvFh68+xr/y4CCv/+Ox/YXi5WxwohZisIUD9BeP0ZDam/WOSwVBpr2dpQvQtPsaEdxA1rmYBKXaDU5gUk8EqAkhqEoaXn2EpPCPsC59jZXYC7bpHWIwTqHW1MLFSUkYHlzrxZPa2gBZ+Hw8yPGRaGDY4UnMeOo0WN0f/hDsTf1ac/go9AoHHuca/wpGq9yRVlACONu9bePRSSieFmOebf4ZaZzM80UU8mLiKgaVO+FZlh2y25BIgLIwFEIrmBxC4YDCcYtWbYDQYgWQSwXgYkThrSSipqMxyoQKafoDiVe7QlSqR6x+kahPhKN7ZdRj//MHneQMExsjvdDzBhcu3MT0zj6aGGvzwk3cxPDqJru5+hCNR1FSXY2Z2URgGu80qIsV3Th1BS3Nt3rHyvskRXH3SgdsDT+BliCFLBsGoN8CiN8KgN4jdQrEIIomY/JsHna5Rr9RsoDOJJTYprMVUz1gCTqNF4uQ/OfVh3umjDB387g9X0NnVj1AojJqqcrHd0rIXV651gCK72poKAVndPYOSLfLxB2/jrz/7QEnJy1OoODo7iX+58N/onRtHTJOELgvb0l56nV6aVBl1ZFQTCMXDiMbjYlv+nayRXqOUE+Zcjmczb+MJlJjsoj84vusQ6vJMzaVW5so3Hbh4+Y7Yk/Py8KHdMlcvXL6F2bklFBW5UFZaJDqapSUPmhvr8D/+4TM0NdbknSlCgPC/Lv0GF7vuwsBQm/RliECX8ECvm0JRpR5W5/rp0SpAKACA0Fp8GCfrPhYHSUEcnRp3rNKIhfUFdGYBCox9K2GHFwDBaSzGuabPUWytwMjyM1HkL4Vn01kMaZGilSLFDtwd/0oWJdLgu0qPSDjh9tiXcv3WkoMwak2SETDm7Zc4/55SpjlWSdx9pUixyFwu90tgE01E0Tf/ED3zHcIYNLj24L3mnwgQ6F/sxMXBX2IpNCNOknUR+Fwftf6tOGimLX7Z/+8YXH4iwKi56IBkdDAbwm50CrtCyp/hFBZsouyPdRQiiZCAGmZkzPpHMeMbRbWrBdydkwXhc1G4yR/u5JUKjKz1YJRz3qp5T4SQrPNAAejD6evCClAL8TKgUOo7HKo4i3PNfyWMwoOpy+iYuCiVG1dWScwABDIIZB+6Z28L4GBoJwMkMiGGT3b9A2qcrZgPTkk6JutLKDqM7I9YJImlyTSDoKvaUoiBC6hFb0KJ3YW64nKUOtyIJRKYXJrDjGcRvkgQ0UQMLosdbqtDAMK8fxm+cEDO2xAgJFNANIGzu9rx9+d/nHcaHkHBrTuPcenqXRHUMcTwzqnDkrM/MjopmoNzbx/F094h3LzzCDabRdiDd04fQVtrfV4CST7n4NSYhBhu9XdKRcXNAAIdv9VgRqWrGNVFpXDbnKBif9qzgKnleQQiSql02r/M6RZR7GLAhzn/Eti+d92DBRQTCbhNdhyub8OPtyHEQN3Gb35/SUI48VgclVVlKHY7JNVxenYBJcVuEYKGo1FJLyVD8+H50/jJj9+XUE6+7MzY3DT+/doXorQPZRFioG3tJgvKnUWoL66E02oDC1pNLs9hxrsElsjmZOU5DpNV1hBfOAhP2C8gbKPjRYjhOI5tB4MQT+DS1Tu4cOk2mIVTVOxCaYlb3iXWQjAZTaitKRfG696DbgX8Ntbin37xIxHaMv1xqwdnkS/ox79d/j0uP+2AzmJUinwRIKS8MBtn4CzTwaKGGNY0sebjz/8uNVEAAIH586TdKQqMJ+NS64ACPe58+TJwJ0tnxB0xd7crAYLLVIr3m3+KYlslBhY6RRUv6n1NKs0g/CNKrBVYDM9gLjAhIIB5+S5ziQgASalzB0mgQYcRivnhi3iksJFNz4IdWiyF5l4GCJYKnKn/oVR1pEr/ycxtcfLMAthVcgT7Kk6KM+bu+ebYF+kCRxQom6VWwrmGzyWtkvfzRc+/YMTbI1oDZj1wx87sDWYrcOfO+6TmgI6WGg0KOQlKaAtmJzNrg9fxhBdFgEnHy9TMKFkPahJmbyjONwWpN8GwSEvxIbgtpYjFwxhe7sH9icsY8ryombB6thyqOIPzLT+FWWfBo+nruDdxSRiKTOlnnm/SkUH4XMBXKO7H/cmreDZ/Dwuhyee7bYoUGWL5pO3vUe1qxrR3WAAU2QZ+JpeDIsWlSUWkyCJJ0EijgFwuIY6/raIO7fVtqC2ukAWVfj0YDWF6eR79M+MYnp9CY2kVdlc3IBSN4GZfJwbnJxCNbyyqJJBNhWN4p+1wOsSQnwZhdn4Rd+914euLtzA1PScAgDtdj1fJ19+3t0Vy9O/e78K16/dht1tx9u2jeOdUu+zE8lXbPxsfxMXOO7g/8gy+eHhTGtxptuFo417sqWpAhbNEWgQT8PsjIcx45tEzNYIFnwc2sxW7KusEIHRPDOHhaJ+sARsdBAhOgxX7a5rwk1Mfoy7PODkr+33xp2t40t2PYDAEp9OGWDQGfyAkO9533zkqWoO+wTE8ePRU1Pbf+/Ad/PXnH8o45M0gzE0JDd47O7apSJHrkc1olv4TR5v2CXC1GE0S9lgOBzC9PIeeyWF4QwHUFpejxOGCJ+DHwOwEhhemQGX/ZswXRYpn9xzBqV3teRegIoNA8eylK3el6iftRR9NsMC/HTtyAK3NdRifnMade08wN7eI5qZ6/F//+DkaG6rzAl9Kd8cl/PLGl/im9wFgZItnRaSoxzLMlrRI0aZqENaaEwUDEPaUHMXp+k/hMBeJg6bjJo3PnaeS5seCQwnJl+ffWOCIsX2mCzJlj7txOiju4r8Z+Z3UQeBuVQkx/KOwC9P+YQkFOE0l4hyZMcDdOGl+i8GGUitrCOikUNJSeB7xRER22ww7sADTSgaBtQSO1nwgcXSK7/rmH6F/qVOyMY5UnRXh5XxwEk/nOvBs4b5SrRGA3VgkBaEOV55Fua0ak/5hfN33H0nxrw4AACAASURBVJjwD4r4iTqDWmcbCHqc5mIJQ7AAkyc8L+wIawrQBgwlMOWQlSVZMpmLBmtDECTwuZ3mEgkHTPtGRVTItNFye72AF2YyMIMBKY2ADDrnR1PXJAyy+pDKjjojDlecFVaE99cxfkF0HrQ9BY6Zg4BoT9kJEWcSxJE9mfYNieAxE+Jgieemov1SMZNlokc9fbjQ/5+YCYwKS5LLIWmOM2FJc4yhDJAyy7kBhIbiSpzZfRh7q5sQjkWx4PfAYjSi3FkCo04v/3vKM49yZ7H8jMxP4cvOW+ibGZVQw8YrLbVQMZxs3o+fv/sDlLmK8qpGR+qVYq7f/fGaxHLp8C1mhkUo6mqWugekT69ev487HZ1wOuz44P1T8nsCiXx3uWws9Kf734gTC7PS6AaaBgLtSmcJPjl0Gq3ldbKDnVqaF0dW4nDDZDBi2jMPbzAAhiDI4EwszUi/h87xgU1tS/BlSunQVlaLvzv3w7yd2NKSFxcu3cL9Rz2SBcICSLFYDCaTCbtaG/DR+6eEtSEz0z84hngsISLFn3z2gQgW86kJwWdhKt7/8/WvMLg4jaRes+H1THoD6oorcar1APZWMfwZETBgNhjFtgyHkaHxh4MCDmjfp5NDuN3fhYklrhubAFvJELHgrYZdOHfgOPbWteTyWn7rXAIXsi6Xv+nA2DiZ1JRUyiVJVFlRgg/eOynhBYIIzm/qEVixkgCBYZ18bEvGigLQ39+9jI7hp0g+T3MMwqBZgsW2DHuxFiaLChAKGiC0lRzGidqPhVZnjYNgNIAye7VQ6HQ8Fj1psnTnxhTjwHFM+AYl64AAgX8nNd6/8Bj3py7LbpRCuZUahMfT3+D+5CXUONsk9m7Q6iWU0LfwGOW2GuwrOyEOkE5raOmJAJH2qjOy4w+v0iDYDC4RRlIgSFAz558QOp+MwqHKdySc8Hj6Ojpnb2ExOC2hEWYnVNkbcKjyLOrdbUgkYhhYeoKOyYsSguDB677T8AM0uCiYNEqxJOoxqIGgNoBVJQcWO0UvwL/XuXahuWg/Kh2NwrhM+oekvgK1GCxORAdOPQC/m5qJvRUnhAXIOGOyMkwxfDJ9Y02AwHAFxZDUaxyreV+YnRvDX+D2xJ8FGK2MwwvtaXQ/144wzBGJB4T5eV5C2tYooGdX2RGp6ji4+ATXRn4nWRq59mZgoST/fAQBvxPRBAsl2QBNbkK8ptJqERE6LXb0TA3Lj9Nsx97qRjSX18i/ubPlrsMb9qFrfBAdg92Y9q5VbnvVK8ZCSbEkDtWyzPI5NFXWiYPc6kFa+9mzIfzyNxcwPKL0zWDd+urKMkkbe+vwXgwOjePKN/dEtOh2OfDDT8/hxNH90psh3yyG608f4L9vXcB0YAlxFkraIO7OVMAKR7GkeDJsM+NZwL2hHtgtVuypakRLRS1sJos4MworPSE/7g51oXtiEHP+5Y1DDOkuoWwmVO8uxz+f/xytLJSUR2ogM0SYJnrj9kMBADyMBgNaW+pw6kQ7Duxtxv2HPRLemVtYEsbmow9O49OPz+ZFgfN7yERR3/H/XvyN9AzQbFIoyWowoa2yXlgti8EkIZuxhRnYLRbsr2lBfWk17GxaxaqlVPGH/bg70I3bg08ETGyqnUkmYWJadEk1vn/kHZzIs8cFK3w+6e4TANDZ1SdlwVkPhJk1J44dxPGj+0XT8ds/XBENAu+PBZT+9qefoKoyvyJf1B90jfbhQudtdE0NKXUQuI1IUvS9CJs9CGuRBkaTChAKFiDQedS794gTqrA3wKg1iONnKWXuPJmLT4dGhyPCHI1SXrlr7o7s7OnEeL4mpRH2gaEE9kugM1sJELpmb+Hp7B2p9kdQwR3+w8krmPAPocG9BwfLT4kjJeVOJ0wGgbH6GkcLwvHQSyJFhgoqrPU4XP2u0PUsjETthKRhGuwSW78/cQn9S4/FSWuhF7ZhT9kx2cHzHBYOYuEmshosScyDbMH5pp9KhoO0e9boZWEn6meYgNqDp7N3Jd1Q0q30VnHKFfY6tJYcFr3ApGcQD6avSt2BTOxf6ZOwB9XOFrEV0xmZ1slQBjM+aBemeyptmtMtpTVMjXRif/kpqXLJEAxrN7Bcdff83TULJjEUxIVJaRiVSIsTlT4XzCTZW3pcABSBIO38ePqGgJ3M8+fiPBPxFIKeCPxeCyIRN5JatnrOrQodHXax1SWOiroCbyQIvZYUrgUOs1VCDjyHi5YvEsKCfxke6g/iWXSopBHiSbSUVeP8/hN4q2Uf3DZHLo/40rmkYycmZvHvv/wDnj4bkpQ70t/nzhwVgMCQAp0cf5iSV1Fegr/5ycc4dGBX3o2bqBW4+OgW/vPGnxFkDYxNMiJYR9+kNwr9TSEdd3LLQZ/Y1sq4uNkqaZ9mvRGxZFwocLI1DD/wf2dzaOIpVNmL8Tdnvod9ta3iILd6MDV0cGAMX1++jTv3OuU9sNttePvkIQECzFT48sINocm5HtXXVeM9KvFPHMy7cdOiz4PHwz34fcdVTPkXnzux9Z6FQIjgyqInCOCaF0EoFhaAZDdZxb4ui03mLfUGSwEv5v1emd+rM4/W+g6pUpkEiox2fH7iPN5vP5XXLp4lrFmBsuNeJ768dAueZR/MFjPamuvw4x+eTxf5GpEiXwydsSHWscP78MH5kygudm91SOVzC95lyby50fsYY8uzim5GCiUtwqyfg8OdgNmphd6gFkoqSICQyftnlT9Sz3TcdoNLah3YWAcBkBRHVtpj7wKnqUiyFkhb35u6LF0I6YAptuOumxkArLzYPd8hIGElQKD4cNY/gjJ7HfyRJfQvPsHA4mPJjmgpbpeCRya9CaNLvSKaI4PANMK1AAKdLIsJ0XHycyyMxN/xXmeD45KKOMK4eswPChrJLLDSIuPu3OmzxHL3bAf6Fh/Ks9CZEggUmyslI6PO1SaiO5OO9KVW2BMK/0jNsWsjdRNkFqSIUmRRwJNBY5QFIxDzYso/IgzCSmdPdoIZDNRgkHGodbfBZSzCYmhO7MsQDtMwBZCxUp5GK/aucjSLQ+c5XTO3BDyxeFW2B4sxlVlrpIIiWRe3pUxYos7pGxK2YTVLCjBzPZKJFKLBGPzLOgQDdiS05Tk3a6IjkKYwTI0m9blCHCcKcK0OBp1O5iEdNJ3XZjuwlc/BZk0lFgfeatyN77/1LqqLy3J9zOfn83vZh+GrCzfQ8aAbU9PzUsuetQ7eat8j1Oyfvr4ujXDIeBzY24JPPz6DpqbavBZ4UsRs+Xz5yW38+dENhDVJJZd8k4O2zdDD0o11pW3TAIJhEs7pSDy2aVjhW1+XSKHEbJd8/eNt+aXjcZfr8fjw5YWbkiXCgj0upx1n33lLfmjri1fu4OHjHtitFvndqeMH0dBQkzcz0z81im+67+HOQBeWI0FAn4VtGUdPh9NE67KiM6qSFWKQeasUUWPL9dyqlLJZkxl6fHrkDD5sPw2Hxbbl5+SwMzOkq3sAv/rNV2JLi8Uk1RRZDIlzlboZZouwX0P7wd1SJ2Hv7mZYrVsHfZwv4/Mz+NXNL9E1MQjvc90MmzXNwmyYhatcB5OVGUrrM49qFsMbFCnSqcoO2FaPKmeDFB/i7ppiO2oQOO890XlxKJFYSKofUsjIKoIsPjTs6Raqu9LaIHUD2KWQzMC1kd9iPjQpAOHT3f8kBYEYb8+I9ehAWaSIu346ROb617EmgM4kJZsZz6dTbis5IlUP6cS4a2f6Y6YXA1/EEks16l2tqHK2iKaBzpopiKxTwFoJFAUyPbHWvUvCBxT1LQSn8Gy+AyPLT6XGQQbVk/qvcjaLyI8aBgbpqJcgEKBWgs/FdEaCAi4ILkspjFqzAII5/xjmAlOSrsjsgkDcK+etdfC+WBqapaXJWLDoEcWKZBMokCTbQPaFC5BBa05XRJzHuHcA3XN3RZy4kUNnR0xpXmUuTldsdIsNWOeC4zobnJAuj/2Lj0QXstVDmghFU/AvxuBbNiOhq0VKk39L2q3ez1qfY7qZBTqha3/2zvfRUl0Pg27rlfe40Pb2j0izps4nvYjHkzjSvhv1tVUiAKPIi3UQGuqrceb0EbQf3CXhhXwOCjMfDz/D9af38Xi8H1EChHwT//O5ofRnGZqw6ozYW9GIDw6dwJGWfXldlSCBKno6KqrrCW7YuZHlrIfHJvGsdwRenw/NjbX4+IPTUsyHDE4+MXLO4dvPHuMP969hhPoAxAui3TMBgj6lxcmWAzi3/xhaqupF47DVgyBhcnIWX128icddfQIYGD5gyWpWVqRtyXq5HDacefuIZN5w3ubTDIusVe/ECP7jmz9gZGkGCUYKBQckoUtMKe2eK80wmNl1d/0n+44DhF+kJkx70edsR9TdAOi2PgkUEydRppvFcfuv0VA9hKJK04YTXgCCqUjEfeywyDRHsgf8L39PipxUOeP4pPmp6Cc1Ttagd/6h9CBgid4aRyuaiveKUyarIKWGI/Noch3AD/b8kzhcMhAUIDJVUBwtUweZx5+C0KCM6XMrSefHDAZWaGSpZBZRWgjNiNKf+foruzmy+ZAUGtJy965N5xpHZQElnc5USnZnpNNlO2ZqA1ijYDk8i6hoBF4I3djIie2SWQaa56c0QHPRPtm90zmzZwSfgYJDsgoEVdRSsAulSW+TmgkMAYwuPxMdBYs3Uci4+lAKSx2RaxOE8b4IlqjhKHfUSxomu0oSoBCYkK1gfwpmIzCNU0ltXD8NTacxwGUukxTRevcuYXVoG84NXuvZ3AMZNzI3mUZVW154kil45yPwLugR19YhpbUWVj8GPlgihQqrCz84eg6Hm3aj1Fm01ceV1riRSEQW2bsdTzA6Pi1dHClA5N8S8bgU+TlwoA2njh2QRTaf7AWyKkt+D/547xvcGXiChZAXSZFkbL7L3fJDZvnBDBXuNFrxgyNnpeugycCOoVu7N17P4/Wht3dEhJ4UJcp36HTSKI32rSgrxqmT7Ti4vxVFbueWd9WyUiaTCISDuPDoFn537ypCmdDN1m4/S6tld5p0dEwC9a4yHG89gPMHT0p4bKu25bdSZzA2NoUrN+5jYGBMQmQ6vV4YJIZClB4Xe3G4fbd0daROIZ/vm1yYxb2BLlzovIO5oAcpYWaS0CQpUJyH1eqFs9wEvXFj3dJ3GyB89ovUuHkv+t8QQKBDZotii84iTo6CRO72Ga+vdDYK9c5Y/eBClzgmMgisbkjHo2GaOYVySar/lZ3jtH8EXbO3MertFUfK/gPMuWc1RIrx2BdgZe7+Rq8LBYsMfXBnzSwCpvexPTH/vdlBh+g2lUmfCWZh8DmYyUAWgzt+xTG+7GSZoSDMiZE5whpJc3y3+XOUWaslXfJPff+miPlSyu7eqLdK50iezwZQTWxeZS4VOpF2oFhzwtv/rVsl01Hv3C2shsPkwkJwRjIdCBTY34KsAYEb74/NscKJoDSAoj2zaQfNe2MZaaausmskbcGwyGJoRjQjZHGYmknxZN5HCggsR+Bb1CISL0NC40r3ZMj7ytt2ARZMsmoNOFjbivcOHEd70568Fj7emM8XAFPzqLifmV9AIBCWbIaykiKJ4TLP3O1y5rUDk0U9GsHg9Bh+d/cKuiaHEKfXyCK8sG3G2+RC3OkakhqcbD2I8wdOorGyJq+dLsEW0xxn5xYwN7csVRX9waBkM5QWu1FRXiz2ddhteQEvPhaZme7RfomR3x9+hjjD4wVkW24QjEkd9lc14a/f+VgqKjJ0sdVDOmZGolhYXMLsLG27hMVln6SIulx2VJaVoqKiGC6nQzJD8j3u9nbizw+vY3B+CqFUVOlvwY1fcgkWkwc2ZwRWlxHaTUI62wEQ8n2WN/V5zUef/SI18UYBwsuPLuIgY5HsilmrgI6VdD+paDon/o0VCinK406YO2lB4ywmFA8LDc/sBmoBuAMvt9ZI+2Q2XOKOmml/2TomMges+mc12hGOhURMSH0BexRkc0iUUCalEn/d3LkqMVsKDak/YMnmg5VvC1XPQkiPZr5Z87vJYjiMLtEVkCmhcDEQ8QrbQUZh9aG02C6By1wswIosAZ03mzZt10FGhQWmCHg4hqwjEWARphxTGbO5n0gojsByEkGfBdFUOcC2zwV0cOz1SQ2KzXa8t/8Yzu0/LlUV89nZy5xPJhEOR+H1+RGOxKDXaSV/32ox5y2cy5hvenkBlztv41Zfp2QvbFYc6XWbnbbVJFKocZbiWPNefHjoNIoc+Wds0LZSstofFBsbjXoBBYyJ55suShuRkZj1LOLLB9dxf7gHCyEfUgQHBcAePB/DdDfSKkcxzh88gVO721Hmyq95Eq/NMSN7QNv6gyHRALGZGEWhLG2dD2uQse2cZxlXu+7icncHvLFQmvXil0egi0/C7grBUayDwaTdFJSpAKGAAAIHWJvu1siqfQwxkCVgZ0DuaBXhk1I6NCPSyUzojBPmZ+iMFQGkCVY9qUCdZD6w6yFDDNkcrHrIlstSgwEpYQBI2dPhvfpDqXpoY8dFrVGyF9grYWXdgZX3kLEL2QreN23A1ErqK9Y6XgjIuCJlC2Bye2oZJ1nxXs31M3eTiCcRCcThmUshkqhEUpN7NkNuT7aFs0nZxlM4VNuGs/vewoH6Nkn5y3cxVHR/tO8LWUC+11SuCKG/u8cG8Zs7FzG6NCMlgPNNldyC5Tb+SBp8M6OhpbQGf3XqA+ypaYLVnJ+4LePIlP9ur215TU/Qj87hZ/jDvWsYXJiEho6xkNiDtNUpsrXo9Ggpq8UnR85iT10TLMb8O4Nm7JvRrYpOeIuhoZUThBtFZsTc63+CW72d6J0dRVybGcA4tEk/9KlxOIuTsJeasypwpQKEAgMIHHAFACjpckqq3sZ179dbRaTOPh0m0/dSyZydO52t3AvLu7IzhMzord1Lrouj1A4g1a/hvafSeoXNv/u5cnyTXgG53k/Bnp8CIpEEfPNxhIPsS1GEpM5WUFoEmTeJFGwU1VU34UfH30N9WTXMxvyp1O0eF9nhxWOSP37j2SN0jvbDHw8jpSuk7e2KpyZISCThMlhxsL4NH7afQnNFnbRlLsQjFo+hf3oMX3RcwdOpYQTikYJjZlbajVEll9EqlRtP7DqItupGCTVsh0PfzvHhvA1EQuifHMEXHVel8VVMk1BCYpLaGIIezKDwwlakhWWDBk0r70sFCAUIELZz4qjX+su3AFmEkD8B/2IK4bAbSX35lkovv0pLSfvneBJFFgeOteyTUENjeXXB7coZGx+eHhNw8GD4mXRulF1YAR8Sxkkxq0ix7YnWg2iurMu7/8R2PzL1Qc8mBnHz2SPcH+qRttmirt+G3fN23+vz66UAXUojKaVHm/fi9J4j0hwrn6yG7b5X0TfEYxieGpOiSI9Ge+GJhpSmV9KcidoDdm+cg6sUMDu00KWLJm12LypAUAHCZnNE/XuBW0BJeUzCtxBByGdBDOVIalmUKLfCSa/6MbnT5WJbanPh7d2H8VbzXtSWVEjp4UJwEgwrjMxO4V5/Jx6PDmDCMw8Y6MFetWW24fqpFAwpDaocJWhv2o3jLQelRwObARXCQcHn6NwkbqXBAXUHBF6FMO6b2ieptNhuKC7Hkaa9eKt5n4gWWZTpTR8MK7BR1fD0BO4PdoleZikckHoSogFj5kLCC4NmEWarH84yI4zm7NcFFSCoAOFNz3H1+7fBApICGIgh6AFCQStiqXKktFzAciu/vA23svElqLxPaeE229HesAun9xyWAko2s0XSbV/3oYSvkgiGQxiancC9/i48Hu3DQtC7aUnl132vm30fQ4EUhFY4irC/rgWnd9O25bCYTMLUrNYtbXa9fP8utk0kEIyGMb4wjWvd96SR0nzAK8zBjgBeNAIFi8kk9AS3VheOte7D4aa9aCivhtXIWP6becco9vQEAxibm8SNnofCHPhjEUWUKJqOFLSpMLSpWVhMDC3oYLLpsmYP+OgqQFABQr7rgPr5ArFAMpFEyBeHb0mDWNSFONxKj4ZCO5JKnjlz+NkP4vSeduyqaUSJs0hU3a9rVynMSyIBT8CHR8M9eDjUI90rPZGgiBJf131s6/AwPQ86uEw2NJZV43jrPuypbZXSzvnm1udyn4pt41jwetA11o+O/icYWZiGPxZGvECKTeXyPJlsLD20KDY50VpZhyMtu3GofreIQlnq+XXNF9qWNTrmPAvoGunDrZ7HGFmcgi8eAfQv7kObDEOHRRgNHlgdCVjdemhX/D2b51cBggoQspkn6jk7xAKxaBJhXwIBjxbRqBMJDUEC62S8mV3OembjjgzxFNh8p6W8VhoYNVXUoKGsGsUOFwx55JxnM1TsrzDnWcLw7AT6J0fRPz0qnSsD3IFRkLgTwgrrPGimiJJVb0J9cYU0N6ImgfZliumrti2r+LHHArs0Ds2Mo296VMBBOBWTdMbX5UizmQe5nkMtDSUpbpMdNUVlAhRaKmtRX16NUkfRK382Cmjn0/N2iPadHZdW1sF4FFoD0xbT73kqDF3KA6N+GTZnHBaHDnrTxlUT17KFChBUgJDrO6KeX+AWiEVTCC5GEAwYEYtlQAJj0QUGEiS7IQltSgOniWxCFQ427EJtaZU4MpvJDJPRCLb4Zd0EpSJl7gfz+tmeOhKLIRKNiNrbFwxgeG4cXaODeDY5jGAsAo1BB02W4q3c7+L1fkLSnhNJIJaE22xDW3UDDtS3oLq4Em6rXXa922vbqPQ9YKiGDZIm5qbROdqHobkJ+CJBJHVaaZG9k8HBSyMYZ2w/BavRhH21zdhf14r6sippJEVtArUfJr1ewmZbfWaKOhOJuGTVPLet34fR+Qk8GunFyDzrt4Sl5o00EBNQS3YuAg28MOiWYbZHYXfpYbRkrztY+ZwqQFABwutdudRve+UWYGZsIpZEwBNHyKtFLOFAHEUrmITC2R5LsR9pQQsYNXrpIOkwWUWXQDahsqgUxQ4nbCbW5EhrFGSDv/EzyHXTKbKkun3hIBZ8y5hemsfI7KTExPm7CIFDMqYk7xZqKuMWZ4ykl7IGRUoLk1YPi84gJYOrisokg6TSXYpiuxM2s1XRfyhh600dmlxXzk0hmoiDbYXJGEwtzWFkbhIzywvwBv0IxKOIIoEkxRHp9O0tPkpBfowsGEW3Zp1BGss5zRbUlVZKCm+Vu1SKVtkztk0XSdocLHDMlGRyAgN/+GXbTi2y6FoY/mgYEVZjzWDmNDjQpCLQp5Zg0PtgssZhc2dXEGk9A6sAQQUIBfnyqTeVpwW4eYyxiBKBAhCNWhCHEymNo+BSIGXfQ6fDPkiSe6GV0IPLbBXnxZ2YsAfcFbMsiFazoTBMds9Jagi4Y1V2VYlkCuF4VFoqe8MBWWQTmtTzbpaF0IApzxFf/+OCE5Sqi6w4adab4bbYhKEx69kuXivt4hPimVKKbddNPUyBWhfJrVf+n1LVMu3MaFvaWSAX/1yABZC21c4CwhT76lhm3aC0m2bLdDJf1NTwJynnJMUemQq4a92HhN6k8mymy6rS7ZNgli2rg/GI0k6eH16ZIpqKQZMMQAcPjMYgrPaUpDNmUy1xI3uoAEEFCNv6vqgXKywLkEmgcDEcSCESNiMWt4lwMaWxAJqt15Z/lU9Jh0NGgSshiVFpRU26NSnlumSHu1G4gcsrryGOT8N1NA0oNFqkNCmFkt3hsfCt2l8BTykpfqY096OtFNGbFFMjRb1BxkPGtplW4eIApV2wRj6rGJwpdoXDUm3VVrl+jnOO9nxeQzWpzFtx5ulsGWVObmCb9DjQjjqey7HQEmCkkEoDguc6A4EKCWiYqZAMQqfxw2QOwmwDTHY9jCYWmsv1KV4+XwUIKkDIbwapny5sC3BjnkiBPRtCXlZb1CCRsiORciFJkEAXrFH6XxTk8VKNohcdPTYOMSjnKWvjqhUyzwWzIG2Uz02tYd817fb8O1badpV9Vdu+PBI521Zhu14caYO+ZNd0NVuh0sgaRKDXeaDXBGA0xWBxGmC0KqmM21F/SgUIKkDIZ3lRP7tDLECQEI8lEAsnEfYTMGgRjxuR0tiQ1NqRgikNFNZwqs+fUfUAO2S41dv8i7DASrCQ/jfDFJKhEARSfmi1IZitgMWugcGqhV6ngYY/24EO1DoIhdXN8S9iTqsPUbAWkPzpRAqxSBLxSALRMBCPGhCN6pFM6pEEQw4GpDTskaBHStperwQFBcoyFKzF1RtTLbAVC6RFncISKEwBf7SpmJRN1mnjMBj5E4PBlILerJVwgo5VP7f5UBkElUHY5imlXm4nWEBS/6IpRENxxEIJxGMUm2mRTBmRSBqRShmQSumRSmkkZi2UvaQZqizCThhf9R53sgWos1FUHVpNAhpNDFotgUEUGv5Xr4HBrIXJopfaBtpX2CpbBQgqQNjJb5J673lYgBsUEa2JTiGJeCyFRDSFeDyJBAFDAmB370QiKUI21iLYlsBmHvesflS1wF+0BdIdc+n0icf5ymkNGuj1GuhMyn+1DCGIyDadkvoKMbsKEFSA8Bf9vqkPl6UFCBJEdU1Fu6K6TqfRizKbB9X/2xXbzPKu1NNUC3ynLKBJt6lPseQ4n1ySQtJZIVpAyUB9hYhglbVVgKAChO/UC6g+rGoB1QKqBVQLZGcBFSCoACG7maKepVpAtYBqAdUC3ykLqABBBQjfqQmvPqxqAdUCqgVUC2RnARUgqAAhu5minqVaQLWAagHVAt8pC6gAQQUI36kJrz6sagHVAqoFVAtkZwEVIKgAIbuZop6lWkC1gGoB1QLfKQuoAEEFCDt/wqfbo+78B1GfQLWAaoFXZYFM2uCruv5f4nVVgKAChJ05r1Ms4JNCIpYAOxbGY2zvCykioh6qBVQLqBbIWEAqFrMdmV4DvUErJYmVltaqjTazgAoQVICw2RwpuL+zmA+r/bGfAJsPCUiIxJHSsdLY9tcjLzgDqDekWkC1QNYWYEVQVv0iMNAZwyaCuQAAIABJREFUtdAb9TCY2fFw+5oaZX0zO+xEFSCoAGFHTVmWBiZbEPZGBSBwF8AXXjYDLEv6HexDv6MGUL1Z1QKv2QJSCDRdJTQWToCdRUxWA8x2o4CG11iY8DU/ef5fpwIEFSDkP4te4xXi0QTCwRhiwTj0Zh2MZgO0OoUulBddpQ1f42ioX6VaYAdYQCqFK2XEEzG2Oo/L5sLqNMJoNQiToB5rW0AFCCpA2FHvRtgXQ9gXFa2BmS+4Rb+j7l+9WdUCqgXenAXY6oAbjJA3Ko2PTHajdEVUDxUgrLaA5uPPfpEaVwHCjno3AothhHwx2IpMMFn10Kqagx01furNqhZ40xaIxxKIBGKIBuICEKwu45u+pYL9fjIInpEIAv1aROZ1SEV3JtvC0HSuh+bjz3+RmjDtRZ+zHVF3A6DLd6IkUaabxXH7r9FQPYSiSpO05VSP7bOAdy6EsD8Kd6UNRrNeDSlsn2nVK6kW+E5YIJlIIRqKg5sNs90AW7H5O/HcW3lIAgTvSAT+AT2iC1qkIjvTn20RIPxdasK0RwUIW5k5b+gzvrmQMAhF1TZRIquHagHVAqoFcrEAAUIsHIdvIQyzzQB7iQoQ1rOfAhCi8A/oECNAiO7MLDEChFxBgubjz1WAkMuLVQjnEiBQh+BWAUIhDId6D6oFdpwFXgIIdgPsKoOw7hhmAEJgcGczCHzAZDJdECPLGasChCwNVUinqQChkEZDvRfVAjvPAipAyH7MVICghhiyny0FcKYKEApgENRbUC2wgy2gAoTsB08FCCpAyH62FMCZKkAogEFQb0G1wA62gAoQsh88FSCoACH72VIAZ6oAoQAGQb0F1QI72AIqQMh+8FSAoAKE7GdLAZz5XQEIGmig1eig0VA1nEIylZQf/luj0UCnYXlprZSNTaYSz/9WAEOk3oJqgYK2gAoQsh8eFSCoACH72ZLnmXRsWo0WdH4vHF5uF90pAIGOnQ6cWcNJuvG0c8/2aU16C9ymMtiNLsSTcfiiS/BGFhFPRmE1OFBiqYbN6EI0EYInPI/lyDwSyVi2l99B563Mu8692MkOetAdeKuZsdlZ46IChOynmgoQVICQ/WxZ50yDzohyWz3sBjqzmDgrOrRoPCS7Xb3WCJ1GB5PejjJrFYw6M7yRJcwFJ8TBKc4zuyNXgKDTGsTJus3lcBhc6YYNXNDSndxSsj/n/1P6OYhL18jO/PkvAcQTUXii81gOLyAU8214swatCeW2WtiMbnk2b2QBy5EFROKB7B4SgNNUggbXHpTb6hBJhDDtG8G4rw+RRBDV9mbsLz+JIks5gjE/5gNTWArPIBwPIRz3wx9ZQjAeEGZho8OgM8NhLILLVCxjkkjFEY4H5RqReBjRZATxRETAnGKPV3/otQY4jG44TCWwGZzCoiRSCXgj85gNjMn8KvRDCy1MBhvKrTWwGVzQatP1OlIpGUvO/cXwDGKJcKE/yrr3V2SpQJm1BpzrnBvheAC+yKLM9Wgi8trmy1YMqAKE7K2mAoQCAAh0SnRkXEzobHOpVaU0KksgEg/J4qMsoK9nMc9MM7uxCKfrP0WjezdCsQC6Z+9icOkJlsOzAg7c5jJYDU4UW8rRVtoOp6kYU75hdM7cwIx/TEBCtkeuAMFssKPRtQd7yo6h1tksCxfvkfdlNToFCgSjPkQSEdA5WQxWcUq0Yyjuh0FrgF5rQijmx8DiEzybv49p//CGt8ud/ZGqd1Hv2g0tdBjz9qF/4TGWwrMwECxpDTLGsUQEgZhXHPPqo9hahb1lx1HtaJKxHVl+hv7FR0ilEthTcgwn6j8WQMZ75P3zuTJAYnDxCaYDI/K5jQ6OW4NrN5qLD6DIUiazxhtewHJoTgBNMOpFMOaDJ7KIQGw550Ij2Y5p5jyTzoIiS6XcU0PRbpTZaoWD8UWX0Tv/EA+mLsvzFvqh0xhQYq3E0erzqHY2w2qwy9yifWnbwaUuPJ7+BsvhuUJ/lHXvb3fpURyuOocSSwV0Wj284UWMLvdiaLkLc4EJBOPeVz5ftmo8FSBkbzkVIBQAQOALVmKpwtGa87Io0ik9Lx2tIXxQIAOdwMpqUOxeyB0qF/G++UcYWuqGJzK/6c4x++mR3ZlOYzHONf8ETUX7ZXf9aPo6+hYeYSk0DYvBjtaidlQ5GmA3ugUA2UxucYpjy714OHUZi6HZ7L4IQK4Awaq3o9G9D62l7bJoe0ML6F96Iv/eU3pUbErnM+0bhtNcjOaiA7KgL4RmMLDQiSJrOarsDdBpdRj3DKB34QEmfYPP71fGZsUY8Q9mvRWN7v3YW3YMVY5G2TEOLXbJbr/UVinOmCEIsgL3Ji/CF1laseMiswGUWGsEINQ4GhFOhDC61Cegq8xajd1lb6HW2So29IQXJLRQ6WgQ8DHuHUDn9A2MeJ4JE7DRYdCbUWQuR72jFdWuFpRYq2DRWwlXhVUR4JkI4/HUdTyZvS6MQq7VyLIdWIKmGnsLjtaeR42jSdgXHgvBaZnXgwuPMe7rRywZzfaSb+w8Aky7qQgtRQdQYW+QuUbmzKy3IRjzYmDpCW6N/gkLoak3do/5fnG5tRbNJQfRWnIIlbY6cC6Fon4shKZl/nXP3UUsGX5l8yWf+1cBQvbWUwFCAQAELigucwmIykutVbK75ULMBb/UVoUyW404kEnvkNDJmUMAguyIfRhb7sOEb0h2eoqY7fUdzwGCe7+AlUcz36BfAMIMSGNX2OrEWXJHzQU+Eg8iFA9iKTSLJzM3ZGed7ZErQOCizB3p7rKj4uhJw88GxmE3ucX5clc37RuFJ7IgYKbcptCm/qgHM/5R2IxOYTx438NL3QJ8VjIILlOJgLoicxmMeouEUujsSNtXOOpRbKkUB07AEY7505R5HL7wIsa8CuDg+HEcqc8w6qwotVaj3r0bDe7dKLaUIRKPYD40hTn/BIotFeJw4qmY3E8oFkSJpRwNRXvle4cWn+DR9DdYDE0jlqAzFVi5pnkJUgw6ExwGN9zmUnlOs8Emv1MEkhokkwmMenox5nmGRDL+SqhjrUYvoGBv+QkBRbQ5bT+89FQAwlxgXOYIaezXPbeznZcrz1PCaiY4TEWwG5wyP/aVHZf3mOM2tPQUN0e+wHxociuXL4jPmBieMpXIu11srRCmpN69S+bN4GIXnkzfwNByt4xZzkcKoBNPplLQpAAyMmTiMhom2SylCGFFoptmTZMCrDU6zab9b1SAkP2IqAChAAACh4s7a+526dC0GoNMdqveJovmgcrTSCQTuDv+tdD3zwGC/COFWCoijoLxaS7ir/twGotwrklhEBSAcP05QOC9cNHgArm37ITcGmPJC8EZxQkHRjeN6a98ntwAgkacfr1zD3aXHZEQg05rVLQGKUWDwB8udnqdiauOxIWjqZg4Ri5CipOMwxtdkjDBwMIjzATGnt8Sd4htxYdQ42wR0SCfVSF8NDDrzPL9HFtqGBaDM8I+zAcmMR+cEnFhIK6ENxg6oKMky9JSfBC7Sg+j0l4Pi97+fCfPkATFiylohJ3pmrktTESNs1kW6iSSAhQHFjslDkwgFogvIxD1rWKV6MD0AkT5nToRjyoZE/y9FnqJmxOw0CEHYh5hP2iH7dYi6PnM5hIcqTiD/RWnRS+yFJ7D4+nrQsMzpECWbOX3Cqem0UGvVe6ZY0WdAn9n0pkE4ND+tFc0ERZh5+qD42rU8lyLPCvfG+otYklFc/HiUGwl9qEWhbqOVEpodeo2+J28Pr8nmYqv2jEr3B8Bwum6T8WB8jkYLsoWIAjY0Big1xmg1dJRMqSYkvWAwJOAYy0Nj5b3pzUKQOe98pk4B3mfCfnMt0Ej75ahEH5GNilcW8Qm4XXWFeX94Uam0bUPx+s+EGaLwHRk6SluT3wl7zq/M6cjqYU+ZYRV65R3iqEnPo8+DVoZduKM4LhzPOLJCMKxAIJxH4IpH5KaOCT5Z51DBQjZj4YKEAoEIKxMa1P+rZVd7pGqczha/QGSqRiuDP037k9deWl0FTkd6WAl3e1NHM8BQvF+hOIBPJm5hb75h1gITT5fiKhD4C6bC7ovsiwxylgiJotrLvedC0Dgbt5hKka9ay+qnQ1iT1n802sjF28uPKXWSmFweD+kSOlQMxkBSnBHI4vkjH9cdu0ENZmDVHiJpVKoeqPOJIt1NBVFNB6WHWS1sxGVtgYkkMDo8jMJBYmj15nEuVCDkNkd0zYEiKRvGYNvcO+F21QiNuMtW/QWATKycMfDshDTuZHxMOiUGHckFkQg5pPwA3UeBDVDS09En5A56Ow4HsXmctGG0PkojsEkYMmot0qYhc/D8aSmgXFzMh25jNXmc1EjY7K39DgOVpwSoOOLetAxcQnP5u9hMTgpjn/1wXGltoRMCp0TwTF3qia9FaWWKrjMpdBqNBJ+mfIPYz44+fy++ez8DO1MNoY/vBY/TwBH8WAw5pFdKZ0o7VJkroDd5JJ5Q1BL+xPIkB2izfzRZfkOAj7aebXDLrfWiUYnF4BAp04nbdZZYBcWq1SYFc6FeCImmhiyXgxTrHTAfD46VDpWji9DZBaDQ+bcckjJdmE2DJ8xs5kQYKAzyufIBjLUxPdGCWHNC9PBMBi/Zy0wws9Tz9JctB8n674nTAmFsk/mbqNz5iZm/QTU2emi+HoSHJRb6rGv4hjayg9JyE5DMLjGhFLAUgxz/kn0zT5G9+wdBJLL0OrXV3KpAGHzNzNzhgoQCgQgrB4yvuh0MG9Vn8eJmo9kx3Bp8P/g3tTF7Ef3NZ2ZAQgtxYdkIR729KBr5g7GvL2IyYKpLLT84cG0vfV2MZvdci4Agd/nMpWhtaQdlQ7uxm1yf7IbTVE6wB2zQShSh8ktDpchHO6WZSGUrAblPDqMucAk+hcfY9Lb//w2ZScpDpq7SSWFU6h7rUGccIN7D/aWHRXnxYV5MTQHXXqnHowFhEYfWHosCzG/jQ7frLNK9gJZD/6XO1MKK3n/FqNdFmp/xIdye438LpN7wZui3oHfQwdPEdzgwhP0Lj58ieoloNhffgq7So+I8yF9qwQilEWc92DR2USwSXaDu/mHM1dFwLidDBUBEp/vfPNPRCdCFoX27Ri/gAn/kOzo1zqok6h2tuFo9XvCuJC1CkQ94tTouMmy8KBI8/H0DdybvCDMAA86Moa6WksOCrAjUNDp9DIneY1p/4gAXGbY8PuZSXGi9nvymUQqKiEPAgoCN4Zj+J5yPOaDE3gyfRuTvgEBfSuPXAECr0lBb51zF+qLdoPvF+9TYUYU3RGzTab9o7gz/pUAcRk3ah+MbjRRc1PSLpoaMlAEjwRaBK0iZPWP4vbYn0VEzMOos6Da3ihiVTJhTKM16E0CprkzXwzNoGfunggQ1wMJZKIISI5Un8OesqNwmcswFxjD1aHf4NniQ2GfsgEJqWQKhpQVTe79OFp7DrsrjwiAzeiw1poPXF8W/NN4OnMPN4b/gOXYLHSG9SkEFSBstsq++LsKEAoAIHDHU2FT6GQlJSoli7bJYEGjey+ai/cLnfZ0rgPDy09fGl3lxUnJAscdE3cypGXpCEUQaHCLE+F1n6fuZQXmFfqQDoFCNe4eo8mw3MfqIwMQ2koOy3eSIZjwDspiy10Ldzn8HUMg2SwSG03fXAACd5oUi3Fx5+6Uiyd3G1zMuLjbhP43PacxE8moONjoCkqaduRujY6BzzTh7Zf4fuYgK0InZzU6JFaaob6NWiW8UGQtQ62zRf5NkBeIeiWm7o955LsmPAOYoFOJel56bNY52Ft+HDXOJgkX8FyT1gy7ySkL/XJkUYSfnDOcA9ztc7zIgFBFzvuiExlbfobexccvAQTuTFuKDqHe3Sa6CcZ5hRnQQO5T2YWXSQWHSe8wnszekgwKOuLtZBC4s6UjeL/lp5IWSgDWwTDa/J00YFp7JnB3vKvkMM43/0wcKVmOQMQHrUbJDOEYMAWUDvP2+J9xYeA/xbHx2eqcbWivOiti1Hja4dOepTalrgRB1cPJq6IN4bvEdNMf7P5nEbSSzqdanwwEXyEyB9Sa0KGStemZvYv701cw4R3YMkDgnCUrtaf0LdFjlNvrJF14MTwn4+62lIsuhcCW8/FPvf8bk/4BqblBhqGt5Aj2lR+XORdPxQXwcl1QQJ9V/svw1q2xPz7XCDEd82Dl22JTvi8LwUn4wkuwmVwotdYIe9Yz1yFgi4wMbbzWQRBDFoGbmrbSw/LeXB/+PR7N3IA/upCVfoTOXpcyocJcjyM1Z7G/5pTMedplPXDANWp8aQCPJm6gc/amMAg6ncogZA8D1j9TBQgFABBIJR+uPCvUHhcfZXuriHO4w+OuiM6dLzodzMuHBikNkX4QI55eWaTowLiYUXTW7D6IUgrvdBQ+Zp/PruROaAQcMDVrwjcoce+VVHXmPlYCBKPeLLFO7lhiyZjkRY8sPpXP08mG4l5xeFsVm+UCEJTdkVnytWljMgVc3Lg7omNxm0olW0QRP1FrkBQxIsMBBGhKaloKC8Epoer7Fh9JrvdKJ8laBdSJMExBZ5s5lP7jSfkhy8DdLZkGOvB7ExeFXZFQRopsCmPXLwtLKVTcX34ada5WsRWdMxdJ2pcgh2LLDOtBdoOOgztraiWWg7NC3fsjyxhZ6v4WQMjEmnlfGfaBAkfSy41Fe0VQypALQyoPp67KvTLVMJd6FdksTnQ++8pO4HjtB+LQxzx9uDL0awwv92yYgbEaIJD5IQMz6R3EfGgaZr0d+8oV1oZsxKWhXwrQrXY040DFKRyoOC0sQN/CA8nQYNigvfKMMCqcBxT73p+4jJ75uy8AQtkxgeLReEQ0EuOePsz4xtBcsl/i7maDVXbaVwb/G0/mbrwU48+FQSCYb3Dvw9Hq99FUtEfGvWfuPp7NP0Ao7sPusmPYW3oUbkupZMH8qfffBCBwnlfbm/B24w/R7N4nIJfZH8woYJotdRQuY6msA6FECPOBcUkvZviEYORozfsoslYKmL83fkEydggyjtV+IPOMz9Y924H7k5ckE2Otg8xUibUap+u+hyPV7wkoo32Z1TTh68u6hgVfBW3cKIDlcO0Z1BfvhsOs1MRYefAd49gvBWfROXkbDye/gSc2i6QmtqFQUWUQsnk7lXNUgFAAAIFFR+pdbUJJi4hOxHGKc2MePHe/FKDxhZ/yrsrBV1IZZBfFHc+Uf0R5gVNJlNsbcKruEyUNKR27zn4Hr5GdpUKfTqJ75q44Cn9seV0GgRQlX1jusul4uOjzh6wDCydxQWNK4UxgRHZcW9mN5g4QLKi01UsWQ7WjUVgQOkMKQhm/nPINiSOVmHNa808bMR5LwOY0FYltGQronrsjgGflwQWd9QiY5qUorbXiZNJKRbkix3F/xUmhjEWjMX0d/YudshivFv1J2EOjF93CoaozIvxkDJagKpoMIZrOTDBoFCA57Hkmu0TGt5mBQXo9Q8dSEPlstuNbAGH1AHLhpaNoKtqH/RUnhCqeDozh4dQ1jHv6RaS4lbHabBmqdrTIbv5QxSlhd6hz4I54Nji+YVXI1QDBH/VJlkXHxEXZtVJRT5BDh8UsmbsTX8twtFe8g/aqdwUwMmXz0dQ13J+8LHbkbn1fxQlJI6Wm4cboH3Bn4ksB2WQQeD0evohHskS6Zm7KmOwufUvGlu8px/bS4C+lXgPfg8zY5gIQyBydrv8ErcUHxZkzbfXO2FfyTpH1OljxdrpIVgVm/C8AAguBEfwcrnpXMqHIIl0e+pVkTBBY0AAMezGFlWsJtT8EfAS4J2s/liwYzr0xTy+uj/xegGydow2Hq1nPo01SeamfuTD4X996BzLjTN0UWYSzDT/G2/U/kHeqb/Gx2JlZTZkwz2bzgn+nE6dIscbehmP176GhZA8cJpeA+cxBzdBiYBr3x67h2ex9LEWnEBeB4sYUqQoQshkBFSBoPv7871ITBQAQSA+TpqQ4jFXYePBls+odQjNTwMVd5p3xr/F07kUWQ8YJ8XXgy0gKn7Fq7jD5GpEurHPtkgJMzON/UVwh+wlCx8BdzExgXHZpaxU1eimLIe7H09m7suumI6bTIk3OOg9cgFgYiRQsd4mM1+ZaGW8rAKHK1iCLPx0SF0aJ8zPsAq3Eb1loaHWxIooBmfpHCp9UMlO3uuZurUt90ynzmgwXUfhG/QgZA34Xbc8wRJmtWlgJUulPZm6iZ+GexMkzO3NhGqR40R40lexHlb1RKGxqFUh9kzIWlb7GJAwRf0e6mHFi0susfkgwUW5nFUcnFoPTknWxOsSwcvR5P3QuzJzYXXJE0moJ3rigMxa/EJ4WRuhVHPWuPXir+j3sLj0su36Cpj/2/ku6Lsb6i/xqgECq/cHkVTyduy0AiuwH9QWcb4uhKYm5Eyycqf8R3qp5T8aJtpz1Dct85HkcM4YZyLxwTl4b+g2ujf5WxiMTYuDcH1rqkV00tRJKqOaAxN1JqTMEcHHwl7g/dSldIVR5hmwBAudQlaMZ32/7e1Q7myQ8xzF4NHNVUoLJeB2sfGdNgMBKpqfrvy/jSHA77u3HV/3/IWB8/doVGim6RQ0In538ojc8L6CQzCErWpbZlRRezmGyaF88+xdhUNbbaHAOn6n/DGcbfyTrDVNkySA8nbuTczYDo5lWrQMNrr04VH0aTaX7RCzKtVEExf4pPJ68iaczHVgITyKhJXOw+UxVAcLmNsqcoTIIBQAQ1hqunShSXJ3muByel/BIo3MPGov3ocpRD73GKLsTip6ezt/NedHYCkAgg7Cv/ARqXC0SYuAiRkDGmDQXdQKq1SEP6hRI53PHQkdL5qNr7qaEeVYfFChy182wAJ0zQRGvzVi4IhFR9pJMW6VwjN/FeC4djYSD0uWD6XDIuDDe3VJySMRp3PXNB6dFBEcmgmwTMw1I+XOXSFlkRoXPSnb8JrIJZD+Y5kja/uncPWFwKAJ8CRzoTCgSEechqcHBok4U5tEBTPqGpZDVsKcb/giV+9tfW4NAiFQ0qWSLwSZO94+9/1tCWRulU64GCM/m7uPqyG8x5Rtcdz6Z9DZ80PQzHKt5X0AbbUMxqlSbVOJMadMotPX9yat4OHPlJYBAJf/D6WvitFkLgyGlJtd+HKl+F7tLj8i1Lg3+Cg+mripFgtKiz2wBAsefNvlk9z+iwlYrGoObY38S/Qc1KmQY2yvPylx2W8owsyLEUGlrFKdMUSwBDx3zpYFfYjb4IiX32+uMBgfKT+Pj1p8rWTzJqDAw/BGtUTpdl/9hyHDM04/ro78XEexaACFTEfadhh/hnfofylaHc1IAwjzB29rahY3cFZ25MWlBW+kRHKg6ibqiFrG7JziH3rlOPBi/iqXotIADLUUoWRwqQMjCSOlTVIBQwACBDADLtZ6s+Uh2PJcGfoV7UxeyH93XdOb6dRBmBe1LMR5jkezSuMjRITI/movs62AQ1gQIeofQ8cG4X0DDavEld9bcaTJ2uxieFXp1LYDAroqMux6uOot61y7ZwZNxYXVIMg9cFLlgSwqZqUgWYh50vr3zDzDpH3ru1DKFi8gcUbRHcSpBh1JcipqDIokHM5RBISp/bzM45Id6DwIG0rjUOzALgXoROhmKDJmaSbGbcij57kzTaytpF2raZSqVz/KeyZpkmI5rI7+VCobrZRTkM8WqHE04VHlGqH8+G1NI/9z//4m4da3aBZnv+jZAuIcrw7+Rz61Xttuks+Jc0+d4q+o9mZNzgSn5vknf0EvaClHuJ0KyY2dV0kyIgaCNAOHB1BXFnv5RSR9kbY8DFSdR42gREHZl8Nd4MnvzJUCVLUDg9VqLDuKDlr8RJmdseQA3Rr/AwFKnCE45FwhwOGYE3hQMigbBNyAsxan676OtuF30ECyqpthyaEO9z76yk3i/+aeiafCGWLyrDyNL1IBQUKwcSj0ERcC7SEZpnWqW3NSQuTpT/2OcqvuevNvUTjyavobBxc6tV8FMamBMWVDraMPu8iOwm10YXexD7/wjeGNziIvmICvltTyPChCyf2tVgFDAAMFqcuNE1fuSW8xUtwsDv0TH5NfZj+5rOnOzQkm8De7aqOzn7pcLDmPA3MXlWrp3exgEg9wLUy1Zm4BMh1J18MXBRZYKcskGkFLHPekQw8sMgoQE3HtF5EWhIinrB5NXsBSaU7I+wF270p6ZAlRS3TykqVJ0WeLWK+P7UrwJOsnx31t6DFXORtmsccFmrrrVYFOyJQBRuzvMbsmV52LM4lPUC9CmXKz5GRZ1Yh0Dxqsziz7vhSEPpsIxJa3EWoEp34iI4Zi/zt0wQ1NkKRjWGl7uknvd7oNsCJ/xVN33RUA64RnElWGKFLsFZK13bAUgkH05Vv0h2qvOSHVD7oKpJSAbsNL+nJsMNxGQMzVvZRYDAQLrkHQJQBgDq2ieafiR2JHXp8O+NfpH2fGvPLIFCExNbSo6gI9a/lYof1b4ZClual8ooCVDxzAC2QUyHgR/f+z9VwEIbnOFCC0PV55Bsa0Sc/5xXBj4P8IAkRFY72A2y9sNn4pOhyB0aKkLtye+lnmw8qBwl3Nso2JZ3AgQ2J6q/UTsTP0SNR60M8FbPt1G6dTNWhvsuiIB7QT2gYQHKU0CyAEcqAAht7dYBQgFChBk16m34kT1RzjT8EOh++5NXJLCI+JYoVRzY5U1Ol/uVJmKSIHiVjMEcps6L87OBiBs9dqrP5cvQGBIgXQ5QwB0lHNBahC8kia68uBiRw2CzegQip1Otnv+rmQxrDwYv28tbsex2vPCkgwsPsbFoV/BE577FvjhrpxjSs1JpsGWUoHv2/T9yjRH3huL+LB0NZ0/d2kEELWu1nTxHBaR0UopZ8bbqfEg8OC1qa8gA0LnxjROOjIu4nRqLcUHpFwumZzeuQciEuTukKwV0+XIUDC9jc9EoWqmhDCzKXjPZBzyyWzIlMF+v/lnUpaaoIq7TdZdWJlKunoObAUg0PZ0vgcrTstz82BGeD7gAAAXmElEQVTaMKs1MoTDOcGS05kQEFX71HisBAjMdiCgIPPD94wgiiJLigK5uyaV3jN3V8JBawGEBvcuYZM4Psxk4dyjvQlOSeFTlFjv3IWP236OSnsD/DEvhpd60D//UOpsNBUx5fmAzF3an4Wwvuj5n9Llk79jeIJgiyEmZrk8m+uQHTydM89nWI3AkUCAnUmpLSFQpPDxQPlJCfMQKHZMXpBwAhkosknFLDyl1cMf9co8WI9B4PV3l7CJ0xkRPdJe34z8Hl1MPYxS6JpfmIogQemanhKtgUa7eVnltdYdlUHIfjVWAUKhAgRq0bV6HK44I1XYSClSKDjlHZTdHBX4Rp2yI2WVMeZn82+T/sGcafvsp8vaZzI97r2mn6CxWCm1zAW+b+GhOLTtPrYKEEij17hYBjYiTpMMAeljOta1491KNUuyDHTOLB3LJk/LkTm5RsYxkhpnrYpjNR9I/YDpAHd9l0XMKOWapTCyci2CA6atctHl7pw9IVisZnWYhY6YAIGxZjIIrI7IBXt4qUsWWZbuZWGhOjdFl3EEo35Z3AkcKFp8Otshuews2MMW0ww/EJBIAR5zBfZXnhaWgHNK2aVexri3VwAmHdGBslPSEIrdLmd8oxhZ7pEUVanSx8JCGq0o47mLVmpbbO3gc5ZaqvFu4+eSP0+gy9j5nfEv5XmVCoHfpo63AhBof4exGKzVQZqejAXTd1lXZNTTJ8CLDBCdPbUJ7NrJ5lgvAMIxAeZMJZ7yDokNGov2CTXPYlLjy724Pa6UFl6t1hcGoeFTNLn3SriN4afBhU4BIErb8/F0pkgSZdZavNv4mbAFZIuYCst5oghgS+Q++Xtmzcz6x/G7nv+JUY9SG8VpLsVbVeewq+SInMsSxMy+GfP2y1xkeI82pvK/Z/GeZO8QWNQ623Ci9iNJa2Q66IinBwOL3QKcKZLlHOS8m/T0o2vujoDP1QcBGMfyWO2HkoFBNmTSN4JvRn6HwaXHeYODrc2wtT+lAoTsrakChAIFCBxCLqBUJ3NRYzyaVd3obBRKNFMiSUlFZPEdqoz7lx6vW8gk+2mR25lceN9t+lzS5AgQmHtNwVmhAAQ2acqkDCaknDLL07K9s1IHYMODpVxTcckk4O6J9Rxoa+6+FBbHIBkabO/M5+cuSsRvbL2diEqIgY6V38VzdUwzSyUwtNwDiuvYlpn9HzKHotkwyw6ScW9WSyQAYKyc2Q9Mw6tzt4pmgNfpXXgoqWxkO5iKR3EiKWXuTpmrz/v1RRZkl0onU+tQcttZG2M+MCGCOjqQUJp54kLP7Amm/e0qOyJ9GRjXVwoQaeWH/+bu9e74V1KaOJ/DondI7QVmMxAkcGfeOXNbsnWmfUPp9NOXQQLfg+bigzjb+BmKzKWiD7kx9gcBLBQHrneQcSsyU3dxSHqDOM0l4riozRAgt+LZumdvS7OhDEBgKIQsA8eWaZD8N5X9gYhXMnIYVuDum4BsNeBkvYcTtR+juWifFGOSjKO40pqdc+nB5GXRojAExPnDedRecVYadnENoL3JMBAskJ1g6Ittlgnavh74L4x6nskakMlI2VXSLgCPwllmJog4kGEnrU6uxSyF62NfyPvJ+cZ7knoebInuanteyjueTIjwjxpOAk6+02SUXgYICvhlqXHWkWBGB++NIIhpp2QwlvOcI/nML5VByM96KkAoYIDAoaW4irtUqtuZc6+UK36huOaOQhxY1CvV1jzh2TXr1+c3TTb+NMVVpCnZkY9pZmyTPOHrF9HWdh+5MggUIrKNcHv1WaGWGctlFkUuXeaYDklnTHU/0x0p5MqEKmSM9BbJracjoINmO2fuzISBSMbFATFmyjFiGqqI4MJzkgrKXb5ShlYBhAatWURoBAe8FsebAIKfIVvAanjMYydTwJ0snftSWCkOxDgyawCwcROdXzgRlOJB7Iuh1BZgTL1YCuqQzWC4ZMI/mO6xoNC/Sj8IqwARigh5PnUjnHPcKdM5MJRB3caEt2/N3WQuY84wD2sg7Ck7JmJJUt6cN6Tx6aRZ8lix9QuQQLU/n6/a3gyT3iypeQQstPFm9RrIuPGZOFbcZZN54T2QNictT3DFcAzFeNQprAwx0AlLhVB2/4wuKOMa9ctYkgkikFqLRidjRKdOzUKmXHLGRmyRPOUfgi+6KOOrVFJ0osLWKDoE6kvYbyUYD8h9MezAuhusiUCQMe7tE3txbBWmSi9gkfORlRApYGVYScSXcaVnBUtmj/sGnr8D/AxBF8NWFK5KyrXOKJ/hd7DzaiC6/Pw5M4yXkrWgl6qbrUUHhJkiGCcrQmDweOobAeO51D/IZe5s9VyVQcjecipAKHCAkP1QvrkzuWAzrk06MsG66MEpWfBy7uKWxSPkChC4IJP6JDhgd8REKikLaiSL3P4MDFM66CUlBkuxH51thkF4ccsaqdDoNLpRbK6UWDZFidz5idMJL8rCGWCTqnSRmtWPKx0GdSbsKj4qjBHtmql9L70sdAYJF1Bhz12g7DpXCNAYJ2auPOvpky42GaySlkk6m2JFOgelaqReIKbSEW/t7p9kPehYWBfArLXK5whSCGii8eC2hrEIpOiwqXs4WHlawAk1AARjzBYQ/UVE0VFsBgCymELPTyFTQwdMJ0dgy74hSsGsF2DkJZFidFnSU3vmO6ToV66NxnK5N61WC6PW8lzUS9u/yELZ/EqZsBZTYJlBw/nLeUiGZSMtAG3BTYnoZJKJNDD9duVTAg/qb7hxYXMm6is47wiyeubv48n0TQE+r2IN2PzpNz5DBQjZW1AFCCpAyH62rHNmZieRKYXK3czzpkh5X/3lC+QKEF6kDtpld85sENL/W2k6xJ07ldj87Fq6BXG+/D+GE6QsrNIngwuy8sMW0huXu86wCGzVS6W60nJa2jjJ5YQxYmvidVr90vmzdgIFb3x29n8gxcz7flHL4AUDtf7wKL046LyVYBb3scpzKHUdsk8ry2YK0DGVWmqwr/wkWksoniyW72G2C8v+srsjxZLb6XCUjBGlso7SwOvbz7U6i4Fpjl2ztwW4bLcNvgUYWeUiXZ+Bts8140fCkOky4nw86payqWeRaTomdllnvrK8NFM8GQ6hroafkd4fnj70zHZgyNO9BojOZia8+nNUgJC9jVWAoAKE7GdLAZyZK0DgLSuOm0WL6HCV/givenEvAFPtuFsg48KsCgoFWbq40tkoFDlZEFZ2pC5hrV4gr/JBGY74dNc/SciHfS5YsbFb6kpsVIDoVd5RYVybIll2BK2w1z3XUjD8wvRKtpRmnY5CPVSAkP3IqABBBQjZz5YCOHMrAKEAblu9hSwtwJ0o6W2KMCl8o+6G9D91FtKCOV11MsvL5X0av/9A+duoZB+PREgyOhTh58vprnl/0Q67AMeGGRfMVuD4eKMLWArPKlUYV1XsLLRHUwFC9iOiAgQVIGQ/WwrgTBUgFMAgvIZbyDSckviKRDO2P6yRzWMwbMZ0T6Wtdgr+mE+0HOtpN7K55l/GOekResPjsxVbqgAhe6t9xwHCL1ITpr3oc7Yj6m4AdOyQl8+RRJluFsftv0ZD9RCKKlmjILv64Pl863fpswpAiMJdbYfBvHaP+O+SPdRnfdUWYBVMJb2TR0ZPkn1X1Fd9f+r1c7XAc4AwH4bJboCjhFk66rGWBZ4DhAEdogs6pKI7059Rv5Orhkfz8We/SI2b96JfBQg75u0gQAh5oyiqUQHCjhk09UZVCxSQBQgQIsEYvLMhWBxGOMssm5ZDKaDbf623ogCECPz9OkQWtEhFdiZAEA6SBT1yODQfffaL1IQKEHIw2Zs/NQMQ3DV2GFUG4c0PiHoHqgV2mAUSiRSiBAhzaYBQqgKE9YaQAGF5JIJAvxbReS2SOxgg5DpNVYCQq8UK4HzfvBJicFbaBCBk0sAK4NbUW1AtoFpgB1ggEU8iGowj6InAbDfCVqQ0UFOPb1tABQgqg7Cj3ovAckQAAqlBk00PnUHVIeyoAVRvVrXAG7ZALJJExB/9/9u729+2jTsO4N87kpIoWU9uEzuNY8dBWrvYlm7Y9i+sxTCsaTHsRR/+xBX7B/ZmrzZgbYr0aUnz4MR2HKeWLVmWRFLk3XCkHTvt4ti1ZZLyl0CBAJWlnz53R315JI8Igyi+BsHsS7j9fwEGBAaEXI0Nc+7Q2xkiGqokJJQdSCteSYgbBShAgZcLaCAMFbxeAL8boFgxBxkOnCIPMniK4acCPMWQw51JFCYXGA06PixHouAmswjm8pN4xcF4dTxuFKAABRIBs2+Ir08zq5AGIYJ+hChSmJgsxfsP3mn28p7CGQTOIORqP2IGenIOMZlJUKGCtCSUMk+rE5B2cjsaNwpQgAKxgNJQkXkYWbJ0uTmwMKcWCq4Dy+bhxGG9hAGBASF3exEzyM2tSuFQQQ1VHBjMv80MgmVON3CjAAUosCugzGM2FGDZgO1YkI4VhwRzQLH7qAtavUSAAYEBIdeDw8wcmOsRkiMExIOeGwUoQIE9gb3b3+MZxt1gQJ2jCTAgMCAcradk/FV7OwHGg4w3FMujQJoC3EEcS58B4dQDwjp+P/F3LrV8rG7IF1OAAhSgQNYE4oCw5KN3nwslncKzGCJMyXX8tvoZ5t5YQnPa5RWyWevxrIcCFKAABY4ksLPpo2NWUnxoAoIF5Z2fKZiR3OYYB4SJvyUzCJfKDAhH6oZ8EQUoQAEKZE1gp+Wj/dBDf8lGsCkZEE7aQJNyE7+rfIar09+jOe3AdiQX8TkpKv+eAhSgAAXOVEArjSQgmFMMNsK2hBpyBuFEjVCXHfyy8A/MTX6HC9N9uFXJe21PJMo/pgAFKECBsxQw4WAYKPR+8NFZGqJ/z0G4I8/VU85HcIoBKMHHjLyH+eotzEz+F9WGQrEsYDvxMn+vXOUvXhEwXhUwf8sH761WdpYdmZ9FAQpQgAInF9h7GHK8xowfwesO0Xuq0FuW8NZsqGAcZg8EhFYQSG6LP2wbSUAwEaukfVwrfIOr5f+gWW2hWvNQdENIEQHCrPt9GHRSvJBWfP2CWRnQLPARLyGcsfYxgcAkzTA0yxsqKIX4v2TLWLGv6g38/xSgAAXOrYCJBxGgJcJQot+V2N600HtWwOBZAWog48Wm8r2JeNltqRUkQtgqgKN9WHq4uyD3i99uRAHBfIhGVfTwunyKS4VvMFlcRrm4BUsEUHAA/fIfTynCJN0ICcvScCcUKjWFomvFDyXKSkgw4cAkTX+g0GsDg4FAGFpQ2j5X01D5HjCsngIUoIA5ntOQGELDhh+66Pbq+KFzAe1uDUFQgFZmmep8S5nyzaqa5geqrH3Uoi00h6uohFtxUPjxD9cIA0K86jdc+GjITbiyi4Llw0KECOZZAYcEBDN7ANNYEVyxgQvlh7jYeIxqQ6M0YcVLhaa9xUsdhxq9TojOVhEb25ex4V/DQE0ixKtmSNKunp9PAQpQgAIvCmhYUDDH1pGy4IVF9IIy+lEBvhqP59vEz+va/dJu5KHit1DvreCi/wCN8AksHb0QEkYaEE7a/WyEaKKFaece3qh8h0vNJdSbQ5QmbFi2TK5RSGEz4cAsbdzfDrGxUcWz9gye+m9jPXoTm7oRdzBuFKAABShAgawKiGgI6XdR7K9jducOpr3vUVZbsHT4vORMBwTz85/MIvQwbT/CwsQ/caGxhmojQrlqxXdGnHVISMKBRr+r0Fq38KSzgBXvHayrq+ijsjs7ktUuwbooQAEKUIACyWkGEYWQ3hamuo8wtfMdpoJ7cLSXj4CwV6W5HqEmerhgP8J8+XNcrt9F9XWFcny64eyO1p+fVtiO0HpWwmr7Taz6N/A0mkcfLmcOOOooQAEKUCA/AtqEhADl7ceYaX+NOf82iqqXr4BgqjUhwcUAM859zLpf443mXdRfC+BWBJzC6K9J2Js56HWGaLVqWGtfw4p3A+vRFXRRy0+HYKUUoAAFKECBXQGhI1idFcxufYXr3hcoqp38BYQkJGgU4GHWfoj58r9x6bXHqDc8lCZkPJMwqtMN+6cVzMyBi7XONSwPfo01NY8eKuxoFKAABShAgXwKmFset1dxZfM2FrzP8xsQ9mYSKqKPKesxrpf/hYt1c+Gij0rdhjWCkHAwHGyu21jpLManFdaiaxjwtEI+BwSrpgAFKECBRCAOCCuY27yNN/M8g7DXnuZ0g1ljYdpawqz7BS437qA+qeHWJOxTPN1gwkE41Bi0A7RaLp50ruOJ9xs8ia7GMweaCyFxiFGAAhSgQJ4Fxi0gJDMJEcro44rzAJfdbzBVfYRabQeFkoa0k9UghHlGlDzerZDCrIyYhCpEkcbQ09jsNLHWnsWa/ws8ja7ymoM8DwbWTgEKUIAC+wLjGBCSkGAWYvJw0VrDbPEW6oUnKJX6cJwQQgWQUgK2SQtH25JwkCwjEUUCw8CBPyzih8E81rxFrOsZeHA5c3A0Tr6KAhSgAAWyLjCuAWEvJBRFgJrYRlVsYEK2UJJtFEQXWliItHuM5tlfRzPSDjxVx7aeRlc1sKNcDFGK13jkRgEKUIACFBgLgXEOCAfmSVCMj+/NigQeLOFDmMdRmOciHHnbDwjKrMeNInqoYmieHcGNAhSgAAUoMG4C5yMgjFur8ftQgAIUoAAFRixwWED4w/sf6dXS2/i+9g6CxhxgFUZcDd+eAhSgAAUoQIFMCBwICG+Z2xz1gZUU3735sV4pmoBwgwEhE63FIihAAQpQgAJnJPA8IHyFt4JbKB1cSfG9Dz7Ry4VFBoQzagt+DAUoQAEKUCAzArsBwSy1vOjfQungDMJ7H36iHxcWca/KGYTMNBgLoQAFKEABCpyFwMGAEHz5oxkEBoSzaAJ+BgUoQAEKUCB7AgwI2WsTVkQBClCAAhRIXYABIfUmYAEUoAAFKECB7AkwIGSvTVgRBShAAQpQIHUBBoTUm4AFUIACFKAABbInwICQvTZhRRSgAAUoQIHUBRgQUm8CFkABClCAAhTIngADQvbahBVRgAIUoAAFUhdgQEi9CVgABShAAQpQIHsCDAjZaxNWRAEKUIACFEhdgAEh9SZgARSgAAUoQIHsCTAgZK9NWBEFKEABClAgdQEGhNSbgAVQgAIUoAAFsifAgJC9NmFFFKAABShAgdQFGBBSbwIWQAEKUIACFMieAANC9tqEFVGAAhSgAAVSF2BASL0JWAAFKEABClAgewKHB4RP9bKzgPu1d+A1ZgGrkL0vwIooQAEKUIACFDh9gcMCwrsffqofOwu4U/0VVPMqA8Lp8/MdKUABClCAAtkU0ApWZxVX2rexGHyJktp5Xqf44wcf6aXCIu5WbyBszjMgZLMJWRUFKEABClDglAU0hIpgb5uA8BUW/C9R1L39gPCnD/4an2J4UL2Bfn0O2qlACXnKRfDtKEABClCAAhTIlICOIIZ91LeXMdP9FrPBtyjowX5A+PPNv+hnzhxW3UWsV+cRlCYh7CI0Q0Km2pHFUIACFKAABU5NQCuIyEep38L0zgNMD+7itXAFtvb3A8L7Nz/UfauGln0F990F7FQuQZXq0LZ7anXwjShAAQpQgAIUyIiA1hCRh9JgC+X+Oma9O5gKHqKo+xBa7QeEmzdv6gg2+lYdG/YM2qUZtAuvY8cqQwtxjG+jj/FavpQCFKAABShwngSO83s6YhetUI0GaAYbaPrLmAxWUVFbkNgPB6YCYQKC+YeGBU9OoG1fRFfUMRBFaBz9WgShGRBG3KQ5env2hXQbK0M7onQhdj+d/TETzXCui0jG5PEOukcHJqFR0j6qegvNcB0F1ftJOHghIAAiDgSRsKFgHftCRW2mJTgOR9eiOXlnbToB+0G6rSXMaGZIiHfIPHBJty9m5dN1vGdKZxOANCNSSuBYs/KjK1dos49Q5hcfFoYvnFY4+KnPZxBOWooZiByMJ1XM/9+zD6TfhiIjO6H0JRgQstAGWagh7f2SlBJmXOZtbDIgZKH3jlENaQ/EMaL82V8lbzuhn/1Fj/CH7I9HQDoHL0m7HzAgcAbhHAyzV3/FtAfiqysc/1cwIOy3Mfvj+Pf3o3zDtPtBXgPC/wAHyZTOEpFZdwAAAABJRU5ErkJggg==;" vertex="1" parent="1">
                    <mxGeometry x="10" y="10" width="520" height="381" as="geometry"/>
                </mxCell>
                <mxCell id="3" value="" style="whiteSpace=wrap;html=1;fillColor=none;strokeColor=#FF0000;strokeWidth=3;" vertex="1" parent="1">
                    <mxGeometry x="220" y="90" width="120" height="60" as="geometry"/>
                </mxCell>
            </root>
        </mxGraphModel>
    </diagram>
</mxfile>